<svg width="341" height="825" viewBox="0 0 341 825" fill="none" xmlns="http://www.w3.org/2000/svg">
<path d="M-84.7618 808.081C-83.8355 807.479 -83.5725 806.241 -84.1743 805.314C-84.7761 804.388 -86.0148 804.125 -86.941 804.727L-84.7618 808.081ZM-81.9789 801.485C-82.902 802.091 -83.1587 803.331 -82.5521 804.254C-81.9455 805.178 -80.7055 805.434 -79.7824 804.828L-81.9789 801.485ZM-74.7813 801.523C-73.8614 800.912 -73.6111 799.67 -74.2224 798.75C-74.8337 797.83 -76.0751 797.58 -76.9951 798.192L-74.7813 801.523ZM-71.9912 794.848C-72.9081 795.464 -73.1519 796.707 -72.5359 797.624C-71.9199 798.54 -70.6773 798.784 -69.7604 798.168L-71.9912 794.848ZM-64.7214 794.764C-63.8078 794.143 -63.5703 792.899 -64.191 791.985C-64.8117 791.072 -66.0556 790.834 -66.9692 791.455L-64.7214 794.764ZM-62.042 788.089C-62.9525 788.715 -63.1838 789.96 -62.5585 790.87C-61.9331 791.781 -60.6881 792.012 -59.7776 791.387L-62.042 788.089ZM-54.8674 787.997C-53.96 787.367 -53.735 786.121 -54.3648 785.213C-54.9946 784.306 -56.2408 784.081 -57.1482 784.711L-54.8674 787.997ZM-52.2423 781.287C-53.1465 781.922 -53.3653 783.169 -52.731 784.073C-52.0966 784.977 -50.8493 785.196 -49.9451 784.562L-52.2423 781.287ZM-45.0123 781.083C-44.1112 780.444 -43.8987 779.196 -44.5376 778.295C-45.1765 777.394 -46.4248 777.181 -47.3259 777.82L-45.0123 781.083ZM-42.4006 774.309C-43.2985 774.952 -43.5047 776.202 -42.8613 777.1C-42.2179 777.998 -40.9685 778.204 -40.0707 777.56L-42.4006 774.309ZM-35.2126 774.061C-34.3179 773.413 -34.1179 772.162 -34.7657 771.268C-35.4135 770.373 -36.664 770.173 -37.5586 770.821L-35.2126 774.061ZM-32.7418 767.315C-33.6332 767.967 -33.8271 769.218 -33.1748 770.11C-32.5226 771.001 -31.2711 771.195 -30.3797 770.543L-32.7418 767.315ZM-25.543 766.985C-24.6549 766.329 -24.4672 765.076 -25.1239 764.188C-25.7806 763.3 -27.033 763.112 -27.9211 763.769L-25.543 766.985ZM-23.0981 760.184C-23.9829 760.845 -24.1643 762.099 -23.5032 762.983C-22.842 763.868 -21.5888 764.05 -20.7039 763.389L-23.0981 760.184ZM-15.8639 759.753C-14.9824 759.088 -14.8073 757.834 -15.4729 756.952C-16.1385 756.071 -17.3926 755.895 -18.2741 756.561L-15.8639 759.753ZM-13.5095 752.945C-14.3877 753.615 -14.5564 754.87 -13.8864 755.748C-13.2165 756.626 -11.9614 756.795 -11.0832 756.125L-13.5095 752.945ZM-6.33385 752.483C-5.45904 751.808 -5.29657 750.552 -5.97096 749.678C-6.64536 748.803 -7.90122 748.64 -8.77603 749.315L-6.33385 752.483ZM-4.04604 745.649C-4.91742 746.328 -5.07351 747.585 -4.39469 748.456C-3.7159 749.327 -2.45922 749.484 -1.58784 748.805L-4.04604 745.649ZM3.15333 745.092C4.02123 744.409 4.17089 743.151 3.48763 742.283C2.80437 741.415 1.54695 741.266 0.679054 741.949L3.15333 745.092ZM5.39779 738.214C4.53343 738.902 4.39025 740.16 5.07798 741.025C5.76566 741.889 7.02389 742.032 7.88824 741.344L5.39779 738.214ZM12.5868 737.586C13.4476 736.894 13.5843 735.635 12.8921 734.774C12.2 733.914 10.941 733.777 10.0802 734.469L12.5868 737.586ZM14.7246 730.715C13.8674 731.411 13.7372 732.671 14.4339 733.528C15.1305 734.385 16.3902 734.515 17.2473 733.819L14.7246 730.715ZM21.8976 730.019C22.7511 729.318 22.8746 728.058 22.1735 727.204C21.4724 726.351 20.2121 726.227 19.3586 726.928L21.8976 730.019ZM23.9809 723.111C23.1312 723.816 23.0143 725.077 23.72 725.927C24.4256 726.777 25.6865 726.894 26.5363 726.188L23.9809 723.111ZM31.1621 722.326C32.008 721.615 32.1181 720.354 31.4079 719.508C30.6977 718.662 29.4361 718.552 28.5902 719.262L31.1621 722.326ZM33.1771 715.39C32.335 716.105 32.2318 717.367 32.9466 718.209C33.6614 719.051 34.9235 719.154 35.7656 718.44L33.1771 715.39ZM40.331 714.543C41.1692 713.824 41.2655 712.561 40.5461 711.723C39.8267 710.885 38.5641 710.788 37.7259 711.508L40.331 714.543ZM42.2577 707.597C41.4235 708.321 41.3341 709.584 42.0582 710.418C42.7821 711.252 44.0453 711.341 44.8796 710.617L42.2577 707.597ZM49.41 706.663C50.2401 705.934 50.3223 704.671 49.5937 703.841C48.865 703.011 47.6013 702.928 46.7712 703.657L49.41 706.663ZM51.265 699.69C50.4391 700.423 50.364 701.687 51.0974 702.513C51.8308 703.339 53.0949 703.414 53.9208 702.681L51.265 699.69ZM58.4109 698.671C59.2327 697.933 59.3004 696.668 58.5623 695.847C57.8241 695.025 56.5596 694.957 55.7379 695.695L58.4109 698.671ZM60.183 691.679C59.3656 692.422 59.3052 693.687 60.0481 694.504C60.791 695.321 62.0559 695.382 62.8733 694.639L60.183 691.679ZM67.3122 690.58C68.1252 689.833 68.178 688.567 67.4303 687.755C66.6825 686.942 65.4173 686.889 64.6043 687.636L67.3122 690.58ZM69.0007 683.568C68.1923 684.321 68.147 685.586 68.8996 686.395C69.6523 687.203 70.9178 687.249 71.7263 686.496L69.0007 683.568ZM76.1142 682.386C76.9181 681.629 76.9556 680.363 76.198 679.559C75.4405 678.755 74.1747 678.718 73.3708 679.475L76.1142 682.386ZM77.7133 675.357C76.9141 676.12 76.8845 677.386 77.647 678.185C78.4096 678.984 79.6755 679.014 80.4747 678.251L77.7133 675.357ZM84.8183 674.08C85.6126 673.313 85.6343 672.046 84.8667 671.252C84.0991 670.458 82.833 670.436 82.0387 671.204L84.8183 674.08ZM86.3384 667.022C85.5491 667.795 85.5356 669.061 86.3083 669.85C87.0809 670.639 88.3472 670.653 89.1365 669.88L86.3384 667.022ZM93.423 665.657C94.2073 664.879 94.2125 663.613 93.4347 662.828C92.6568 662.044 91.3905 662.039 90.6063 662.817L93.423 665.657ZM94.8408 658.589C94.0618 659.372 94.065 660.638 94.8481 661.417C95.6311 662.196 96.8974 662.193 97.6765 661.41L94.8408 658.589ZM101.895 657.141C102.669 656.352 102.657 655.086 101.869 654.312C101.081 653.539 99.8145 653.551 99.0408 654.339L101.895 657.141ZM103.221 650.05C102.453 650.844 102.474 652.11 103.267 652.878C104.061 653.646 105.327 653.626 106.095 652.832L103.221 650.05ZM110.278 648.48C111.041 647.681 111.011 646.415 110.212 645.653C109.413 644.89 108.147 644.92 107.384 645.719L110.278 648.48ZM111.508 641.367C110.751 642.171 110.79 643.437 111.594 644.194C112.399 644.951 113.665 644.912 114.421 644.107L111.508 641.367ZM118.524 639.713C119.275 638.903 119.227 637.637 118.417 636.887C117.607 636.136 116.341 636.184 115.59 636.994L118.524 639.713ZM119.631 632.602C118.886 633.417 118.944 634.682 119.76 635.427C120.575 636.172 121.84 636.114 122.585 635.298L119.631 632.602ZM126.616 630.849C127.354 630.028 127.287 628.763 126.465 628.025C125.644 627.287 124.379 627.354 123.641 628.175L126.616 630.849ZM127.646 623.684C126.914 624.511 126.992 625.775 127.819 626.507C128.646 627.239 129.91 627.162 130.642 626.334L127.646 623.684ZM134.621 621.8C135.347 620.967 135.259 619.703 134.426 618.978C133.593 618.253 132.329 618.341 131.604 619.174L134.621 621.8ZM135.513 614.646C134.795 615.485 134.893 616.747 135.732 617.465C136.571 618.184 137.833 618.086 138.552 617.247L135.513 614.646ZM142.432 612.675C143.143 611.83 143.034 610.568 142.189 609.857C141.344 609.146 140.082 609.254 139.371 610.1L142.432 612.675ZM143.184 605.529C142.48 606.38 142.599 607.641 143.451 608.344C144.302 609.048 145.563 608.929 146.267 608.077L143.184 605.529ZM150.11 603.387C150.806 602.529 150.675 601.269 149.817 600.573C148.96 599.877 147.7 600.008 147.004 600.866L150.11 603.387ZM150.767 596.186C150.079 597.05 150.222 598.308 151.086 598.997C151.949 599.685 153.208 599.542 153.896 598.679L150.767 596.186ZM157.624 593.954C158.304 593.083 158.15 591.826 157.28 591.146C156.409 590.466 155.152 590.62 154.472 591.491L157.624 593.954ZM158.117 586.78C157.446 587.657 157.612 588.912 158.489 589.584C159.366 590.256 160.621 590.089 161.293 589.212L158.117 586.78ZM164.904 584.451C165.567 583.567 165.388 582.314 164.505 581.651C163.621 580.988 162.367 581.166 161.704 582.05L164.904 584.451ZM165.303 577.204C164.649 578.094 164.84 579.346 165.731 580C166.621 580.654 167.873 580.462 168.526 579.572L165.303 577.204ZM172.082 574.678C172.727 573.781 172.522 572.531 171.625 571.887C170.728 571.242 169.478 571.447 168.833 572.344L172.082 574.678ZM172.295 567.471C171.66 568.375 171.879 569.622 172.783 570.257C173.687 570.891 174.934 570.673 175.569 569.769L172.295 567.471ZM178.985 564.847C179.61 563.936 179.377 562.691 178.466 562.066C177.556 561.441 176.311 561.674 175.686 562.584L178.985 564.847ZM179.014 557.672C178.399 558.59 178.646 559.833 179.564 560.447C180.482 561.061 181.724 560.815 182.338 559.897L179.014 557.672ZM185.692 554.819C186.295 553.893 186.034 552.654 185.109 552.051C184.184 551.448 182.945 551.709 182.341 552.634L185.692 554.819ZM185.589 547.585C184.998 548.517 185.274 549.753 186.207 550.345C187.139 550.937 188.375 550.66 188.967 549.728L185.589 547.585ZM192.16 544.625C192.74 543.685 192.448 542.452 191.508 541.872C190.568 541.292 189.336 541.584 188.756 542.524L192.16 544.625ZM191.839 537.454C191.272 538.402 191.58 539.63 192.527 540.198C193.474 540.765 194.703 540.458 195.271 539.51L191.839 537.454ZM198.322 534.341C198.877 533.386 198.552 532.162 197.597 531.607C196.642 531.052 195.418 531.376 194.863 532.331L198.322 534.341ZM197.857 527.095C197.316 528.057 197.657 529.277 198.62 529.818C199.583 530.36 200.802 530.018 201.344 529.056L197.857 527.095ZM204.272 523.76C204.8 522.79 204.441 521.575 203.47 521.048C202.5 520.52 201.285 520.879 200.758 521.85L204.272 523.76ZM203.563 516.598C203.05 517.576 203.427 518.785 204.405 519.298C205.383 519.811 206.592 519.434 207.105 518.455L203.563 516.598ZM209.84 513.142C210.338 512.156 209.943 510.953 208.957 510.455C207.971 509.957 206.768 510.353 206.27 511.339L209.84 513.142ZM208.926 505.973C208.444 506.967 208.859 508.163 209.853 508.645C210.847 509.127 212.043 508.713 212.525 507.719L208.926 505.973ZM215.134 502.225C215.6 501.223 215.165 500.034 214.163 499.568C213.162 499.103 211.972 499.538 211.507 500.539L215.134 502.225ZM213.977 495.101C213.529 496.11 213.984 497.292 214.994 497.74C216.004 498.188 217.185 497.733 217.633 496.724L213.977 495.101ZM220.02 491.216C220.45 490.199 219.974 489.026 218.957 488.595C217.94 488.165 216.766 488.641 216.336 489.659L220.02 491.216ZM218.586 484.2C218.174 485.225 218.672 486.389 219.697 486.801C220.722 487.212 221.887 486.715 222.298 485.69L218.586 484.2ZM224.519 480C224.911 478.968 224.391 477.813 223.358 477.421C222.325 477.03 221.17 477.549 220.779 478.582L224.519 480ZM222.846 472.963C222.475 474.004 223.018 475.148 224.058 475.519C225.099 475.89 226.243 475.347 226.614 474.307L222.846 472.963ZM228.58 468.609C228.929 467.562 228.363 466.429 227.316 466.079C226.268 465.73 225.135 466.296 224.786 467.344L228.58 468.609ZM226.595 461.724C226.267 462.779 226.857 463.9 227.912 464.227C228.967 464.555 230.088 463.965 230.415 462.91L226.595 461.724ZM232.149 457.096C232.453 456.034 231.839 454.927 230.777 454.623C229.715 454.319 228.607 454.933 228.304 455.995L232.149 457.096ZM229.886 450.216C229.607 451.285 230.247 452.377 231.315 452.657C232.384 452.936 233.477 452.296 233.756 451.228L229.886 450.216ZM235.217 445.36C235.471 444.285 234.805 443.207 233.73 442.953C232.655 442.699 231.578 443.365 231.324 444.44L235.217 445.36ZM232.614 438.668C232.386 439.749 233.078 440.81 234.159 441.037C235.239 441.265 236.3 440.573 236.528 439.493L232.614 438.668ZM237.698 433.571C237.899 432.484 237.18 431.441 236.094 431.241C235.008 431.041 233.965 431.759 233.765 432.845L237.698 433.571ZM234.773 426.946C234.601 428.037 235.347 429.061 236.438 429.232C237.529 429.404 238.553 428.659 238.724 427.567L234.773 426.946ZM239.586 421.568C239.728 420.473 238.955 419.47 237.86 419.328C236.765 419.186 235.761 419.958 235.619 421.054L239.586 421.568ZM236.301 415.17C236.189 416.269 236.989 417.25 238.088 417.362C239.187 417.474 240.168 416.674 240.28 415.575L236.301 415.17ZM240.805 409.566C240.886 408.465 240.058 407.506 238.956 407.426C237.855 407.346 236.897 408.173 236.816 409.275L240.805 409.566ZM237.163 403.32C237.115 404.424 237.971 405.357 239.075 405.405C240.178 405.453 241.112 404.597 241.16 403.494L237.163 403.32ZM241.332 397.43C241.347 396.326 240.463 395.418 239.359 395.404C238.254 395.389 237.347 396.272 237.332 397.377L241.332 397.43ZM237.321 391.446C237.34 392.551 238.251 393.43 239.355 393.411C240.46 393.392 241.339 392.481 241.32 391.377L237.321 391.446ZM241.121 385.332C241.067 384.229 240.129 383.378 239.026 383.432C237.923 383.486 237.072 384.424 237.126 385.527L241.121 385.332ZM236.743 379.605C236.832 380.706 237.796 381.527 238.897 381.438C239.998 381.349 240.819 380.384 240.73 379.283L236.743 379.605ZM240.144 373.248C240.019 372.151 239.029 371.362 237.931 371.487C236.834 371.611 236.045 372.602 236.169 373.699L240.144 373.248ZM235.403 367.81C235.564 368.903 236.58 369.658 237.673 369.498C238.765 369.337 239.521 368.321 239.361 367.228L235.403 367.81ZM238.377 361.227C238.181 360.14 237.14 359.418 236.053 359.615C234.966 359.811 234.245 360.852 234.441 361.939L238.377 361.227ZM233.296 356.156C233.529 357.236 234.593 357.923 235.672 357.691C236.752 357.458 237.439 356.394 237.207 355.314L233.296 356.156ZM235.835 349.421C235.566 348.349 234.48 347.698 233.409 347.967C232.337 348.235 231.686 349.321 231.954 350.392L235.835 349.421ZM230.414 344.648C230.717 345.71 231.825 346.324 232.887 346.02C233.949 345.716 234.563 344.609 234.259 343.547L230.414 344.648ZM232.477 337.695C232.137 336.644 231.01 336.067 229.959 336.406C228.908 336.745 228.331 337.873 228.67 338.924L232.477 337.695ZM226.775 333.367C227.149 334.406 228.294 334.946 229.334 334.573C230.373 334.199 230.913 333.053 230.539 332.014L226.775 333.367ZM228.41 326.378C228.002 325.351 226.84 324.849 225.813 325.256C224.786 325.663 224.284 326.826 224.691 327.852L228.41 326.378ZM222.409 322.359C222.849 323.372 224.027 323.837 225.041 323.397C226.054 322.957 226.518 321.778 226.078 320.765L222.409 322.359ZM223.542 315.177C223.069 314.179 221.877 313.753 220.878 314.225C219.88 314.698 219.454 315.89 219.926 316.889L223.542 315.177ZM217.317 311.591C217.821 312.574 219.026 312.963 220.009 312.46C220.992 311.957 221.381 310.752 220.878 309.768L217.317 311.591ZM218.074 304.489C217.541 303.521 216.324 303.169 215.357 303.702C214.389 304.234 214.037 305.451 214.57 306.418L218.074 304.489ZM211.632 301.268C212.194 302.219 213.42 302.535 214.371 301.974C215.323 301.412 215.639 300.186 215.077 299.235L211.632 301.268ZM211.887 294.007C211.298 293.072 210.062 292.793 209.128 293.382C208.194 293.971 207.914 295.206 208.503 296.14L211.887 294.007ZM205.203 291.071C205.819 291.988 207.062 292.232 207.979 291.616C208.896 291.001 209.14 289.758 208.524 288.841L205.203 291.071ZM205.166 283.985C204.526 283.085 203.277 282.874 202.377 283.515C201.477 284.155 201.267 285.404 201.907 286.304L205.166 283.985ZM198.435 281.559C199.099 282.441 200.353 282.619 201.236 281.955C202.119 281.291 202.296 280.037 201.632 279.155L198.435 281.559ZM197.921 274.35C197.234 273.485 195.976 273.34 195.111 274.026C194.246 274.713 194.101 275.971 194.787 276.836L197.921 274.35ZM190.96 272.138C191.669 272.985 192.93 273.098 193.777 272.39C194.625 271.681 194.738 270.42 194.029 269.572L190.96 272.138ZM190.058 264.938C189.329 264.108 188.065 264.026 187.235 264.754C186.405 265.483 186.323 266.747 187.052 267.577L190.058 264.938ZM183.179 263.267C183.927 264.08 185.192 264.133 186.005 263.386C186.818 262.638 186.872 261.373 186.124 260.56L183.179 263.267ZM182.032 256.207C181.266 255.41 180 255.385 179.204 256.151C178.408 256.916 178.383 258.182 179.148 258.979L182.032 256.207ZM174.957 254.713C175.74 255.492 177.006 255.49 177.785 254.707C178.565 253.925 178.562 252.658 177.78 251.879L174.957 254.713ZM173.366 247.577C172.567 246.814 171.301 246.844 170.538 247.643C169.776 248.442 169.805 249.708 170.605 250.47L173.366 247.577ZM166.156 246.312C166.97 247.058 168.236 247.003 168.981 246.188C169.727 245.373 169.672 244.108 168.857 243.362L166.156 246.312ZM164.511 239.458C163.683 238.728 162.419 238.807 161.689 239.636C160.958 240.464 161.038 241.728 161.866 242.459L164.511 239.458ZM157.437 238.626C158.278 239.341 159.541 239.238 160.256 238.396C160.971 237.554 160.868 236.292 160.026 235.577L157.437 238.626ZM155.401 231.719C154.546 231.019 153.286 231.145 152.586 231.999C151.886 232.854 152.012 234.114 152.866 234.814L155.401 231.719ZM148.154 231.024C149.021 231.709 150.278 231.561 150.963 230.694C151.648 229.828 151.5 228.57 150.633 227.885L148.154 231.024ZM145.723 224.075C144.845 223.406 143.59 223.575 142.92 224.454C142.25 225.332 142.42 226.587 143.298 227.257L145.723 224.075ZM138.546 223.694C139.435 224.35 140.687 224.16 141.343 223.271C141.998 222.382 141.809 221.13 140.919 220.475L138.546 223.694ZM136.183 217.038C135.284 216.396 134.035 216.604 133.393 217.503C132.751 218.402 132.959 219.651 133.858 220.293L136.183 217.038ZM129.048 216.911C129.956 217.539 131.202 217.313 131.831 216.405C132.459 215.496 132.233 214.25 131.325 213.622L129.048 216.911ZM126.344 210.227C125.427 209.612 124.184 209.856 123.569 210.774C122.953 211.691 123.198 212.933 124.115 213.549L126.344 210.227ZM119.058 210.207C119.984 210.81 121.223 210.548 121.825 209.622C122.427 208.696 122.165 207.457 121.24 206.855L119.058 210.207ZM116.011 203.504C115.077 202.914 113.842 203.194 113.252 204.128C112.663 205.062 112.942 206.297 113.876 206.886L116.011 203.504ZM108.769 203.71C109.711 204.287 110.942 203.992 111.52 203.05C112.097 202.108 111.802 200.877 110.86 200.3L108.769 203.71ZM105.878 197.286C104.929 196.72 103.701 197.031 103.135 197.979C102.57 198.928 102.88 200.155 103.828 200.721L105.878 197.286ZM98.7818 197.751C99.737 198.306 100.961 197.981 101.516 197.026C102.07 196.071 101.746 194.847 100.79 194.292L98.7818 197.751ZM95.5972 191.317C94.6357 190.773 93.4156 191.112 92.872 192.074C92.3285 193.035 92.6674 194.256 93.629 194.799L95.5972 191.317ZM88.3693 191.866C89.337 192.398 90.5532 192.045 91.0858 191.078C91.6184 190.11 91.2656 188.894 90.2979 188.361L88.3693 191.866ZM84.8915 185.425C83.9179 184.904 82.7057 185.27 82.184 186.243C81.6622 187.217 82.0285 188.429 83.0021 188.951L84.8915 185.425ZM77.5267 186.055C78.5059 186.566 79.714 186.187 80.2251 185.208C80.7362 184.228 80.3567 183.02 79.3774 182.509L77.5267 186.055ZM74.0979 179.788C73.1136 179.287 71.9094 179.678 71.4082 180.663C70.907 181.647 71.2987 182.851 72.283 183.352L74.0979 179.788ZM67.1096 180.749C68.0987 181.241 69.2991 180.838 69.7908 179.849C70.2826 178.86 69.8794 177.659 68.8903 177.168L67.1096 180.749ZM63.5919 174.565C62.5982 174.082 61.4017 174.497 60.9192 175.49C60.4368 176.484 60.8513 177.681 61.8449 178.163L63.5919 174.565ZM56.4886 175.593C57.4867 176.066 58.6794 175.641 59.1527 174.643C59.6259 173.645 59.2004 172.452 58.2023 171.979L56.4886 175.593ZM52.7211 169.41C51.7187 168.946 50.5299 169.382 50.0658 170.385C49.6016 171.387 50.0378 172.576 51.0401 173.04L52.7211 169.41ZM45.4991 170.504C46.5055 170.959 47.6904 170.512 48.1456 169.506C48.6008 168.5 48.154 167.315 47.1476 166.86L45.4991 170.504ZM41.4815 164.326C40.4711 163.88 39.2902 164.337 38.8437 165.347C38.3973 166.358 38.8544 167.539 39.8648 167.985L41.4815 164.326ZM34.2737 165.543C35.2877 165.981 36.4648 165.514 36.9027 164.5C37.3407 163.486 36.8737 162.308 35.8597 161.871L34.2737 165.543ZM30.532 159.594C29.5146 159.164 28.3412 159.64 27.911 160.657C27.4808 161.674 27.9569 162.848 28.9742 163.278L30.532 159.594ZM23.5963 161.028C24.6169 161.451 25.7867 160.966 26.2092 159.945C26.6317 158.925 26.1468 157.755 25.1262 157.332L23.5963 161.028ZM19.642 155.086C18.6183 154.671 17.4521 155.165 17.0372 156.188C16.6223 157.212 17.1159 158.378 18.1396 158.793L19.642 155.086ZM12.6036 156.573C13.6303 156.981 14.7928 156.479 15.2002 155.452C15.6076 154.425 15.1055 153.263 14.0788 152.855L12.6036 156.573ZM8.43656 150.64C7.40699 150.24 6.24805 150.75 5.84808 151.78C5.44805 152.81 5.95844 153.969 6.98806 154.369L8.43656 150.64ZM1.29251 152.179C2.32491 152.572 3.48019 152.053 3.87289 151.021C4.26563 149.988 3.74703 148.833 2.71463 148.44L1.29251 152.179ZM-3.08724 146.257C-4.12234 145.871 -5.27401 146.398 -5.65952 147.433C-6.04503 148.468 -5.51844 149.62 -4.48334 150.005L-3.08724 146.257ZM-10.2693 147.872C-9.23162 148.251 -8.08355 147.717 -7.70503 146.679C-7.32651 145.641 -7.86087 144.493 -8.89853 144.115L-10.2693 147.872ZM-14.3379 142.15C-15.3779 141.777 -16.5227 142.319 -16.8948 143.359C-17.2669 144.399 -16.7256 145.544 -15.6855 145.916L-14.3379 142.15ZM-21.1695 143.972C-20.1273 144.338 -18.9858 143.79 -18.6199 142.747C-18.2541 141.705 -18.8025 140.564 -19.8447 140.198L-21.1695 143.972ZM-25.4193 138.26C-26.4637 137.9 -27.6019 138.455 -27.9615 139.5C-28.3211 140.544 -27.766 141.682 -26.7216 142.042L-25.4193 138.26ZM-32.3421 140.125C-31.2956 140.479 -30.1607 139.917 -29.8073 138.87C-29.4538 137.824 -30.0156 136.689 -31.0621 136.336L-32.3421 140.125ZM-36.7731 134.425C-37.8216 134.078 -38.9532 134.646 -39.3006 135.695C-39.648 136.743 -39.0797 137.875 -38.0312 138.222L-36.7731 134.425ZM-43.7892 136.333C-42.7387 136.674 -41.6104 136.099 -41.269 135.049C-40.9276 133.998 -41.5024 132.87 -42.5528 132.528L-43.7892 136.333ZM-48.4015 130.646C-49.4539 130.31 -50.579 130.891 -50.9145 131.944C-51.25 132.996 -50.6689 134.121 -49.6165 134.457L-48.4015 130.646ZM-55.5131 132.595C-54.4589 132.925 -53.337 132.337 -53.0074 131.283C-52.6777 130.229 -53.2651 129.107 -54.3193 128.777L-55.5131 132.595ZM-60.188 126.96C-61.244 126.636 -62.3627 127.229 -62.6867 128.285C-63.0107 129.341 -62.4173 130.46 -61.3613 130.784L-60.188 126.96ZM-66.881 129.105C-65.8234 129.424 -64.7077 128.825 -64.3888 127.767C-64.0701 126.71 -64.6689 125.594 -65.7265 125.275L-66.881 129.105ZM-71.3237 123.603C-72.3828 123.289 -73.4957 123.893 -73.8093 124.952C-74.123 126.012 -73.5187 127.124 -72.4596 127.438L-71.3237 123.603ZM-78.0971 125.783C-77.0365 126.092 -75.9266 125.482 -75.618 124.422C-75.3095 123.361 -75.9191 122.251 -76.9797 121.942L-78.0971 125.783ZM-82.6948 120.294C-83.7569 119.991 -84.8639 120.606 -85.1674 121.668C-85.471 122.73 -84.8561 123.837 -83.794 124.14L-82.6948 120.294ZM-89.5503 122.51C-88.4869 122.808 -87.3827 122.188 -87.0841 121.125C-86.7856 120.061 -87.4056 118.957 -88.4691 118.659L-89.5503 122.51ZM-94.303 117.035C-95.3678 116.742 -96.469 117.367 -96.7627 118.432C-97.0564 119.497 -96.4312 120.598 -95.3664 120.891L-94.303 117.035ZM-101.242 119.285C-100.176 119.574 -99.0777 118.944 -98.7889 117.878C-98.5001 116.812 -99.1303 115.713 -100.196 115.425L-101.242 119.285ZM-106.15 113.826C-107.217 113.542 -108.313 114.177 -108.597 115.245C-108.881 116.312 -108.246 117.408 -107.178 117.692L-106.15 113.826ZM-113.175 116.111C-112.106 116.39 -111.013 115.75 -110.734 114.681C-110.455 113.613 -111.095 112.52 -112.163 112.241L-113.175 116.111ZM-87.2428 809.689C-86.4167 809.155 -85.5897 808.619 -84.7618 808.081L-86.941 804.727C-87.7661 805.263 -88.5902 805.797 -89.4134 806.329L-87.2428 809.689ZM-79.7824 804.828C-78.1189 803.735 -76.4518 802.633 -74.7813 801.523L-76.9951 798.192C-78.6598 799.298 -80.3212 800.395 -81.9789 801.485L-79.7824 804.828ZM-69.7604 798.168C-68.0837 797.042 -66.4039 795.907 -64.7214 794.764L-66.9692 791.455C-68.6461 792.594 -70.3202 793.725 -71.9912 794.848L-69.7604 798.168ZM-59.7776 791.387C-58.143 790.264 -56.5062 789.134 -54.8674 787.997L-57.1482 784.711C-58.7816 785.844 -60.4129 786.971 -62.042 788.089L-59.7776 791.387ZM-49.9451 784.562C-48.3025 783.409 -46.6581 782.25 -45.0123 781.083L-47.3259 777.82C-48.9663 778.983 -50.6051 780.139 -52.2423 781.287L-49.9451 784.562ZM-40.0707 777.56C-38.4524 776.401 -36.8329 775.234 -35.2126 774.061L-37.5586 770.821C-39.1736 771.99 -40.7877 773.153 -42.4006 774.309L-40.0707 777.56ZM-30.3797 770.543C-28.7681 769.364 -27.1558 768.178 -25.543 766.985L-27.9211 763.769C-29.5285 764.957 -31.1355 766.139 -32.7418 767.315L-30.3797 770.543ZM-20.7039 763.389C-19.0906 762.183 -17.4772 760.971 -15.8639 759.753L-18.2741 756.561C-19.8821 757.775 -21.4901 758.983 -23.0981 760.184L-20.7039 763.389ZM-11.0832 756.125C-9.49973 754.917 -7.91651 753.703 -6.33385 752.483L-8.77603 749.315C-10.3534 750.531 -11.9312 751.741 -13.5095 752.945L-11.0832 756.125ZM-1.58784 748.805C-0.00659575 747.573 1.57391 746.335 3.15333 745.092L0.679054 741.949C-0.895 743.188 -2.47012 744.422 -4.04604 745.649L-1.58784 748.805ZM7.88824 741.344C9.4558 740.097 11.022 738.844 12.5868 737.586L10.0802 734.469C8.52085 735.723 6.95997 736.971 5.39779 738.214L7.88824 741.344ZM17.2473 733.819C18.7992 732.557 20.3494 731.291 21.8976 730.019L19.3586 726.928C17.8158 728.196 16.2711 729.458 14.7246 730.715L17.2473 733.819ZM26.5363 726.188C28.0804 724.906 29.6225 723.618 31.1621 722.326L28.5902 719.262C27.0561 720.55 25.5196 721.833 23.9809 723.111L26.5363 726.188ZM35.7656 718.44C37.29 717.146 38.8119 715.847 40.331 714.543L37.7259 711.508C36.2124 712.807 34.696 714.101 33.1771 715.39L35.7656 718.44ZM44.8796 710.617C46.3928 709.304 47.903 707.986 49.41 706.663L46.7712 703.657C45.2699 704.975 43.7653 706.288 42.2577 707.597L44.8796 710.617ZM53.9208 702.681C55.4211 701.349 56.9179 700.012 58.4109 698.671L55.7379 695.695C54.2506 697.031 52.7596 698.363 51.265 699.69L53.9208 702.681ZM62.8733 694.639C64.3569 693.29 65.8366 691.938 67.3122 690.58L64.6043 687.636C63.1346 688.988 61.6607 690.336 60.183 691.679L62.8733 694.639ZM71.7263 686.496C73.1933 685.13 74.656 683.76 76.1142 682.386L73.3708 679.475C71.9187 680.844 70.4619 682.208 69.0007 683.568L71.7263 686.496ZM80.4747 678.251C81.9275 676.865 83.3754 675.475 84.8183 674.08L82.0387 671.204C80.6019 672.592 79.16 673.977 77.7133 675.357L80.4747 678.251ZM89.1365 669.88C90.5707 668.476 91.9996 667.069 93.423 665.657L90.6063 662.817C89.1891 664.222 87.7664 665.624 86.3384 667.022L89.1365 669.88ZM97.6765 661.41C99.0886 659.991 100.495 658.568 101.895 657.141L99.0408 654.339C97.6467 655.759 96.2467 657.176 94.8408 658.589L97.6765 661.41ZM106.095 652.832C107.496 651.385 108.89 649.935 110.278 648.48L107.384 645.719C106.003 647.166 104.615 648.61 103.221 650.05L106.095 652.832ZM114.421 644.107C115.796 642.646 117.164 641.181 118.524 639.713L115.59 636.994C114.237 638.455 112.876 639.912 111.508 641.367L114.421 644.107ZM122.585 635.298C123.936 633.819 125.28 632.336 126.616 630.849L123.641 628.175C122.312 629.654 120.975 631.129 119.631 632.602L122.585 635.298ZM130.642 626.334C131.977 624.826 133.303 623.315 134.621 621.8L131.604 619.174C130.293 620.68 128.974 622.184 127.646 623.684L130.642 626.334ZM138.552 617.247C139.853 615.726 141.147 614.202 142.432 612.675L139.371 610.1C138.094 611.618 136.807 613.133 135.513 614.646L138.552 617.247ZM146.267 608.077C147.557 606.517 148.838 604.953 150.11 603.387L147.004 600.866C145.74 602.423 144.467 603.977 143.184 605.529L146.267 608.077ZM153.896 598.679C155.149 597.106 156.391 595.531 157.624 593.954L154.472 591.491C153.247 593.058 152.012 594.624 150.767 596.186L153.896 598.679ZM161.293 589.212C162.507 587.628 163.71 586.041 164.904 584.451L161.704 582.05C160.519 583.629 159.323 585.206 158.117 586.78L161.293 589.212ZM168.526 579.572C169.723 577.943 170.908 576.312 172.082 574.678L168.833 572.344C167.668 573.966 166.491 575.586 165.303 577.204L168.526 579.572ZM175.569 569.769C176.719 568.131 177.858 566.49 178.985 564.847L175.686 562.584C174.568 564.215 173.437 565.844 172.295 567.471L175.569 569.769ZM182.338 559.897C183.469 558.206 184.587 556.514 185.692 554.819L182.341 552.634C181.245 554.316 180.136 555.995 179.014 557.672L182.338 559.897ZM188.967 549.728C190.045 548.029 191.11 546.328 192.16 544.625L188.756 542.524C187.714 544.213 186.659 545.9 185.589 547.585L188.967 549.728ZM195.271 539.51C196.302 537.789 197.319 536.066 198.322 534.341L194.863 532.331C193.87 534.04 192.862 535.748 191.839 537.454L195.271 539.51ZM201.344 529.056C202.336 527.292 203.312 525.527 204.272 523.76L200.758 521.85C199.807 523.599 198.84 525.348 197.857 527.095L201.344 529.056ZM207.105 518.455C208.033 516.686 208.945 514.914 209.84 513.142L206.27 511.339C205.384 513.093 204.481 514.846 203.563 516.598L207.105 518.455ZM212.525 507.719C213.413 505.889 214.283 504.057 215.134 502.225L211.507 500.539C210.665 502.351 209.805 504.163 208.926 505.973L212.525 507.719ZM217.633 496.724C218.448 494.889 219.243 493.053 220.02 491.216L216.336 489.659C215.569 491.473 214.782 493.287 213.977 495.101L217.633 496.724ZM222.298 485.69C223.059 483.794 223.8 481.898 224.519 480L220.779 478.582C220.069 480.455 219.338 482.328 218.586 484.2L222.298 485.69ZM226.614 474.307C227.291 472.408 227.946 470.509 228.58 468.609L224.786 467.344C224.161 469.217 223.514 471.09 222.846 472.963L226.614 474.307ZM230.415 462.91C231.016 460.972 231.595 459.034 232.149 457.096L228.304 455.995C227.757 457.905 227.187 459.814 226.595 461.724L230.415 462.91ZM233.756 451.228C234.267 449.272 234.754 447.315 235.217 445.36L231.324 444.44C230.869 446.365 230.39 448.29 229.886 450.216L233.756 451.228ZM236.528 439.493C236.944 437.518 237.334 435.544 237.698 433.571L233.765 432.845C233.407 434.785 233.023 436.726 232.614 438.668L236.528 439.493ZM238.724 427.567C239.039 425.567 239.327 423.567 239.586 421.568L235.619 421.054C235.365 423.016 235.082 424.98 234.773 426.946L238.724 427.567ZM240.28 415.575C240.484 413.571 240.659 411.568 240.805 409.566L236.816 409.275C236.673 411.238 236.501 413.203 236.301 415.17L240.28 415.575ZM241.16 403.494C241.247 401.471 241.305 399.45 241.332 397.43L237.332 397.377C237.306 399.356 237.249 401.337 237.163 403.32L241.16 403.494ZM241.32 391.377C241.285 389.36 241.219 387.345 241.121 385.332L237.126 385.527C237.222 387.498 237.287 389.471 237.321 391.446L241.32 391.377ZM240.73 379.283C240.567 377.269 240.372 375.258 240.144 373.248L236.169 373.699C236.392 375.665 236.583 377.634 236.743 379.605L240.73 379.283ZM239.361 367.228C239.066 365.225 238.739 363.224 238.377 361.227L234.441 361.939C234.795 363.893 235.115 365.85 235.403 367.81L239.361 367.228ZM237.207 355.314C236.783 353.347 236.326 351.382 235.835 349.421L231.954 350.392C232.435 352.311 232.882 354.232 233.296 356.156L237.207 355.314ZM234.259 343.547C233.7 341.593 233.106 339.642 232.477 337.695L228.67 338.924C229.285 340.828 229.866 342.737 230.414 344.648L234.259 343.547ZM230.539 332.014C229.863 330.132 229.153 328.253 228.41 326.378L224.691 327.852C225.419 329.687 226.113 331.525 226.775 333.367L230.539 332.014ZM226.078 320.765C225.267 318.899 224.421 317.036 223.542 315.177L219.926 316.889C220.788 318.708 221.615 320.532 222.409 322.359L226.078 320.765ZM220.878 309.768C219.975 308.004 219.04 306.245 218.074 304.489L214.57 306.418C215.517 308.139 216.433 309.863 217.317 311.591L220.878 309.768ZM215.077 299.235C214.046 297.488 212.983 295.745 211.887 294.007L208.503 296.14C209.578 297.846 210.621 299.555 211.632 301.268L215.077 299.235ZM208.524 288.841C207.434 287.218 206.315 285.6 205.166 283.985L201.907 286.304C203.035 287.889 204.133 289.479 205.203 291.071L208.524 288.841ZM201.632 279.155C200.425 277.549 199.188 275.947 197.921 274.35L194.787 276.836C196.033 278.406 197.249 279.981 198.435 281.559L201.632 279.155ZM194.029 269.572C192.734 268.023 191.411 266.478 190.058 264.938L187.052 267.577C188.384 269.093 189.686 270.613 190.96 272.138L194.029 269.572ZM186.124 260.56C184.787 259.105 183.423 257.654 182.032 256.207L179.148 258.979C180.518 260.404 181.862 261.834 183.179 263.267L186.124 260.56ZM177.78 251.879C176.335 250.44 174.864 249.006 173.366 247.577L170.605 250.47C172.082 251.881 173.533 253.295 174.957 254.713L177.78 251.879ZM168.857 243.362C167.432 242.057 165.983 240.756 164.511 239.458L161.866 242.459C163.319 243.74 164.749 245.024 166.156 246.312L168.857 243.362ZM160.026 235.577C158.508 234.287 156.966 233.001 155.401 231.719L152.866 234.814C154.413 236.081 155.937 237.351 157.437 238.626L160.026 235.577ZM150.633 227.885C149.02 226.611 147.384 225.341 145.723 224.075L143.298 227.257C144.941 228.509 146.559 229.765 148.154 231.024L150.633 227.885ZM140.919 220.475C139.361 219.325 137.782 218.18 136.183 217.038L133.858 220.293C135.441 221.423 137.004 222.557 138.546 223.694L140.919 220.475ZM131.325 213.622C129.685 212.487 128.025 211.355 126.344 210.227L124.115 213.549C125.78 214.666 127.424 215.787 129.048 216.911L131.325 213.622ZM121.24 206.855C119.517 205.734 117.775 204.617 116.011 203.504L113.876 206.886C115.624 207.99 117.351 209.097 119.058 210.207L121.24 206.855ZM110.86 200.3C109.217 199.292 107.556 198.288 105.878 197.286L103.828 200.721C105.493 201.714 107.14 202.711 108.769 203.71L110.86 200.3ZM100.79 194.292C99.077 193.297 97.346 192.305 95.5972 191.317L93.629 194.799C95.3643 195.78 97.0819 196.764 98.7818 197.751L100.79 194.292ZM90.2979 188.361C88.5136 187.379 86.7115 186.401 84.8915 185.425L83.0021 188.951C84.8092 189.919 86.5982 190.891 88.3693 191.866L90.2979 188.361ZM79.3774 182.509C77.6336 181.599 75.8737 180.692 74.0979 179.788L72.283 183.352C74.047 184.25 75.7948 185.151 77.5267 186.055L79.3774 182.509ZM68.8903 177.168C67.1393 176.297 65.3732 175.429 63.5919 174.565L61.8449 178.163C63.6151 179.022 65.3699 179.885 67.1096 180.749L68.8903 177.168ZM58.2023 171.979C56.3906 171.12 54.5635 170.264 52.7211 169.41L51.0401 173.04C52.8717 173.888 54.6879 174.739 56.4886 175.593L58.2023 171.979ZM47.1476 166.86C45.2744 166.012 43.3857 165.168 41.4815 164.326L39.8648 167.985C41.7584 168.822 43.6365 169.662 45.4991 170.504L47.1476 166.86ZM35.8597 161.871C34.0967 161.109 32.3209 160.35 30.532 159.594L28.9742 163.278C30.7538 164.03 32.5202 164.785 34.2737 165.543L35.8597 161.871ZM25.1262 157.332C23.3112 156.581 21.4832 155.832 19.642 155.086L18.1396 158.793C19.9717 159.536 21.7906 160.281 23.5963 161.028L25.1262 157.332ZM14.0788 152.855C12.2113 152.114 10.3306 151.376 8.43656 150.64L6.98806 154.369C8.87323 155.101 10.745 155.836 12.6036 156.573L14.0788 152.855ZM2.71463 148.44C0.794019 147.71 -1.13992 146.982 -3.08724 146.257L-4.48334 150.005C-2.54463 150.727 -0.61937 151.452 1.29251 152.179L2.71463 148.44ZM-8.89853 144.115C-10.7004 143.457 -12.5135 142.802 -14.3379 142.15L-15.6855 145.916C-13.8688 146.566 -12.0634 147.218 -10.2693 147.872L-8.89853 144.115ZM-19.8447 140.198C-21.6916 139.55 -23.5498 138.904 -25.4193 138.26L-26.7216 142.042C-24.8595 142.683 -23.0088 143.327 -21.1695 143.972L-19.8447 140.198ZM-31.0621 136.336C-32.9543 135.696 -34.858 135.06 -36.7731 134.425L-38.0312 138.222C-36.1233 138.854 -34.227 139.489 -32.3421 140.125L-31.0621 136.336ZM-42.5528 132.528C-44.4909 131.899 -46.4405 131.271 -48.4015 130.646L-49.6165 134.457C-47.6625 135.08 -45.7201 135.705 -43.7892 136.333L-42.5528 132.528ZM-54.3193 128.777C-56.2644 128.169 -58.2206 127.563 -60.188 126.96L-61.3613 130.784C-59.4007 131.385 -57.4513 131.989 -55.5131 132.595L-54.3193 128.777ZM-65.7265 125.275C-67.5825 124.716 -69.4482 124.158 -71.3237 123.603L-72.4596 127.438C-70.5902 127.992 -68.7307 128.547 -66.881 129.105L-65.7265 125.275ZM-76.9797 121.942C-78.8749 121.391 -80.7799 120.842 -82.6948 120.294L-83.794 124.14C-81.8852 124.686 -79.9862 125.234 -78.0971 125.783L-76.9797 121.942ZM-88.4691 118.659C-90.4038 118.116 -92.3484 117.574 -94.303 117.035L-95.3664 120.891C-93.4177 121.429 -91.479 121.968 -89.5503 122.51L-88.4691 118.659ZM-100.196 115.425C-102.171 114.89 -104.155 114.357 -106.15 113.826L-107.178 117.692C-105.19 118.221 -103.211 118.752 -101.242 119.285L-100.196 115.425ZM-112.163 112.241C-113.171 111.977 -114.181 111.715 -115.193 111.452L-116.196 115.325C-115.186 115.586 -114.179 115.848 -113.175 116.111L-112.163 112.241Z" fill="#F4F4F4"/>
<path d="M-264.194 427.653C-263.117 427.897 -262.045 427.222 -261.801 426.145C-261.557 425.068 -262.232 423.996 -263.309 423.752L-264.194 427.653ZM-257.508 425.041C-258.587 424.806 -259.653 425.491 -259.888 426.57C-260.122 427.649 -259.438 428.715 -258.359 428.949L-257.508 425.041ZM-252.481 430.202C-251.4 430.427 -250.34 429.733 -250.115 428.652C-249.889 427.571 -250.583 426.511 -251.665 426.286L-252.481 430.202ZM-245.781 427.485C-246.864 427.269 -247.917 427.973 -248.133 429.056C-248.349 430.139 -247.646 431.192 -246.563 431.408L-245.781 427.485ZM-240.606 432.568C-239.52 432.774 -238.474 432.062 -238.267 430.976C-238.061 429.891 -238.773 428.844 -239.859 428.638L-240.606 432.568ZM-233.979 429.729C-235.066 429.532 -236.106 430.254 -236.303 431.341C-236.5 432.428 -235.778 433.468 -234.691 433.665L-233.979 429.729ZM-228.791 434.707C-227.702 434.894 -226.668 434.163 -226.481 433.074C-226.294 431.986 -227.024 430.952 -228.113 430.764L-228.791 434.707ZM-222.216 431.752C-223.306 431.574 -224.334 432.314 -224.511 433.404C-224.689 434.495 -223.949 435.522 -222.859 435.7L-222.216 431.752ZM-216.896 436.644C-215.805 436.812 -214.783 436.063 -214.615 434.972C-214.448 433.88 -215.196 432.859 -216.288 432.691L-216.896 436.644ZM-210.332 433.58C-211.425 433.422 -212.44 434.18 -212.598 435.273C-212.756 436.366 -211.998 437.381 -210.905 437.539L-210.332 433.58ZM-204.946 438.374C-203.851 438.523 -202.844 437.756 -202.695 436.661C-202.547 435.567 -203.314 434.559 -204.408 434.41L-204.946 438.374ZM-198.494 435.186C-199.59 435.047 -200.59 435.823 -200.729 436.919C-200.868 438.015 -200.092 439.015 -198.996 439.154L-198.494 435.186ZM-193.023 439.883C-191.926 440.012 -190.932 439.227 -190.803 438.13C-190.674 437.033 -191.459 436.039 -192.556 435.91L-193.023 439.883ZM-186.598 436.582C-187.696 436.463 -188.683 437.257 -188.802 438.355C-188.92 439.454 -188.126 440.44 -187.028 440.559L-186.598 436.582ZM-181.014 441.182C-179.915 441.29 -178.935 440.488 -178.827 439.388C-178.718 438.289 -179.521 437.31 -180.62 437.201L-181.014 441.182ZM-174.66 437.763C-175.76 437.664 -176.731 438.476 -176.83 439.577C-176.929 440.677 -176.117 441.648 -175.016 441.747L-174.66 437.763ZM-169.029 442.255C-167.928 442.344 -166.963 441.523 -166.875 440.422C-166.787 439.321 -167.608 438.357 -168.709 438.268L-169.029 442.255ZM-162.744 438.719C-163.846 438.641 -164.802 439.471 -164.88 440.572C-164.958 441.674 -164.128 442.631 -163.026 442.709L-162.744 438.719ZM-157.01 443.106C-155.908 443.173 -154.959 442.334 -154.892 441.232C-154.824 440.129 -155.663 439.181 -156.766 439.113L-157.01 443.106ZM-150.777 439.451C-151.88 439.394 -152.82 440.242 -152.877 441.345C-152.934 442.448 -152.086 443.389 -150.983 443.446L-150.777 439.451ZM-144.96 443.727C-143.856 443.773 -142.924 442.916 -142.878 441.812C-142.832 440.708 -143.689 439.776 -144.793 439.73L-144.96 443.727ZM-138.819 439.951C-139.923 439.915 -140.846 440.782 -140.882 441.886C-140.917 442.99 -140.051 443.913 -138.947 443.949L-138.819 439.951ZM-132.926 444.111C-131.822 444.136 -130.907 443.26 -130.882 442.156C-130.858 441.051 -131.734 440.137 -132.838 440.112L-132.926 444.111ZM-126.852 440.214C-127.957 440.201 -128.863 441.085 -128.876 442.19C-128.889 443.294 -128.004 444.2 -126.9 444.214L-126.852 440.214ZM-120.87 444.255C-119.765 444.256 -118.869 443.363 -118.867 442.258C-118.865 441.153 -119.759 440.256 -120.863 440.255L-120.87 444.255ZM-114.875 440.234C-115.979 440.243 -116.867 441.146 -116.857 442.251C-116.848 443.356 -115.945 444.243 -114.84 444.233L-114.875 440.234ZM-108.814 444.149C-107.71 444.128 -106.832 443.216 -106.853 442.111C-106.874 441.007 -107.787 440.129 -108.891 440.15L-108.814 444.149ZM-102.909 440.003C-104.013 440.036 -104.881 440.958 -104.848 442.062C-104.815 443.166 -103.893 444.034 -102.789 444.001L-102.909 440.003ZM-96.7662 443.789C-95.6626 443.744 -94.8043 442.812 -94.8494 441.709C-94.8944 440.605 -95.8256 439.747 -96.9292 439.792L-96.7662 443.789ZM-90.9539 439.515C-92.057 439.572 -92.9048 440.513 -92.8477 441.616C-92.7905 442.719 -91.8499 443.567 -90.7468 443.51L-90.9539 439.515ZM-84.7304 443.164C-83.628 443.095 -82.7907 442.145 -82.8602 441.043C-82.9298 439.94 -83.8798 439.103 -84.9822 439.172L-84.7304 443.164ZM-79.0067 438.761C-80.1083 438.844 -80.9347 439.803 -80.8526 440.905C-80.7705 442.006 -79.811 442.832 -78.7095 442.75L-79.0067 438.761ZM-72.6968 442.267C-71.5964 442.173 -70.7811 441.204 -70.876 440.103C-70.9708 439.003 -71.9398 438.187 -73.0403 438.282L-72.6968 442.267ZM-67.0843 437.734C-68.1836 437.841 -68.9874 438.82 -68.8796 439.919C-68.7718 441.019 -67.7932 441.822 -66.6939 441.714L-67.0843 437.734ZM-60.7023 441.091C-59.6044 440.97 -58.8124 439.982 -58.9334 438.884C-59.0543 437.786 -60.0424 436.994 -61.1404 437.115L-60.7023 441.091ZM-55.2091 436.425C-56.3055 436.559 -57.0853 437.557 -56.951 438.653C-56.8166 439.75 -55.8189 440.529 -54.7226 440.395L-55.2091 436.425ZM-48.7288 439.623C-47.6342 439.475 -46.8668 438.468 -47.0148 437.373C-47.1627 436.278 -48.1701 435.511 -49.2647 435.659L-48.7288 439.623ZM-43.3371 434.819C-44.4297 434.981 -45.1843 435.998 -45.0224 437.091C-44.8606 438.183 -43.8436 438.938 -42.751 438.776L-43.3371 434.819ZM-36.7908 437.854C-35.7003 437.678 -34.9589 436.651 -35.1349 435.561C-35.3108 434.471 -36.3374 433.729 -37.4279 433.905L-36.7908 437.854ZM-31.5386 432.915C-32.6267 433.106 -33.3545 434.142 -33.1643 435.23C-32.974 436.318 -31.9378 437.046 -30.8497 436.856L-31.5386 432.915ZM-24.9294 435.78C-23.8439 435.575 -23.13 434.529 -23.3348 433.444C-23.5396 432.358 -24.5855 431.644 -25.6709 431.849L-24.9294 435.78ZM-19.7905 430.698C-20.8731 430.918 -21.5726 431.973 -21.353 433.056C-21.1334 434.138 -20.0778 434.838 -18.9953 434.618L-19.7905 430.698ZM-13.0821 433.376C-12.0027 433.141 -11.318 432.076 -11.5527 430.997C-11.7873 429.917 -12.8526 429.232 -13.9319 429.467L-13.0821 433.376ZM-8.09986 428.156C-9.17578 428.406 -9.84532 429.481 -9.59533 430.557C-9.34535 431.632 -8.2705 432.302 -7.19459 432.052L-8.09986 428.156ZM-1.33445 430.646C-0.262281 430.38 0.391653 429.296 0.126137 428.224C-0.139378 427.152 -1.22377 426.498 -2.29597 426.763L-1.33445 430.646ZM3.47822 425.288C2.41007 425.569 1.77216 426.663 2.05344 427.732C2.33468 428.8 3.42862 429.438 4.4968 429.156L3.47822 425.288ZM10.3325 427.573C11.3963 427.275 12.0176 426.172 11.7203 425.108C11.4229 424.044 10.3195 423.423 9.25575 423.72L10.3325 427.573ZM15.0065 422.065C13.9474 422.379 13.3431 423.492 13.6568 424.551C13.9704 425.61 15.0833 426.214 16.1424 425.901L15.0065 422.065ZM21.9181 424.141C22.9721 423.811 23.5589 422.689 23.2287 421.635C22.8985 420.581 21.7764 419.994 20.7223 420.324L21.9181 424.141ZM26.4015 418.495C25.3528 418.842 24.784 419.974 25.1309 421.022C25.4779 422.071 26.6092 422.64 27.6579 422.293L26.4015 418.495ZM33.3602 420.355C34.4032 419.991 34.9536 418.851 34.5897 417.808C34.2258 416.765 33.0854 416.214 32.0425 416.578L33.3602 420.355ZM37.6715 414.562C36.6348 414.943 36.1034 416.092 36.4845 417.129C36.8657 418.166 38.0151 418.697 39.0518 418.316L37.6715 414.562ZM44.7093 416.182C45.7395 415.783 46.2514 414.625 45.8528 413.595C45.4542 412.565 44.296 412.053 43.2658 412.451L44.7093 416.182ZM48.8165 410.249C47.7934 410.665 47.3014 411.832 47.7177 412.855C48.1339 413.878 49.3008 414.37 50.3239 413.954L48.8165 410.249ZM55.8939 411.631C56.9096 411.197 57.3811 410.021 56.9469 409.006C56.5129 407.99 55.3376 407.518 54.3219 407.953L55.8939 411.631ZM59.7804 405.562C58.7726 406.014 58.3221 407.198 58.7742 408.206C59.2263 409.213 60.4098 409.664 61.4176 409.212L59.7804 405.562ZM66.909 406.688C67.9084 406.218 68.3374 405.027 67.8671 404.027C67.3968 403.028 66.2053 402.599 65.2058 403.069L66.909 406.688ZM70.585 400.477C69.5944 400.966 69.1875 402.165 69.6762 403.156C70.1648 404.146 71.364 404.553 72.3546 404.064L70.585 400.477ZM77.7485 401.341C78.7298 400.833 79.1141 399.627 78.607 398.646C78.0999 397.664 76.8933 397.28 75.912 397.787L77.7485 401.341ZM81.1852 394.998C80.2138 395.524 79.8524 396.738 80.3781 397.709C80.9039 398.68 82.1176 399.042 83.089 398.516L81.1852 394.998ZM88.3744 395.59C89.3355 395.045 89.6733 393.825 89.1289 392.864C88.5845 391.903 87.3641 391.565 86.403 392.109L88.3744 395.59ZM91.5599 389.121C90.6096 389.684 90.2958 390.911 90.8589 391.861C91.422 392.812 92.6488 393.125 93.5991 392.562L91.5599 389.121ZM98.7643 389.432C99.7032 388.85 99.9927 387.617 99.4108 386.679C98.829 385.74 97.5962 385.45 96.6573 386.032L98.7643 389.432ZM101.694 382.84C100.767 383.441 100.503 384.679 101.103 385.606C101.704 386.533 102.942 386.798 103.869 386.197L101.694 382.84ZM108.913 382.856C109.827 382.237 110.067 380.993 109.447 380.079C108.828 379.164 107.584 378.925 106.67 379.544L108.913 382.856ZM111.581 376.143C110.68 376.781 110.466 378.03 111.104 378.931C111.743 379.833 112.991 380.046 113.892 379.408L111.581 376.143ZM118.778 375.874C119.666 375.217 119.853 373.965 119.197 373.077C118.54 372.189 117.288 372.001 116.4 372.658L118.778 375.874ZM121.144 369.072C120.27 369.747 120.109 371.003 120.784 371.878C121.459 372.752 122.715 372.913 123.589 372.238L121.144 369.072ZM128.333 368.494C129.193 367.8 129.328 366.541 128.634 365.681C127.941 364.822 126.682 364.687 125.822 365.38L128.333 368.494ZM130.431 361.581C129.586 362.293 129.478 363.554 130.19 364.399C130.902 365.244 132.163 365.352 133.008 364.64L130.431 361.581ZM137.612 360.676C138.441 359.947 138.522 358.683 137.792 357.854C137.062 357.024 135.798 356.944 134.969 357.673L137.612 360.676ZM139.382 353.706C138.569 354.453 138.515 355.718 139.262 356.531C140.01 357.345 141.275 357.399 142.088 356.651L139.382 353.706ZM146.476 352.533C147.273 351.768 147.299 350.502 146.534 349.705C145.77 348.908 144.504 348.881 143.707 349.646L146.476 352.533ZM147.958 345.478C147.178 346.26 147.179 347.526 147.961 348.307C148.742 349.087 150.009 349.086 150.789 348.304L147.958 345.478ZM155.027 343.966C155.791 343.167 155.762 341.901 154.964 341.138C154.165 340.375 152.899 340.403 152.136 341.202L155.027 343.966ZM156.238 336.815C155.492 337.63 155.548 338.896 156.363 339.641C157.178 340.387 158.443 340.33 159.189 339.515L156.238 336.815ZM163.205 335.029C163.933 334.198 163.849 332.935 163.019 332.207C162.188 331.479 160.924 331.563 160.196 332.393L163.205 335.029ZM164.043 327.906C163.334 328.752 163.444 330.013 164.29 330.723C165.137 331.433 166.398 331.322 167.108 330.476L164.043 327.906ZM170.933 325.815C171.625 324.953 171.487 323.695 170.626 323.003C169.765 322.312 168.506 322.449 167.814 323.311L170.933 325.815ZM171.507 318.608C170.835 319.484 170.999 320.739 171.875 321.412C172.751 322.085 174.007 321.92 174.68 321.044L171.507 318.608ZM178.346 316.164C178.999 315.273 178.808 314.022 177.918 313.368C177.027 312.714 175.776 312.905 175.122 313.796L178.346 316.164ZM178.606 308.945C177.971 309.849 178.189 311.096 179.093 311.731C179.997 312.366 181.244 312.148 181.879 311.244L178.606 308.945ZM185.257 306.327C185.873 305.41 185.629 304.168 184.712 303.552C183.795 302.936 182.552 303.18 181.936 304.097L185.257 306.327ZM185.19 299.145C184.593 300.074 184.862 301.311 185.792 301.908C186.721 302.505 187.958 302.236 188.555 301.306L185.19 299.145ZM191.774 296.18C192.351 295.239 192.057 294.007 191.115 293.429C190.174 292.852 188.942 293.147 188.364 294.088L191.774 296.18ZM191.459 288.926C190.901 289.879 191.221 291.104 192.174 291.663C193.127 292.221 194.353 291.901 194.911 290.948L191.459 288.926ZM197.965 285.609C198.504 284.644 198.159 283.426 197.195 282.887C196.23 282.349 195.012 282.694 194.473 283.658L197.965 285.609ZM197.278 278.52C196.758 279.495 197.127 280.706 198.101 281.226C199.076 281.746 200.287 281.377 200.807 280.403L197.278 278.52ZM203.565 275.111C204.066 274.127 203.674 272.923 202.689 272.422C201.705 271.921 200.501 272.312 200 273.297L203.565 275.111ZM202.644 267.975C202.162 268.968 202.577 270.165 203.571 270.647C204.565 271.129 205.761 270.714 206.243 269.72L202.644 267.975ZM208.842 264.23C209.305 263.227 208.868 262.038 207.865 261.575C206.862 261.112 205.674 261.55 205.211 262.553L208.842 264.23ZM207.697 257.03C207.253 258.042 207.713 259.222 208.725 259.666C209.736 260.11 210.916 259.65 211.36 258.639L207.697 257.03ZM213.764 253.023C214.189 252.003 213.708 250.832 212.688 250.407C211.669 249.982 210.498 250.463 210.072 251.483L213.764 253.023ZM212.271 246.079C211.864 247.105 212.366 248.268 213.393 248.675C214.419 249.083 215.582 248.581 215.989 247.554L212.271 246.079ZM218.14 241.994C218.529 240.96 218.007 239.806 216.973 239.417C215.94 239.027 214.786 239.55 214.397 240.583L218.14 241.994ZM216.447 234.996C216.076 236.036 216.618 237.18 217.658 237.552C218.698 237.924 219.842 237.382 220.214 236.342L216.447 234.996ZM222.211 230.597C222.565 229.551 222.004 228.416 220.957 228.062C219.911 227.708 218.776 228.269 218.422 229.316L222.211 230.597ZM220.32 223.542C219.984 224.595 220.565 225.72 221.617 226.056C222.669 226.392 223.794 225.812 224.131 224.76L220.32 223.542ZM225.949 218.903C226.267 217.846 225.669 216.73 224.611 216.411C223.553 216.092 222.438 216.691 222.119 217.749L225.949 218.903ZM223.754 212.168C223.452 213.23 224.068 214.337 225.13 214.639C226.192 214.941 227.299 214.325 227.601 213.263L223.754 212.168ZM229.183 207.54C229.469 206.473 228.836 205.376 227.769 205.09C226.703 204.804 225.606 205.437 225.32 206.504L229.183 207.54ZM226.815 200.756C226.545 201.827 227.194 202.914 228.265 203.184C229.336 203.454 230.423 202.804 230.693 201.733L226.815 200.756ZM232.131 195.843C232.385 194.768 231.72 193.691 230.645 193.437C229.57 193.183 228.492 193.848 228.238 194.923L232.131 195.843ZM229.59 189.006C229.352 190.085 230.033 191.152 231.112 191.39C232.191 191.628 233.258 190.947 233.496 189.868L229.59 189.006ZM234.787 183.809C235.009 182.727 234.312 181.669 233.23 181.447C232.148 181.225 231.091 181.922 230.869 183.004L234.787 183.809ZM232.014 177.231C231.806 178.316 232.517 179.364 233.602 179.571C234.687 179.779 235.735 179.068 235.942 177.983L232.014 177.231ZM237.01 172.191C237.203 171.103 236.478 170.065 235.391 169.872C234.303 169.679 233.265 170.404 233.072 171.491L237.01 172.191ZM234.065 165.677C233.886 166.767 234.625 167.795 235.715 167.974C236.805 168.153 237.834 167.414 238.012 166.324L234.065 165.677ZM238.948 160.383C239.113 159.291 238.361 158.272 237.269 158.107C236.177 157.942 235.158 158.694 234.993 159.786L238.948 160.383ZM235.854 153.82C235.703 154.914 236.468 155.923 237.562 156.074C238.656 156.225 239.666 155.46 239.816 154.366L235.854 153.82ZM240.617 148.274C240.754 147.178 239.977 146.178 238.881 146.041C237.785 145.904 236.785 146.681 236.648 147.777L240.617 148.274ZM237.375 141.658C237.251 142.756 238.041 143.746 239.139 143.869C240.236 143.992 241.226 143.203 241.35 142.105L237.375 141.658ZM241.975 136.236C242.086 135.137 241.285 134.156 240.186 134.045C239.087 133.934 238.106 134.735 237.996 135.834L241.975 136.236ZM238.548 130.03C238.449 131.13 239.261 132.101 240.362 132.2C241.462 132.298 242.433 131.486 242.532 130.386L238.548 130.03ZM243.028 124.471C243.115 123.369 242.292 122.407 241.191 122.32C240.089 122.234 239.127 123.057 239.041 124.158L243.028 124.471ZM239.473 118.22C239.399 119.322 240.232 120.275 241.334 120.349C242.436 120.424 243.39 119.591 243.464 118.488L239.473 118.22ZM243.839 112.439C243.901 111.337 243.057 110.392 241.955 110.33C240.852 110.267 239.907 111.111 239.845 112.214L243.839 112.439ZM240.156 106.14C240.105 107.243 240.959 108.179 242.062 108.23C243.165 108.28 244.101 107.427 244.152 106.323L240.156 106.14ZM244.402 100.14C244.441 99.0359 243.578 98.1094 242.474 98.0704C241.37 98.0314 240.444 98.8947 240.405 99.9985L244.402 100.14ZM240.588 93.9454C240.56 95.0496 241.433 95.9673 242.537 95.9951C243.641 96.023 244.559 95.1504 244.587 94.0462L240.588 93.9454ZM244.706 88.214C244.724 87.1096 243.842 86.2002 242.738 86.1828C241.634 86.1653 240.724 87.0466 240.707 88.151L244.706 88.214ZM240.772 82.2978C240.764 83.4024 241.654 84.3036 242.759 84.3106C243.863 84.3177 244.764 83.4281 244.771 82.3235L240.772 82.2978ZM244.782 76.3746C244.779 75.27 243.881 74.3771 242.777 74.3802C241.672 74.3833 240.779 75.2812 240.782 76.3857L244.782 76.3746ZM240.738 70.4144C240.751 71.5189 241.657 72.4036 242.762 72.3904C243.866 72.3773 244.751 71.4713 244.738 70.3668L240.738 70.4144ZM244.638 64.3C244.615 63.1958 243.701 62.3192 242.597 62.3423C241.493 62.3654 240.616 63.2793 240.639 64.3836L244.638 64.3ZM240.485 58.2932C240.518 59.3973 241.439 60.2656 242.543 60.2327C243.647 60.1998 244.516 59.2782 244.483 58.1741L240.485 58.2932ZM244.272 51.9886C244.229 50.8849 243.3 50.0246 242.196 50.0671C241.092 50.1096 240.232 51.0389 240.275 52.1426L244.272 51.9886ZM240.013 46.0416C240.065 47.145 241.002 47.9973 242.105 47.9454C243.208 47.8935 244.061 46.957 244.009 45.8536L240.013 46.0416ZM243.712 40.043C243.652 38.9401 242.709 38.0951 241.606 38.1557C240.503 38.2163 239.658 39.1595 239.719 40.2625L243.712 40.043ZM239.375 34.4319C239.444 35.5343 240.394 36.3719 241.497 36.3026C242.599 36.2335 243.437 35.2837 243.367 34.1813L239.375 34.4319ZM242.973 28.2682C242.896 27.1664 241.94 26.3361 240.838 26.4137C239.736 26.4914 238.906 27.4476 238.983 28.5494L242.973 28.2682ZM238.542 22.6152C238.628 23.7164 239.591 24.5393 240.692 24.4533C241.793 24.3673 242.616 23.4049 242.53 22.3037L238.542 22.6152ZM242.037 16.2873C241.943 15.1867 240.974 14.371 239.874 14.4653C238.773 14.5596 237.958 15.5282 238.052 16.6287L242.037 16.2873ZM237.512 10.59C237.614 11.6899 238.589 12.4984 239.689 12.3959C240.789 12.2935 241.597 11.3189 241.495 10.2191L237.512 10.59ZM240.902 4.0987C240.791 2.99963 239.811 2.19832 238.712 2.3088C237.613 2.41928 236.811 3.39982 236.922 4.49887L240.902 4.0987ZM236.282 -1.64493C236.4 -0.54671 237.386 0.247534 238.485 0.129031C239.583 0.0105889 240.377 -0.975692 240.259 -2.07391L236.282 -1.64493ZM239.589 -8.08486C239.463 -9.18221 238.471 -9.96968 237.374 -9.8436C236.277 -9.71757 235.489 -8.72587 235.615 -7.62851L239.589 -8.08486ZM234.935 -13.3848C235.068 -12.2883 236.065 -11.5073 237.162 -11.6405C238.258 -11.7737 239.039 -12.7706 238.906 -13.8671L234.935 -13.3848ZM238.179 -19.6941C238.039 -20.7897 237.037 -21.5642 235.941 -21.424C234.846 -21.2837 234.071 -20.2819 234.211 -19.1863L238.179 -19.6941ZM233.444 -25.0331C233.591 -23.9384 234.598 -23.1702 235.693 -23.3175C236.787 -23.4647 237.556 -24.4715 237.408 -25.5662L233.444 -25.0331ZM236.594 -31.4834C236.44 -32.5772 235.428 -33.339 234.334 -33.1849C233.24 -33.0308 232.479 -32.0192 232.633 -30.9254L236.594 -31.4834ZM231.777 -36.8634C231.938 -35.7706 232.955 -35.0151 234.047 -35.176C235.14 -35.337 235.896 -36.3533 235.735 -37.446L231.777 -36.8634ZM234.831 -43.4542C234.663 -44.5459 233.642 -45.2951 232.551 -45.1275C231.459 -44.9598 230.71 -43.9389 230.877 -42.8471L234.831 -43.4542ZM229.933 -48.8766C230.107 -47.7859 231.132 -47.043 232.223 -47.2172C233.314 -47.3915 234.057 -48.417 233.883 -49.5077L229.933 -48.8766ZM232.889 -55.6072C232.708 -56.6968 231.678 -57.4336 230.589 -57.2528C229.499 -57.0719 228.762 -56.042 228.943 -54.9524L232.889 -55.6072ZM227.908 -61.0742C228.096 -59.9857 229.13 -59.255 230.219 -59.4423C231.307 -59.6297 232.038 -60.664 231.85 -61.7526L227.908 -61.0742ZM230.844 -67.5068C230.651 -68.5943 229.612 -69.3193 228.525 -69.126C227.437 -68.9328 226.713 -67.8945 226.906 -66.807L230.844 -67.5068ZM225.872 -72.532C226.072 -71.4455 227.114 -70.7262 228.2 -70.9253C229.287 -71.1244 230.006 -72.1666 229.807 -73.253L225.872 -72.532ZM228.731 -79.0387C228.526 -80.1241 227.48 -80.8379 226.394 -80.633C225.309 -80.4282 224.595 -79.3822 224.8 -78.2968L228.731 -79.0387ZM223.689 -84.1013C223.899 -83.017 224.949 -82.3087 226.033 -82.5193C227.118 -82.7299 227.826 -83.7796 227.615 -84.8639L223.689 -84.1013ZM226.46 -90.7286C226.244 -91.8118 225.191 -92.5146 224.108 -92.2984C223.024 -92.0822 222.322 -91.0288 222.538 -89.9456L226.46 -90.7286ZM221.347 -95.83C221.569 -94.7479 222.626 -94.0505 223.708 -94.2723C224.79 -94.4941 225.488 -95.5511 225.266 -96.6332L221.347 -95.83ZM224.032 -102.578C223.804 -103.659 222.744 -104.351 221.663 -104.123C220.582 -103.896 219.89 -102.835 220.117 -101.754L224.032 -102.578ZM218.847 -107.719C219.08 -106.639 220.144 -105.953 221.224 -106.185C222.303 -106.418 222.99 -107.482 222.757 -108.562L218.847 -107.719ZM221.443 -114.586C221.205 -115.665 220.137 -116.346 219.059 -116.108C217.98 -115.87 217.299 -114.803 217.537 -113.724L221.443 -114.586ZM216.186 -119.769C216.43 -118.692 217.501 -118.016 218.578 -118.259C219.656 -118.503 220.332 -119.574 220.088 -120.651L216.186 -119.769ZM218.754 -126.492C218.505 -127.568 217.431 -128.239 216.355 -127.99C215.279 -127.742 214.608 -126.668 214.856 -125.592L218.754 -126.492ZM213.538 -131.243C213.791 -130.168 214.868 -129.501 215.943 -129.755C217.019 -130.008 217.685 -131.085 217.431 -132.16L213.538 -131.243ZM216.074 -137.863C215.816 -138.937 214.736 -139.599 213.662 -139.341C212.588 -139.082 211.927 -138.003 212.185 -136.929L216.074 -137.863ZM210.797 -142.649C211.06 -141.576 212.143 -140.92 213.216 -141.183C214.288 -141.445 214.945 -142.528 214.682 -143.601L210.797 -142.649ZM213.255 -149.373C212.988 -150.445 211.902 -151.097 210.83 -150.829C209.759 -150.562 209.107 -149.476 209.374 -148.405L213.255 -149.373ZM207.916 -154.195C208.188 -153.125 209.276 -152.477 210.347 -152.749C211.417 -153.021 212.065 -154.11 211.793 -155.18L207.916 -154.195ZM210.295 -161.022C210.018 -162.092 208.927 -162.734 207.857 -162.458C206.788 -162.181 206.145 -161.09 206.422 -160.021L210.295 -161.022ZM204.893 -165.881C205.174 -164.813 206.268 -164.175 207.336 -164.456C208.404 -164.737 209.042 -165.831 208.761 -166.899L204.893 -165.881ZM207.192 -172.812C206.906 -173.879 205.81 -174.512 204.743 -174.226C203.676 -173.941 203.042 -172.844 203.328 -171.777L207.192 -172.812ZM201.727 -177.709C202.017 -176.643 203.116 -176.014 204.182 -176.304C205.248 -176.594 205.877 -177.693 205.587 -178.759L201.727 -177.709ZM203.946 -184.741C203.651 -185.806 202.55 -186.43 201.485 -186.136C200.42 -185.842 199.796 -184.74 200.09 -183.675L203.946 -184.741ZM198.463 -189.516C198.761 -188.453 199.866 -187.833 200.929 -188.131C201.992 -188.43 202.612 -189.534 202.314 -190.598L198.463 -189.516ZM200.732 -196.19C200.43 -197.252 199.323 -197.868 198.261 -197.566C197.199 -197.263 196.583 -196.157 196.885 -195.094L200.732 -196.19ZM195.277 -200.703C195.583 -199.642 196.692 -199.03 197.753 -199.336C198.814 -199.643 199.426 -200.752 199.12 -201.813L195.277 -200.703ZM197.476 -207.466C197.165 -208.526 196.054 -209.134 194.994 -208.824C193.934 -208.513 193.327 -207.402 193.637 -206.342L197.476 -207.466ZM191.966 -212.012C192.28 -210.953 193.393 -210.349 194.452 -210.663C195.511 -210.978 196.115 -212.091 195.801 -213.15L191.966 -212.012ZM194.094 -218.864C193.776 -219.922 192.66 -220.521 191.603 -220.203C190.545 -219.885 189.945 -218.77 190.263 -217.712L194.094 -218.864ZM188.529 -223.443C188.851 -222.387 189.968 -221.791 191.025 -222.113C192.082 -222.435 192.677 -223.552 192.356 -224.609L188.529 -223.443ZM190.586 -230.384C190.26 -231.44 189.14 -232.032 188.085 -231.706C187.029 -231.381 186.438 -230.261 186.763 -229.205L190.586 -230.384ZM184.965 -234.998C185.295 -233.944 186.416 -233.356 187.471 -233.685C188.525 -234.015 189.113 -235.136 188.784 -236.191L184.965 -234.998ZM186.95 -242.028C186.617 -243.081 185.493 -243.665 184.44 -243.332C183.387 -242.999 182.803 -241.876 183.136 -240.822L186.95 -242.028ZM181.274 -246.677C181.611 -245.625 182.736 -245.045 183.788 -245.382C184.841 -245.718 185.421 -246.844 185.084 -247.896L181.274 -246.677ZM183.186 -253.795C182.846 -254.846 181.718 -255.422 180.668 -255.082C179.617 -254.742 179.04 -253.614 179.38 -252.563L183.186 -253.795ZM177.487 -258.38C177.831 -257.331 178.96 -256.758 180.01 -257.102C181.06 -257.445 181.632 -258.575 181.289 -259.625L177.487 -258.38ZM179.473 -265.142C179.126 -266.191 177.995 -266.76 176.946 -266.413C175.898 -266.066 175.329 -264.935 175.676 -263.886L179.473 -265.142ZM173.836 -269.418C174.186 -268.371 175.319 -267.805 176.367 -268.155C177.415 -268.505 177.98 -269.638 177.63 -270.686L173.836 -269.418ZM175.759 -276.257C175.406 -277.304 174.271 -277.866 173.224 -277.512C172.178 -277.159 171.616 -276.024 171.969 -274.978L175.759 -276.257ZM170.074 -280.564C170.43 -279.518 171.567 -278.96 172.612 -279.316C173.658 -279.673 174.216 -280.809 173.86 -281.855L170.074 -280.564ZM171.932 -287.479C171.573 -288.524 170.434 -289.079 169.39 -288.719C168.346 -288.36 167.79 -287.221 168.15 -286.177L171.932 -287.479ZM166.198 -291.817C166.561 -290.774 167.701 -290.222 168.744 -290.585C169.788 -290.948 170.339 -292.088 169.976 -293.131L166.198 -291.817ZM167.993 -298.81C167.627 -299.852 166.485 -300.4 165.443 -300.034C164.401 -299.668 163.852 -298.527 164.218 -297.485L167.993 -298.81ZM162.21 -303.18C162.579 -302.138 163.722 -301.593 164.763 -301.962C165.804 -302.331 166.349 -303.474 165.98 -304.516L162.21 -303.18ZM163.939 -310.248C163.567 -311.288 162.423 -311.83 161.382 -311.458C160.342 -311.086 159.801 -309.941 160.173 -308.901L163.939 -310.248ZM158.107 -314.651C158.482 -313.612 159.628 -313.073 160.667 -313.448C161.706 -313.823 162.245 -314.97 161.87 -316.009L158.107 -314.651ZM159.771 -321.796C159.393 -322.834 158.246 -323.369 157.208 -322.991C156.17 -322.613 155.635 -321.465 156.013 -320.427L159.771 -321.796ZM153.89 -326.231C154.271 -325.194 155.42 -324.662 156.457 -325.043C157.494 -325.424 158.025 -326.574 157.644 -327.61L153.89 -326.231ZM155.509 -333.397C155.125 -334.433 153.974 -334.961 152.939 -334.577C151.903 -334.194 151.375 -333.043 151.758 -332.007L155.509 -333.397ZM149.737 -337.44C150.123 -336.406 151.275 -335.88 152.31 -336.267C153.345 -336.653 153.87 -337.805 153.484 -338.84L149.737 -337.44ZM151.434 -344.307C151.044 -345.34 149.891 -345.863 148.857 -345.474C147.823 -345.084 147.301 -343.931 147.69 -342.897L151.434 -344.307ZM145.618 -348.378C146.01 -347.345 147.165 -346.826 148.198 -347.218C149.231 -347.609 149.75 -348.764 149.358 -349.797L145.618 -348.378ZM147.258 -355.311C146.863 -356.343 145.707 -356.859 144.675 -356.465C143.644 -356.07 143.127 -354.914 143.522 -353.882L147.258 -355.311ZM141.399 -359.411C141.797 -358.38 142.954 -357.866 143.985 -358.263C145.015 -358.661 145.529 -359.818 145.132 -360.849L141.399 -359.411ZM142.981 -366.41C142.581 -367.44 141.422 -367.951 140.393 -367.551C139.363 -367.151 138.852 -365.993 139.252 -364.963L142.981 -366.41ZM137.079 -370.539C137.482 -369.51 138.642 -369.003 139.67 -369.405C140.699 -369.807 141.207 -370.967 140.805 -371.996L137.079 -370.539ZM138.603 -377.605C138.198 -378.633 137.036 -379.138 136.009 -378.733C134.981 -378.328 134.476 -377.167 134.881 -376.139L138.603 -377.605ZM132.657 -381.763C133.065 -380.737 134.227 -380.235 135.254 -380.642C136.281 -381.05 136.783 -382.212 136.375 -383.239L132.657 -381.763ZM134.122 -388.896C133.712 -389.922 132.549 -390.421 131.523 -390.011C130.497 -389.601 129.998 -388.437 130.408 -387.412L134.122 -388.896ZM128.133 -393.084C128.545 -392.059 129.71 -391.563 130.735 -391.975C131.76 -392.388 132.256 -393.553 131.844 -394.578L128.133 -393.084ZM129.54 -400.283C129.125 -401.307 127.958 -401.8 126.935 -401.385C125.911 -400.971 125.417 -399.804 125.832 -398.781L129.54 -400.283ZM123.506 -404.501C123.923 -403.479 125.091 -402.988 126.113 -403.405C127.136 -403.823 127.627 -404.99 127.209 -406.013L123.506 -404.501ZM124.855 -411.763C124.435 -412.784 123.267 -413.272 122.245 -412.853C121.223 -412.433 120.735 -411.264 121.155 -410.243L124.855 -411.763ZM118.946 -415.604C119.368 -414.583 120.537 -414.097 121.558 -414.519C122.579 -414.941 123.064 -416.111 122.642 -417.132L118.946 -415.604ZM120.407 -422.522C119.982 -423.542 118.812 -424.025 117.792 -423.6C116.772 -423.176 116.289 -422.005 116.714 -420.986L120.407 -422.522ZM114.459 -426.389C114.885 -425.37 116.057 -424.89 117.076 -425.316C118.095 -425.743 118.575 -426.914 118.149 -427.933L114.459 -426.389ZM115.868 -433.365C115.44 -434.383 114.267 -434.861 113.249 -434.432C112.231 -434.004 111.753 -432.831 112.182 -431.813L115.868 -433.365ZM109.882 -437.258C110.313 -436.241 111.487 -435.766 112.504 -436.197C113.521 -436.628 113.996 -437.802 113.565 -438.819L109.882 -437.258ZM111.239 -444.293C110.806 -445.309 109.632 -445.782 108.615 -445.349C107.599 -444.916 107.127 -443.741 107.56 -442.725L111.239 -444.293ZM105.214 -448.213C105.649 -447.197 106.825 -446.727 107.84 -447.162C108.856 -447.597 109.326 -448.773 108.891 -449.789L105.214 -448.213ZM106.519 -455.305C106.082 -456.319 104.905 -456.787 103.891 -456.35C102.877 -455.913 102.409 -454.736 102.846 -453.722L106.519 -455.305ZM100.455 -459.252C100.894 -458.239 102.072 -457.773 103.086 -458.213C104.099 -458.652 104.564 -459.83 104.125 -460.843L100.455 -459.252ZM101.708 -466.402C101.266 -467.415 100.087 -467.878 99.0749 -467.436C98.0624 -466.995 97.5995 -465.816 98.041 -464.803L101.708 -466.402ZM95.6039 -470.376C96.0476 -469.365 97.2272 -468.904 98.2388 -469.348C99.2504 -469.792 99.7108 -470.971 99.2672 -471.983L95.6039 -470.376ZM96.8038 -477.585C96.3581 -478.595 95.1775 -479.053 94.1669 -478.608C93.1562 -478.162 92.6982 -476.981 93.1439 -475.971L96.8038 -477.585ZM90.6606 -481.587C91.1083 -480.577 92.2899 -480.121 93.2996 -480.569C94.3094 -481.017 94.765 -482.198 94.3172 -483.208L90.6606 -481.587ZM91.8076 -488.852C91.3578 -489.861 90.1753 -490.315 89.1665 -489.865C88.1576 -489.415 87.7044 -488.232 88.1542 -487.224L91.8076 -488.852ZM85.6244 -492.882C86.0763 -491.875 87.2596 -491.424 88.2676 -491.875C89.2755 -492.327 89.7263 -493.511 89.2745 -494.519L85.6244 -492.882ZM86.8622 -499.887C86.4085 -500.894 85.2243 -501.342 84.2173 -500.889C83.2101 -500.435 82.7615 -499.251 83.2153 -498.244L86.8622 -499.887ZM80.8181 -503.551C81.2736 -502.545 82.4587 -502.099 83.4649 -502.554C84.4712 -503.01 84.9176 -504.195 84.462 -505.201L80.8181 -503.551ZM82.0413 -510.535C81.5839 -511.54 80.3981 -511.984 79.3927 -511.527C78.3873 -511.069 77.943 -509.883 78.4005 -508.878L82.0413 -510.535ZM75.9625 -514.223C76.4218 -513.219 77.6085 -512.777 78.613 -513.236C79.6176 -513.695 80.0596 -514.882 79.6004 -515.887L75.9625 -514.223ZM77.139 -521.257C76.6779 -522.261 75.4904 -522.701 74.4867 -522.24C73.483 -521.779 73.0431 -520.591 73.5042 -519.588L77.139 -521.257ZM71.0254 -524.971C71.4883 -523.968 72.6766 -523.53 73.6795 -523.993C74.6824 -524.456 75.1201 -525.644 74.6572 -526.647L71.0254 -524.971ZM72.1548 -532.055C71.6901 -533.057 70.501 -533.493 69.499 -533.028C68.4969 -532.564 68.0614 -531.375 68.5261 -530.373L72.1548 -532.055ZM66.0062 -535.793C66.4727 -534.792 67.6625 -534.359 68.6637 -534.825C69.6649 -535.292 70.0984 -536.482 69.6319 -537.483L66.0062 -535.793ZM67.0884 -542.929C66.6201 -543.929 65.4295 -544.361 64.4291 -543.892C63.4287 -543.424 62.9974 -542.233 63.4657 -541.233L67.0884 -542.929ZM60.9045 -546.692C61.3746 -545.692 62.5659 -545.263 63.5655 -545.733C64.565 -546.203 64.9943 -547.394 64.5242 -548.394L60.9045 -546.692ZM61.9395 -553.878C61.4677 -554.876 60.2755 -555.304 59.2768 -554.832C58.2781 -554.36 57.8509 -553.168 58.3228 -552.169L61.9395 -553.878ZM55.7202 -557.666C56.1937 -556.668 57.3866 -556.243 58.3845 -556.716C59.3824 -557.19 59.8074 -558.383 59.3339 -559.381L55.7202 -557.666ZM56.7075 -564.903C56.2322 -565.9 55.0386 -566.323 54.0415 -565.847C53.0445 -565.372 52.6215 -564.178 53.0968 -563.181L56.7075 -564.903ZM50.4525 -568.716C50.9295 -567.72 52.1239 -567.299 53.1201 -567.776C54.1164 -568.253 54.5373 -569.447 54.0603 -570.444L50.4525 -568.716ZM51.3922 -576.003C50.9134 -576.999 49.7184 -577.418 48.7229 -576.939C47.7275 -576.46 47.3087 -575.265 47.7874 -574.27L51.3922 -576.003ZM45.1014 -579.843C45.5819 -578.848 46.7776 -578.431 47.7722 -578.912C48.7668 -579.392 49.1837 -580.588 48.7032 -581.582L45.1014 -579.843ZM-267.095 426.988C-266.13 427.211 -265.163 427.433 -264.194 427.653L-263.309 423.752C-264.272 423.533 -265.234 423.313 -266.193 423.091L-267.095 426.988ZM-258.359 428.949C-256.406 429.374 -254.447 429.792 -252.481 430.202L-251.665 426.286C-253.619 425.878 -255.567 425.463 -257.508 425.041L-258.359 428.949ZM-246.563 431.408C-244.583 431.803 -242.598 432.189 -240.606 432.568L-239.859 428.638C-241.839 428.262 -243.813 427.877 -245.781 427.485L-246.563 431.408ZM-234.691 433.665C-232.73 434.02 -230.763 434.367 -228.791 434.707L-228.113 430.764C-230.074 430.427 -232.029 430.082 -233.979 429.729L-234.691 433.665ZM-222.859 435.7C-220.876 436.023 -218.889 436.338 -216.896 436.644L-216.288 432.691C-218.269 432.386 -220.245 432.073 -222.216 431.752L-222.859 435.7ZM-210.905 437.539C-208.923 437.826 -206.937 438.104 -204.946 438.374L-204.408 434.41C-206.387 434.142 -208.362 433.865 -210.332 433.58L-210.905 437.539ZM-198.996 439.154C-197.009 439.406 -195.018 439.649 -193.023 439.883L-192.556 435.91C-194.539 435.677 -196.518 435.436 -198.494 435.186L-198.996 439.154ZM-187.028 440.559C-185.027 440.776 -183.022 440.983 -181.014 441.182L-180.62 437.201C-182.616 437.004 -184.609 436.797 -186.598 436.582L-187.028 440.559ZM-175.016 441.747C-173.023 441.926 -171.027 442.095 -169.029 442.255L-168.709 438.268C-170.695 438.109 -172.679 437.94 -174.66 437.763L-175.016 441.747ZM-163.026 442.709C-161.023 442.85 -159.018 442.983 -157.01 443.106L-156.766 439.113C-158.76 438.991 -160.753 438.859 -162.744 438.719L-163.026 442.709ZM-150.983 443.446C-148.977 443.549 -146.969 443.643 -144.96 443.727L-144.793 439.73C-146.789 439.647 -148.784 439.554 -150.777 439.451L-150.983 443.446ZM-138.947 443.949C-136.941 444.013 -134.934 444.067 -132.926 444.111L-132.838 440.112C-134.832 440.068 -136.826 440.014 -138.819 439.951L-138.947 443.949ZM-126.9 444.214C-124.891 444.237 -122.881 444.251 -120.87 444.255L-120.863 440.255C-122.86 440.251 -124.856 440.238 -126.852 440.214L-126.9 444.214ZM-114.84 444.233C-112.832 444.216 -110.823 444.188 -108.814 444.149L-108.891 440.15C-110.886 440.188 -112.88 440.216 -114.875 440.234L-114.84 444.233ZM-102.789 444.001C-100.781 443.941 -98.7734 443.87 -96.7662 443.789L-96.9292 439.792C-98.9218 439.873 -100.915 439.944 -102.909 440.003L-102.789 444.001ZM-90.7468 443.51C-88.7404 443.406 -86.7349 443.291 -84.7304 443.164L-84.9822 439.172C-86.9716 439.298 -88.9622 439.412 -90.9539 439.515L-90.7468 443.51ZM-78.7095 442.75C-76.7038 442.601 -74.6995 442.44 -72.6968 442.267L-73.0403 438.282C-75.0275 438.453 -77.0163 438.613 -79.0067 438.761L-78.7095 442.75ZM-66.6939 441.714C-64.6947 441.518 -62.6974 441.311 -60.7023 441.091L-61.1404 437.115C-63.1195 437.333 -65.1009 437.539 -67.0843 437.734L-66.6939 441.714ZM-54.7226 440.395C-52.7221 440.15 -50.7241 439.893 -48.7288 439.623L-49.2647 435.659C-51.2434 435.926 -53.225 436.182 -55.2091 436.425L-54.7226 440.395ZM-42.751 438.776C-40.7612 438.481 -38.7744 438.174 -36.7908 437.854L-37.4279 433.905C-39.3944 434.222 -41.3642 434.527 -43.3371 434.819L-42.751 438.776ZM-30.8497 436.856C-28.8727 436.51 -26.8992 436.151 -24.9294 435.78L-25.6709 431.849C-27.623 432.217 -29.579 432.573 -31.5386 432.915L-30.8497 436.856ZM-18.9953 434.618C-17.0201 434.218 -15.0489 433.803 -13.0821 433.376L-13.9319 429.467C-15.8805 429.891 -17.8334 430.301 -19.7905 430.698L-18.9953 434.618ZM-7.19459 432.052C-5.23657 431.597 -3.28311 431.128 -1.33445 430.646L-2.29597 426.763C-4.22573 427.241 -6.16044 427.705 -8.09986 428.156L-7.19459 432.052ZM4.4968 429.156C6.44726 428.643 8.39259 428.115 10.3325 427.573L9.25575 423.72C7.33537 424.257 5.40943 424.78 3.47822 425.288L4.4968 429.156ZM16.1424 425.901C18.0734 425.329 19.9987 424.742 21.9181 424.141L20.7223 420.324C18.8231 420.919 16.9177 421.499 15.0065 422.065L16.1424 425.901ZM27.6579 422.293C29.565 421.662 31.4659 421.016 33.3602 420.355L32.0425 416.578C30.1687 417.232 28.2883 417.871 26.4015 418.495L27.6579 422.293ZM39.0518 418.316C40.9446 417.62 42.8305 416.909 44.7093 416.182L43.2658 412.451C41.4082 413.17 39.5434 413.874 37.6715 414.562L39.0518 418.316ZM50.3239 413.954C52.1881 413.195 54.0449 412.421 55.8939 411.631L54.3219 407.953C52.4945 408.734 50.6593 409.499 48.8165 410.249L50.3239 413.954ZM61.4176 409.212C63.2562 408.387 65.0867 407.546 66.909 406.688L65.2058 403.069C63.4057 403.916 61.5971 404.747 59.7804 405.562L61.4176 409.212ZM72.3546 404.064C74.1613 403.173 75.9594 402.265 77.7485 401.341L75.912 397.787C74.1452 398.7 72.3694 399.597 70.585 400.477L72.3546 404.064ZM83.089 398.516C84.8601 397.558 86.622 396.582 88.3744 395.59L86.403 392.109C84.6731 393.089 82.9338 394.052 81.1852 394.998L83.089 398.516ZM93.5991 392.562C95.3307 391.536 97.0525 390.493 98.7643 389.432L96.6573 386.032C94.9681 387.079 93.2689 388.109 91.5599 389.121L93.5991 392.562ZM103.869 386.197C105.561 385.101 107.242 383.987 108.913 382.856L106.67 379.544C105.022 380.66 103.363 381.759 101.694 382.84L103.869 386.197ZM113.892 379.408C115.532 378.248 117.16 377.07 118.778 375.874L116.4 372.658C114.804 373.837 113.198 374.999 111.581 376.143L113.892 379.408ZM123.589 372.238C125.182 371.008 126.764 369.76 128.333 368.494L125.822 365.38C124.274 366.629 122.715 367.859 121.144 369.072L123.589 372.238ZM133.008 364.64C134.554 363.337 136.089 362.016 137.612 360.676L134.969 357.673C133.468 358.994 131.955 360.297 130.431 361.581L133.008 364.64ZM142.088 356.651C143.563 355.296 145.025 353.924 146.476 352.533L143.707 349.646C142.277 351.017 140.836 352.37 139.382 353.706L142.088 356.651ZM150.789 348.304C152.215 346.877 153.627 345.43 155.027 343.966L152.136 341.202C150.756 342.646 149.363 344.071 147.958 345.478L150.789 348.304ZM159.189 339.515C160.54 338.038 161.879 336.543 163.205 335.029L160.196 332.393C158.889 333.885 157.57 335.359 156.238 336.815L159.189 339.515ZM167.108 330.476C168.396 328.94 169.671 327.387 170.933 325.815L167.814 323.311C166.57 324.86 165.313 326.392 164.043 327.906L167.108 330.476ZM174.68 321.044C175.915 319.436 177.137 317.809 178.346 316.164L175.122 313.796C173.93 315.418 172.725 317.022 171.507 318.608L174.68 321.044ZM181.879 311.244C183.018 309.622 184.144 307.983 185.257 306.327L181.936 304.097C180.839 305.73 179.729 307.346 178.606 308.945L181.879 311.244ZM188.555 301.306C189.642 299.615 190.714 297.906 191.774 296.18L188.364 294.088C187.319 295.791 186.261 297.477 185.19 299.145L188.555 301.306ZM194.911 290.948C195.943 289.186 196.961 287.406 197.965 285.609L194.473 283.658C193.482 285.432 192.478 287.188 191.459 288.926L194.911 290.948ZM200.807 280.403C201.739 278.655 202.659 276.891 203.565 275.111L200 273.297C199.105 275.054 198.198 276.796 197.278 278.52L200.807 280.403ZM206.243 269.72C207.123 267.907 207.989 266.077 208.842 264.23L205.211 262.553C204.368 264.377 203.513 266.184 202.644 267.975L206.243 269.72ZM211.36 258.639C212.175 256.783 212.976 254.911 213.764 253.023L210.072 251.483C209.294 253.348 208.502 255.198 207.697 257.03L211.36 258.639ZM215.989 247.554C216.719 245.716 217.436 243.862 218.14 241.994L214.397 240.583C213.701 242.43 212.992 244.262 212.271 246.079L215.989 247.554ZM220.214 236.342C220.893 234.442 221.558 232.527 222.211 230.597L218.422 229.316C217.777 231.225 217.118 233.118 216.447 234.996L220.214 236.342ZM224.131 224.76C224.749 222.823 225.356 220.871 225.949 218.903L222.119 217.749C221.532 219.695 220.933 221.626 220.32 223.542L224.131 224.76ZM227.601 213.263C228.14 211.369 228.668 209.461 229.183 207.54L225.32 206.504C224.809 208.406 224.288 210.294 223.754 212.168L227.601 213.263ZM230.693 201.733C231.185 199.784 231.664 197.82 232.131 195.843L228.238 194.923C227.776 196.882 227.301 198.826 226.815 200.756L230.693 201.733ZM233.496 189.868C233.939 187.862 234.369 185.843 234.787 183.809L230.869 183.004C230.455 185.019 230.028 187.019 229.59 189.006L233.496 189.868ZM235.942 177.983C236.309 176.065 236.665 174.134 237.01 172.191L233.072 171.491C232.73 173.417 232.377 175.331 232.014 177.231L235.942 177.983ZM238.012 166.324C238.335 164.357 238.647 162.376 238.948 160.383L234.993 159.786C234.695 161.762 234.385 163.726 234.065 165.677L238.012 166.324ZM239.816 154.366C240.095 152.348 240.362 150.317 240.617 148.274L236.648 147.777C236.395 149.804 236.13 151.818 235.854 153.82L239.816 154.366ZM241.35 142.105C241.569 140.16 241.777 138.203 241.975 136.236L237.996 135.834C237.799 137.787 237.592 139.728 237.375 141.658L241.35 142.105ZM242.532 130.386C242.707 128.425 242.873 126.454 243.028 124.471L239.041 124.158C238.886 126.126 238.722 128.084 238.548 130.03L242.532 130.386ZM243.464 118.488C243.599 116.483 243.724 114.467 243.839 112.439L239.845 112.214C239.731 114.227 239.607 116.229 239.473 118.22L243.464 118.488ZM244.152 106.323C244.246 104.273 244.329 102.212 244.402 100.14L240.405 99.9985C240.332 102.057 240.249 104.104 240.156 106.14L244.152 106.323ZM244.587 94.0462C244.636 92.1119 244.675 90.1678 244.706 88.214L240.707 88.151C240.676 90.0922 240.637 92.0237 240.588 93.9454L244.587 94.0462ZM244.771 82.3235C244.784 80.3503 244.788 78.3673 244.782 76.3746L240.782 76.3857C240.788 78.3663 240.784 80.337 240.772 82.2978L244.771 82.3235ZM244.738 70.3668C244.714 68.3544 244.681 66.3322 244.638 64.3L240.639 64.3836C240.681 66.4038 240.714 68.4141 240.738 70.4144L244.738 70.3668ZM244.483 58.1741C244.422 56.1222 244.351 54.0603 244.272 51.9886L240.275 52.1426C240.354 54.2029 240.424 56.253 240.485 58.2932L244.483 58.1741ZM244.009 45.8536C243.918 43.9252 243.819 41.9884 243.712 40.043L239.719 40.2625C239.825 42.1974 239.923 44.1238 240.013 46.0416L244.009 45.8536ZM243.367 34.1813C243.244 32.2188 243.113 30.2478 242.973 28.2682L238.983 28.5494C239.122 30.5189 239.253 32.4797 239.375 34.4319L243.367 34.1813ZM242.53 22.3037C242.374 20.3068 242.21 18.3014 242.037 16.2873L238.052 16.6287C238.224 18.6329 238.387 20.6284 238.542 22.6152L242.53 22.3037ZM241.495 10.2191C241.305 8.18765 241.108 6.14753 240.902 4.0987L236.922 4.49887C237.127 6.53804 237.324 8.56844 237.512 10.59L241.495 10.2191ZM240.259 -2.07391C240.043 -4.06939 239.82 -6.07305 239.589 -8.08486L235.615 -7.62851C235.845 -5.62574 236.067 -3.63125 236.282 -1.64493L240.259 -2.07391ZM238.906 -13.8671C238.671 -15.8019 238.429 -17.7442 238.179 -19.6941L234.211 -19.1863C234.46 -17.2449 234.701 -15.3111 234.935 -13.3848L238.906 -13.8671ZM237.408 -25.5662C237.144 -27.5311 236.873 -29.5035 236.594 -31.4834L232.633 -30.9254C232.911 -28.9537 233.181 -26.9896 233.444 -25.0331L237.408 -25.5662ZM235.735 -37.446C235.441 -39.4412 235.14 -41.4438 234.831 -43.4542L230.877 -42.8471C231.185 -40.8449 231.485 -38.8503 231.777 -36.8634L235.735 -37.446ZM233.883 -49.5077C233.559 -51.5332 233.228 -53.5664 232.889 -55.6072L228.943 -54.9524C229.28 -52.9194 229.61 -50.8941 229.933 -48.8766L233.883 -49.5077ZM231.85 -61.7526C231.522 -63.664 231.186 -65.5821 230.844 -67.5068L226.906 -66.807C227.247 -64.8893 227.581 -62.9785 227.908 -61.0742L231.85 -61.7526ZM229.807 -73.253C229.455 -75.175 229.096 -77.1035 228.731 -79.0387L224.8 -78.2968C225.164 -76.3686 225.521 -74.447 225.872 -72.532L229.807 -73.253ZM227.615 -84.8639C227.237 -86.8122 226.852 -88.7671 226.46 -90.7286L222.538 -89.9456C222.928 -87.9908 223.312 -86.0428 223.689 -84.1013L227.615 -84.8639ZM225.266 -96.6332C224.861 -98.608 224.45 -100.589 224.032 -102.578L220.117 -101.754C220.534 -99.7729 220.944 -97.7981 221.347 -95.83L225.266 -96.6332ZM222.757 -108.562C222.326 -110.563 221.888 -112.571 221.443 -114.586L217.537 -113.724C217.98 -111.716 218.417 -109.714 218.847 -107.719L222.757 -108.562ZM220.088 -120.651C219.65 -122.592 219.205 -124.539 218.754 -126.492L214.856 -125.592C215.306 -123.645 215.749 -121.704 216.186 -119.769L220.088 -120.651ZM217.431 -132.16C216.985 -134.055 216.533 -135.956 216.074 -137.863L212.185 -136.929C212.642 -135.028 213.093 -133.132 213.538 -131.243L217.431 -132.16ZM214.682 -143.601C214.212 -145.519 213.737 -147.443 213.255 -149.373L209.374 -148.405C209.854 -146.48 210.329 -144.562 210.797 -142.649L214.682 -143.601ZM211.793 -155.18C211.299 -157.122 210.8 -159.069 210.295 -161.022L206.422 -160.021C206.926 -158.073 207.424 -156.131 207.916 -154.195L211.793 -155.18ZM208.761 -166.899C208.244 -168.864 207.721 -170.835 207.192 -172.812L203.328 -171.777C203.855 -169.806 204.377 -167.841 204.893 -165.881L208.761 -166.899ZM205.587 -178.759C205.046 -180.747 204.499 -182.741 203.946 -184.741L200.09 -183.675C200.642 -181.681 201.188 -179.692 201.727 -177.709L205.587 -178.759ZM202.314 -190.598C201.792 -192.457 201.265 -194.321 200.732 -196.19L196.885 -195.094C197.416 -193.23 197.942 -191.371 198.463 -189.516L202.314 -190.598ZM199.12 -201.813C198.577 -203.692 198.029 -205.577 197.476 -207.466L193.637 -206.342C194.189 -204.457 194.735 -202.578 195.277 -200.703L199.12 -201.813ZM195.801 -213.15C195.237 -215.049 194.668 -216.954 194.094 -218.864L190.263 -217.712C190.836 -215.807 191.403 -213.907 191.966 -212.012L195.801 -213.15ZM192.356 -224.609C191.771 -226.529 191.181 -228.454 190.586 -230.384L186.763 -229.205C187.357 -227.28 187.946 -225.359 188.529 -223.443L192.356 -224.609ZM188.784 -236.191C188.178 -238.131 187.567 -240.077 186.95 -242.028L183.136 -240.822C183.751 -238.876 184.361 -236.935 184.965 -234.998L188.784 -236.191ZM185.084 -247.896C184.457 -249.857 183.824 -251.823 183.186 -253.795L179.38 -252.563C180.017 -250.596 180.648 -248.634 181.274 -246.677L185.084 -247.896ZM181.289 -259.625C180.688 -261.459 180.083 -263.298 179.473 -265.142L175.676 -263.886C176.284 -262.046 176.888 -260.211 177.487 -258.38L181.289 -259.625ZM177.63 -270.686C177.011 -272.539 176.387 -274.396 175.759 -276.257L171.969 -274.978C172.596 -273.12 173.218 -271.267 173.836 -269.418L177.63 -270.686ZM173.86 -281.855C173.222 -283.725 172.579 -285.6 171.932 -287.479L168.15 -286.177C168.796 -284.301 169.437 -282.43 170.074 -280.564L173.86 -281.855ZM169.976 -293.131C169.32 -295.019 168.659 -296.912 167.993 -298.81L164.218 -297.485C164.883 -295.591 165.543 -293.702 166.198 -291.817L169.976 -293.131ZM165.98 -304.516C165.305 -306.422 164.624 -308.333 163.939 -310.248L160.173 -308.901C160.857 -306.99 161.536 -305.082 162.21 -303.18L165.98 -304.516ZM161.87 -316.009C161.175 -317.933 160.476 -319.862 159.771 -321.796L156.013 -320.427C156.716 -318.497 157.414 -316.571 158.107 -314.651L161.87 -316.009ZM157.644 -327.61C156.937 -329.535 156.226 -331.464 155.509 -333.397L151.758 -332.007C152.474 -330.077 153.184 -328.152 153.89 -326.231L157.644 -327.61ZM153.484 -338.84C152.805 -340.658 152.121 -342.481 151.434 -344.307L147.69 -342.897C148.376 -341.074 149.059 -339.255 149.737 -337.44L153.484 -338.84ZM149.358 -349.797C148.662 -351.631 147.962 -353.469 147.258 -355.311L143.522 -353.882C144.225 -352.044 144.924 -350.209 145.618 -348.378L149.358 -349.797ZM145.132 -360.849C144.419 -362.699 143.702 -364.553 142.981 -366.41L139.252 -364.963C139.972 -363.108 140.688 -361.257 141.399 -359.411L145.132 -360.849ZM140.805 -371.996C140.075 -373.862 139.341 -375.732 138.603 -377.605L134.881 -376.139C135.618 -374.269 136.351 -372.402 137.079 -370.539L140.805 -371.996ZM136.375 -383.239C135.629 -385.121 134.878 -387.006 134.122 -388.896L130.408 -387.412C131.162 -385.525 131.912 -383.642 132.657 -381.763L136.375 -383.239ZM131.844 -394.578C131.08 -396.475 130.312 -398.377 129.54 -400.283L125.832 -398.781C126.604 -396.878 127.37 -394.979 128.133 -393.084L131.844 -394.578ZM127.209 -406.013C126.429 -407.925 125.644 -409.842 124.855 -411.763L121.155 -410.243C121.943 -408.325 122.727 -406.411 123.506 -404.501L127.209 -406.013ZM122.642 -417.132C121.901 -418.925 121.156 -420.722 120.407 -422.522L116.714 -420.986C117.461 -419.188 118.205 -417.394 118.946 -415.604L122.642 -417.132ZM118.149 -427.933C117.392 -429.74 116.632 -431.551 115.868 -433.365L112.182 -431.813C112.945 -430.001 113.704 -428.193 114.459 -426.389L118.149 -427.933ZM113.565 -438.819C112.794 -440.64 112.018 -442.465 111.239 -444.293L107.56 -442.725C108.337 -440.899 109.112 -439.077 109.882 -437.258L113.565 -438.819ZM108.891 -449.789C108.104 -451.624 107.314 -453.463 106.519 -455.305L102.846 -453.722C103.639 -451.882 104.429 -450.045 105.214 -448.213L108.891 -449.789ZM104.125 -460.843C103.323 -462.693 102.517 -464.546 101.708 -466.402L98.041 -464.803C98.8495 -462.949 99.6542 -461.099 100.455 -459.252L104.125 -460.843ZM99.2672 -471.983C98.4499 -473.847 97.6288 -475.714 96.8038 -477.585L93.1439 -475.971C93.9677 -474.102 94.7878 -472.238 95.6039 -470.376L99.2672 -471.983ZM94.3172 -483.208C93.4845 -485.086 92.648 -486.967 91.8076 -488.852L88.1542 -487.224C88.9935 -485.341 89.829 -483.462 90.6606 -481.587L94.3172 -483.208ZM89.2745 -494.519C88.4739 -496.305 87.6698 -498.094 86.8622 -499.887L83.2153 -498.244C84.0218 -496.453 84.8249 -494.666 85.6244 -492.882L89.2745 -494.519ZM84.462 -505.201C83.6585 -506.976 82.8516 -508.754 82.0413 -510.535L78.4005 -508.878C79.2097 -507.099 80.0156 -505.324 80.8181 -503.551L84.462 -505.201ZM79.6004 -515.887C78.7833 -517.674 77.9628 -519.464 77.139 -521.257L73.5042 -519.588C74.327 -517.797 75.1465 -516.008 75.9625 -514.223L79.6004 -515.887ZM74.6572 -526.647C73.8265 -528.447 72.9924 -530.249 72.1548 -532.055L68.5261 -530.373C69.3626 -528.569 70.1957 -526.768 71.0254 -524.971L74.6572 -526.647ZM69.6319 -537.483C68.7875 -539.295 67.9397 -541.11 67.0884 -542.929L63.4657 -541.233C64.3159 -539.417 65.1628 -537.603 66.0062 -535.793L69.6319 -537.483ZM64.5242 -548.394C63.6661 -550.219 62.8045 -552.047 61.9395 -553.878L58.3228 -552.169C59.1868 -550.34 60.0474 -548.514 60.9045 -546.692L64.5242 -548.394ZM59.3339 -559.381C58.4619 -561.218 57.5864 -563.059 56.7075 -564.903L53.0968 -563.181C53.9747 -561.34 54.8492 -559.501 55.7202 -557.666L59.3339 -559.381ZM54.0603 -570.444C53.1744 -572.294 52.285 -574.147 51.3922 -576.003L47.7874 -574.27C48.6793 -572.415 49.5676 -570.564 50.4525 -568.716L54.0603 -570.444ZM48.7032 -581.582C48.2534 -582.513 47.8028 -583.445 47.3513 -584.378L43.7509 -582.635C44.202 -581.704 44.6521 -580.773 45.1014 -579.843L48.7032 -581.582Z" fill="#F4F4F4"/>
</svg>
