<svg width="404" height="1040" viewBox="0 0 404 1040" fill="none" xmlns="http://www.w3.org/2000/svg">
<path d="M501.329 302.755C500.231 302.871 499.434 303.856 499.551 304.955C499.667 306.053 500.652 306.849 501.751 306.733L501.329 302.755ZM496.193 307.92C497.247 307.591 497.835 306.47 497.507 305.415C497.178 304.361 496.056 303.773 495.002 304.101L496.193 307.92ZM489.26 306.344C488.259 306.81 487.825 307.999 488.29 309.001C488.756 310.002 489.946 310.437 490.947 309.971L489.26 306.344ZM485.835 312.677C486.786 312.116 487.102 310.889 486.541 309.938C485.979 308.987 484.753 308.671 483.801 309.233L485.835 312.677ZM478.591 312.591C477.685 313.222 477.462 314.469 478.093 315.375C478.725 316.281 479.971 316.504 480.877 315.873L478.591 312.591ZM476.206 319.34C477.074 318.657 477.224 317.4 476.541 316.532C475.859 315.664 474.601 315.513 473.733 316.196L476.206 319.34ZM469.019 320.096C468.184 320.819 468.095 322.082 468.818 322.917C469.542 323.751 470.805 323.841 471.64 323.118L469.019 320.096ZM467.234 327.1C468.039 326.344 468.078 325.078 467.321 324.273C466.565 323.468 465.299 323.429 464.494 324.186L467.234 327.1ZM460.203 328.361C459.425 329.144 459.428 330.41 460.212 331.189C460.995 331.968 462.261 331.964 463.04 331.181L460.203 328.361ZM458.778 335.605C459.532 334.798 459.49 333.532 458.683 332.778C457.876 332.023 456.61 332.066 455.856 332.873L458.778 335.605ZM451.916 337.198C451.183 338.024 451.258 339.288 452.084 340.022C452.91 340.755 454.174 340.68 454.907 339.854L451.916 337.198ZM450.997 344.366C451.71 343.523 451.605 342.261 450.762 341.547C449.919 340.834 448.657 340.939 447.944 341.782L450.997 344.366ZM444.021 346.521C443.326 347.379 443.459 348.638 444.317 349.334C445.176 350.029 446.435 349.896 447.13 349.038L444.021 346.521ZM443.514 353.594C444.192 352.722 444.036 351.466 443.164 350.787C442.292 350.109 441.036 350.266 440.357 351.137L443.514 353.594ZM436.677 355.958C436.014 356.841 436.194 358.095 437.078 358.757C437.962 359.42 439.215 359.24 439.878 358.356L436.677 355.958ZM436.277 363.25C436.924 362.355 436.722 361.105 435.827 360.458C434.932 359.811 433.682 360.012 433.035 360.907L436.277 363.25ZM429.621 365.708C428.988 366.613 429.209 367.86 430.114 368.493C431.019 369.126 432.266 368.906 432.899 368.001L429.621 365.708ZM429.516 372.916C430.135 372.002 429.896 370.758 428.982 370.138C428.067 369.519 426.824 369.758 426.204 370.673L429.516 372.916ZM422.786 375.798C422.18 376.721 422.437 377.961 423.36 378.568C424.284 379.174 425.523 378.917 426.13 377.993L422.786 375.798ZM422.944 382.917C423.538 381.986 423.264 380.749 422.333 380.155C421.402 379.561 420.165 379.835 419.571 380.766L422.944 382.917ZM416.391 385.825C415.809 386.763 416.098 387.996 417.037 388.578C417.975 389.16 419.208 388.871 419.79 387.932L416.391 385.825ZM416.643 393.081C417.213 392.135 416.909 390.906 415.963 390.335C415.017 389.765 413.788 390.07 413.217 391.016L416.643 393.081ZM410.115 396.232C409.556 397.185 409.876 398.41 410.828 398.969C411.781 399.528 413.007 399.209 413.565 398.256L410.115 396.232ZM410.621 403.342C411.169 402.383 410.836 401.161 409.877 400.613C408.918 400.065 407.696 400.398 407.148 401.357L410.621 403.342ZM404.195 406.592C403.657 407.558 404.004 408.775 404.969 409.313C405.934 409.85 407.152 409.504 407.689 408.539L404.195 406.592ZM404.772 413.845C405.299 412.874 404.939 411.66 403.968 411.133C402.997 410.606 401.783 410.966 401.257 411.937L404.772 413.845ZM398.42 417.23C397.904 418.207 398.277 419.417 399.253 419.934C400.229 420.45 401.44 420.077 401.956 419.101L398.42 417.23ZM399.221 424.335C399.727 423.354 399.342 422.147 398.361 421.641C397.379 421.134 396.173 421.519 395.666 422.501L399.221 424.335ZM392.932 427.864C392.435 428.851 392.833 430.053 393.819 430.55C394.806 431.046 396.008 430.649 396.505 429.663L392.932 427.864ZM393.81 435.082C394.297 434.09 393.888 432.892 392.897 432.405C391.905 431.918 390.707 432.327 390.22 433.319L393.81 435.082ZM387.603 438.714C387.125 439.71 387.546 440.905 388.542 441.382C389.538 441.859 390.733 441.439 391.21 440.442L387.603 438.714ZM388.679 445.789C389.147 444.789 388.715 443.598 387.714 443.13C386.714 442.663 385.523 443.094 385.056 444.095L388.679 445.789ZM382.534 449.555C382.075 450.56 382.518 451.746 383.523 452.205C384.528 452.663 385.714 452.22 386.173 451.215L382.534 449.555ZM383.693 456.718C384.142 455.709 383.688 454.527 382.679 454.078C381.67 453.629 380.487 454.083 380.038 455.092L383.693 456.718ZM377.615 460.606C377.175 461.619 377.64 462.797 378.653 463.237C379.666 463.677 380.844 463.212 381.284 462.199L377.615 460.606ZM378.952 467.635C379.383 466.618 378.908 465.444 377.891 465.014C376.874 464.583 375.7 465.058 375.269 466.075L378.952 467.635ZM372.953 471.612C372.532 472.633 373.017 473.802 374.038 474.224C375.059 474.646 376.229 474.16 376.65 473.139L372.953 471.612ZM374.379 478.709C374.791 477.684 374.295 476.519 373.27 476.107C372.246 475.694 371.081 476.19 370.668 477.215L374.379 478.709ZM368.427 482.853C368.023 483.882 368.53 485.042 369.558 485.446C370.586 485.849 371.747 485.343 372.15 484.314L368.427 482.853ZM370.016 489.825C370.41 488.794 369.894 487.637 368.862 487.243C367.83 486.848 366.674 487.365 366.28 488.397L370.016 489.825ZM364.165 493.998C363.78 495.033 364.306 496.185 365.341 496.57C366.376 496.956 367.528 496.429 367.914 495.394L364.165 493.998ZM365.846 501.019C366.222 499.981 365.686 498.834 364.648 498.457C363.609 498.081 362.462 498.617 362.086 499.656L365.846 501.019ZM360.042 505.369C359.674 506.411 360.221 507.553 361.262 507.921C362.304 508.288 363.446 507.742 363.814 506.7L360.042 505.369ZM361.857 512.322C362.216 511.278 361.659 510.14 360.615 509.781C359.57 509.423 358.432 509.979 358.074 511.024L361.857 512.322ZM356.159 516.681C355.809 517.729 356.375 518.862 357.423 519.212C358.471 519.561 359.604 518.995 359.953 517.948L356.159 516.681ZM358.087 523.622C358.427 522.571 357.852 521.443 356.801 521.102C355.75 520.762 354.622 521.337 354.282 522.388L358.087 523.622ZM352.444 528.142C352.112 529.196 352.697 530.319 353.751 530.651C354.805 530.982 355.927 530.397 356.259 529.343L352.444 528.142ZM354.476 535.095C354.799 534.038 354.204 532.92 353.147 532.598C352.091 532.275 350.973 532.87 350.651 533.927L354.476 535.095ZM348.935 539.635C348.621 540.694 349.226 541.807 350.285 542.12C351.344 542.434 352.457 541.829 352.77 540.77L348.935 539.635ZM351.105 546.488C351.409 545.426 350.795 544.319 349.733 544.014C348.671 543.71 347.564 544.324 347.259 545.386L351.105 546.488ZM345.626 551.178C345.331 552.242 345.954 553.345 347.019 553.64C348.083 553.935 349.185 553.311 349.481 552.247L345.626 551.178ZM347.899 558.046C348.185 556.979 347.552 555.883 346.485 555.597C345.418 555.311 344.322 555.944 344.036 557.011L347.899 558.046ZM342.502 562.832C342.226 563.901 342.868 564.992 343.938 565.269C345.007 565.546 346.098 564.903 346.375 563.834L342.502 562.832ZM344.911 569.592C345.179 568.52 344.527 567.435 343.455 567.167C342.383 566.9 341.298 567.552 341.03 568.623L344.911 569.592ZM339.603 574.451C339.345 575.525 340.006 576.605 341.08 576.863C342.154 577.121 343.234 576.46 343.492 575.386L339.603 574.451ZM342.118 581.214C342.367 580.138 341.696 579.064 340.62 578.815C339.544 578.566 338.47 579.237 338.221 580.313L342.118 581.214ZM336.886 586.209C336.647 587.288 337.327 588.356 338.406 588.595C339.484 588.834 340.552 588.154 340.791 587.075L336.886 586.209ZM339.525 592.905C339.755 591.825 339.065 590.763 337.985 590.533C336.904 590.304 335.842 590.993 335.613 592.074L339.525 592.905ZM334.394 597.934C334.174 599.017 334.873 600.073 335.956 600.293C337.038 600.513 338.094 599.814 338.314 598.731L334.394 597.934ZM337.151 604.587C337.361 603.502 336.653 602.453 335.568 602.242C334.484 602.032 333.435 602.741 333.224 603.825L337.151 604.587ZM332.104 609.744C331.903 610.83 332.621 611.873 333.707 612.074C334.793 612.275 335.836 611.557 336.037 610.47L332.104 609.744ZM334.973 616.382C335.164 615.294 334.437 614.257 333.349 614.067C332.261 613.876 331.224 614.603 331.033 615.691L334.973 616.382ZM330.026 621.6C329.845 622.69 330.582 623.72 331.671 623.901C332.761 624.081 333.791 623.345 333.972 622.255L330.026 621.6ZM333.024 628.135C333.195 627.044 332.448 626.02 331.357 625.85C330.266 625.679 329.243 626.425 329.072 627.516L333.024 628.135ZM328.171 633.457C328.01 634.55 328.766 635.566 329.858 635.727C330.951 635.887 331.967 635.132 332.128 634.039L328.171 633.457ZM331.285 639.966C331.435 638.872 330.67 637.863 329.576 637.712C328.482 637.562 327.473 638.327 327.322 639.421L331.285 639.966ZM326.528 645.408C326.388 646.503 327.162 647.505 328.258 647.645C329.354 647.785 330.356 647.011 330.496 645.915L326.528 645.408ZM329.768 651.827C329.898 650.73 329.114 649.735 328.017 649.606C326.92 649.476 325.925 650.26 325.796 651.357L329.768 651.827ZM325.12 657.316C325 658.414 325.794 659.401 326.892 659.52C327.99 659.639 328.977 658.846 329.096 657.748L325.12 657.316ZM328.48 663.687C328.589 662.588 327.786 661.609 326.687 661.5C325.587 661.392 324.608 662.195 324.5 663.294L328.48 663.687ZM323.936 669.29C323.838 670.391 324.651 671.362 325.751 671.46C326.851 671.558 327.822 670.746 327.92 669.645L323.936 669.29ZM327.418 675.62C327.505 674.519 326.683 673.556 325.582 673.469C324.481 673.382 323.517 674.204 323.43 675.305L327.418 675.62ZM322.987 681.286C322.91 682.388 323.742 683.343 324.844 683.419C325.946 683.495 326.901 682.664 326.977 681.562L322.987 681.286ZM326.595 687.51C326.66 686.407 325.819 685.46 324.717 685.395C323.614 685.33 322.667 686.171 322.602 687.273L326.595 687.51ZM322.277 693.276C322.223 694.379 323.073 695.317 324.177 695.371C325.28 695.425 326.218 694.575 326.272 693.472L322.277 693.276ZM326.009 699.447C326.052 698.344 325.192 697.414 324.089 697.371C322.985 697.328 322.055 698.188 322.012 699.292L326.009 699.447ZM321.809 705.321C321.777 706.425 322.647 707.346 323.751 707.378C324.855 707.409 325.776 706.54 325.807 705.436L321.809 705.321ZM325.668 711.394C325.688 710.29 324.809 709.378 323.705 709.358C322.6 709.338 321.689 710.217 321.668 711.321L325.668 711.394ZM321.59 717.323C321.582 718.427 322.47 719.329 323.575 719.338C324.679 719.347 325.582 718.458 325.59 717.354L321.59 717.323ZM325.575 723.323C325.572 722.218 324.674 721.326 323.57 721.329C322.465 721.332 321.572 722.23 321.575 723.334L325.575 723.323ZM321.624 729.355C321.639 730.46 322.547 731.343 323.651 731.328C324.755 731.313 325.639 730.406 325.624 729.302L321.624 729.355ZM325.737 735.288C325.71 734.184 324.793 733.311 323.689 733.337C322.585 733.364 321.711 734.281 321.738 735.385L325.737 735.288ZM321.916 741.389C321.955 742.493 322.881 743.357 323.985 743.318C325.089 743.279 325.953 742.353 325.914 741.249L321.916 741.389ZM326.156 747.203C326.105 746.099 325.169 745.246 324.066 745.297C322.962 745.348 322.109 746.284 322.16 747.387L326.156 747.203ZM322.47 753.391C322.533 754.494 323.478 755.336 324.581 755.273C325.684 755.21 326.527 754.265 326.464 753.162L322.47 753.391ZM326.838 759.127C326.763 758.025 325.808 757.193 324.706 757.268C323.604 757.343 322.772 758.298 322.848 759.4L326.838 759.127ZM323.294 765.414C323.382 766.515 324.346 767.336 325.447 767.248C326.548 767.16 327.369 766.196 327.281 765.095L323.294 765.414ZM327.79 771.04C327.689 769.94 326.716 769.129 325.616 769.23C324.516 769.33 323.706 770.304 323.806 771.404L327.79 771.04ZM324.387 777.378C324.5 778.477 325.482 779.276 326.581 779.162C327.68 779.049 328.479 778.067 328.366 776.968L324.387 777.378ZM329.011 782.898C328.885 781.801 327.893 781.013 326.796 781.139C325.699 781.265 324.911 782.257 325.037 783.354L329.011 782.898ZM325.758 789.331C325.897 790.427 326.898 791.203 327.993 791.064C329.089 790.926 329.865 789.925 329.726 788.829L325.758 789.331ZM330.513 794.76C330.361 793.666 329.351 792.902 328.257 793.054C327.163 793.205 326.399 794.215 326.551 795.309L330.513 794.76ZM327.413 801.266C327.578 802.358 328.597 803.11 329.689 802.945C330.781 802.781 331.533 801.762 331.368 800.669L327.413 801.266ZM332.292 806.55C332.114 805.459 331.086 804.72 329.996 804.898C328.905 805.076 328.166 806.104 328.344 807.194L332.292 806.55ZM329.347 813.12C329.539 814.207 330.575 814.934 331.663 814.743C332.751 814.552 333.478 813.515 333.287 812.428L329.347 813.12ZM334.356 818.302C334.152 817.217 333.106 816.503 332.021 816.707C330.935 816.911 330.221 817.957 330.425 819.043L334.356 818.302ZM331.578 824.962C331.796 826.045 332.85 826.746 333.933 826.529C335.016 826.311 335.717 825.256 335.499 824.174L331.578 824.962ZM336.715 830.028C336.483 828.948 335.42 828.26 334.34 828.491C333.26 828.722 332.572 829.785 332.803 830.866L336.715 830.028ZM334.096 836.721C334.34 837.798 335.412 838.473 336.489 838.228C337.566 837.983 338.241 836.911 337.996 835.834L334.096 836.721ZM339.353 841.635C339.094 840.561 338.014 839.9 336.94 840.158C335.866 840.416 335.205 841.496 335.464 842.57L339.353 841.635ZM336.908 848.413C337.18 849.484 338.269 850.131 339.339 849.859C340.41 849.587 341.057 848.499 340.785 847.428L336.908 848.413ZM342.295 853.215C342.009 852.148 340.913 851.514 339.846 851.8C338.779 852.086 338.145 853.182 338.431 854.249L342.295 853.215ZM340.032 860.077C340.331 861.14 341.436 861.759 342.499 861.46C343.562 861.16 344.181 860.056 343.882 858.992L340.032 860.077ZM345.529 864.699C345.216 863.64 344.104 863.035 343.044 863.348C341.985 863.662 341.38 864.774 341.693 865.833L345.529 864.699ZM343.433 871.578C343.76 872.633 344.88 873.223 345.935 872.896C346.99 872.569 347.58 871.449 347.253 870.394L343.433 871.578ZM349.056 876.078C348.715 875.028 347.587 874.452 346.537 874.793C345.486 875.134 344.91 876.262 345.251 877.312L349.056 876.078ZM347.149 883.036C347.504 884.082 348.64 884.643 349.686 884.288C350.732 883.934 351.292 882.798 350.938 881.752L347.149 883.036ZM352.899 887.414C352.531 886.373 351.388 885.827 350.347 886.196C349.305 886.564 348.76 887.707 349.129 888.749L352.899 887.414ZM351.17 894.398C351.553 895.434 352.703 895.964 353.739 895.582C354.775 895.2 355.306 894.05 354.923 893.013L351.17 894.398ZM357.016 898.572C356.62 897.541 355.463 897.026 354.432 897.423C353.401 897.819 352.886 898.976 353.282 900.007L357.016 898.572ZM355.475 905.602C355.885 906.628 357.049 907.127 358.075 906.717C359.101 906.307 359.6 905.144 359.19 904.118L355.475 905.602ZM361.444 909.649C361.02 908.629 359.85 908.146 358.83 908.57C357.81 908.993 357.326 910.164 357.75 911.184L361.444 909.649ZM360.107 916.75C360.544 917.765 361.721 918.232 362.735 917.795C363.75 917.357 364.217 916.18 363.78 915.166L360.107 916.75ZM366.187 920.644C365.736 919.636 364.553 919.184 363.545 919.635C362.536 920.087 362.085 921.27 362.536 922.278L366.187 920.644ZM365.016 927.719C365.481 928.721 366.67 929.157 367.672 928.692C368.674 928.227 369.11 927.038 368.645 926.036L365.016 927.719ZM371.183 931.411C370.705 930.416 369.51 929.997 368.514 930.475C367.519 930.953 367.1 932.148 367.578 933.144L371.183 931.411ZM370.222 938.552C370.714 939.541 371.915 939.944 372.904 939.452C373.893 938.96 374.296 937.759 373.804 936.77L370.222 938.552ZM376.506 942.112C376.001 941.129 374.795 940.743 373.813 941.248C372.831 941.754 372.444 942.96 372.95 943.942L376.506 942.112ZM375.761 949.314C376.28 950.289 377.491 950.659 378.466 950.14C379.442 949.621 379.811 948.41 379.292 947.435L375.761 949.314ZM382.116 952.655C381.584 951.687 380.368 951.334 379.4 951.866C378.432 952.398 378.079 953.614 378.611 954.582L382.116 952.655ZM381.528 959.805C382.074 960.765 383.294 961.102 384.255 960.557C385.216 960.012 385.552 958.791 385.007 957.83L381.528 959.805ZM387.98 962.987C387.422 962.033 386.197 961.713 385.243 962.271C384.29 962.83 383.97 964.055 384.528 965.008L387.98 962.987ZM387.612 970.191C388.183 971.137 389.412 971.44 390.358 970.869C391.303 970.298 391.607 969.068 391.036 968.123L387.612 970.191ZM394.174 973.239C393.59 972.301 392.357 972.015 391.419 972.599C390.482 973.183 390.195 974.416 390.779 975.354L394.174 973.239ZM394.018 980.474C394.614 981.403 395.852 981.673 396.781 981.076C397.711 980.479 397.98 979.242 397.383 978.313L394.018 980.474ZM400.607 983.259C399.998 982.338 398.757 982.085 397.835 982.694C396.914 983.303 396.661 984.544 397.27 985.466L400.607 983.259ZM400.604 990.436C401.226 991.349 402.47 991.585 403.383 990.964C404.296 990.342 404.533 989.098 403.911 988.185L400.604 990.436ZM407.297 993.089C406.664 992.184 405.416 991.964 404.512 992.598C403.607 993.232 403.387 994.479 404.021 995.384L407.297 993.089ZM407.521 1000.31C408.167 1001.21 409.417 1001.41 410.313 1000.76C411.209 1000.12 411.412 998.866 410.766 997.97L407.521 1000.31ZM414.317 1002.83C413.659 1001.94 412.407 1001.76 411.52 1002.41C410.632 1003.07 410.446 1004.32 411.104 1005.21L414.317 1002.83ZM414.726 1010.03C415.395 1010.91 416.65 1011.08 417.529 1010.41C418.407 1009.74 418.577 1008.48 417.907 1007.6L414.726 1010.03ZM421.515 1012.27C420.834 1011.4 419.577 1011.25 418.707 1011.93C417.838 1012.61 417.685 1013.87 418.366 1014.74L421.515 1012.27ZM422.086 1019.43C422.778 1020.29 424.037 1020.43 424.898 1019.73C425.758 1019.04 425.895 1017.78 425.203 1016.92L422.086 1019.43ZM428.971 1021.55C428.268 1020.69 427.007 1020.57 426.156 1021.28C425.304 1021.98 425.184 1023.24 425.887 1024.09L428.971 1021.55ZM429.77 1028.73C430.485 1029.57 431.747 1029.68 432.589 1028.96C433.431 1028.25 433.535 1026.99 432.821 1026.14L429.77 1028.73ZM436.752 1030.72C436.027 1029.89 434.763 1029.8 433.93 1030.52C433.097 1031.25 433.01 1032.51 433.735 1033.35L436.752 1030.72ZM504.432 302.61C503.414 302.594 502.379 302.644 501.329 302.755L501.751 306.733C502.65 306.637 503.523 306.597 504.372 306.609L504.432 302.61ZM495.002 304.101C493.128 304.686 491.212 305.436 489.26 306.344L490.947 309.971C492.757 309.129 494.507 308.446 496.193 307.92L495.002 304.101ZM483.801 309.233C482.09 310.243 480.352 311.364 478.591 312.591L480.877 315.873C482.564 314.698 484.217 313.632 485.835 312.677L483.801 309.233ZM473.733 316.196C472.178 317.419 470.606 318.72 469.019 320.096L471.64 323.118C473.181 321.781 474.704 320.521 476.206 319.34L473.733 316.196ZM464.494 324.186C463.074 325.52 461.644 326.912 460.203 328.361L463.04 331.181C464.45 329.763 465.848 328.403 467.234 327.1L464.494 324.186ZM455.856 332.873C454.549 334.271 453.236 335.713 451.916 337.198L454.907 339.854C456.205 338.393 457.495 336.977 458.778 335.605L455.856 332.873ZM447.944 341.782C446.641 343.321 445.333 344.901 444.021 346.521L447.13 349.038C448.424 347.44 449.713 345.882 450.997 344.366L447.944 341.782ZM440.357 351.137C439.133 352.71 437.906 354.317 436.677 355.958L439.878 358.356C441.093 356.735 442.305 355.147 443.514 353.594L440.357 351.137ZM433.035 360.907C431.898 362.48 430.76 364.08 429.621 365.708L432.899 368.001C434.026 366.389 435.152 364.806 436.277 363.25L433.035 360.907ZM426.204 370.673C425.065 372.354 423.925 374.063 422.786 375.798L426.13 377.993C427.258 376.274 428.387 374.582 429.516 372.916L426.204 370.673ZM419.571 380.766C418.51 382.43 417.45 384.116 416.391 385.825L419.79 387.932C420.841 386.238 421.892 384.566 422.944 382.917L419.571 380.766ZM413.217 391.016C412.182 392.734 411.147 394.473 410.115 396.232L413.565 398.256C414.59 396.51 415.616 394.785 416.643 393.081L413.217 391.016ZM407.148 401.357C406.161 403.084 405.177 404.829 404.195 406.592L407.689 408.539C408.664 406.788 409.641 405.055 410.621 403.342L407.148 401.357ZM401.257 411.937C400.308 413.685 399.363 415.449 398.42 417.23L401.956 419.101C402.892 417.332 403.831 415.58 404.772 413.845L401.257 411.937ZM395.666 422.501C394.752 424.273 393.84 426.061 392.932 427.864L396.505 429.663C397.407 427.872 398.312 426.096 399.221 424.335L395.666 422.501ZM390.22 433.319C389.344 435.103 388.471 436.902 387.603 438.714L391.21 440.442C392.073 438.641 392.94 436.855 393.81 435.082L390.22 433.319ZM385.056 444.095C384.211 445.902 383.37 447.722 382.534 449.555L386.173 451.215C387.004 449.394 387.839 447.585 388.679 445.789L385.056 444.095ZM380.038 455.092C379.226 456.918 378.418 458.756 377.615 460.606L381.284 462.199C382.082 460.36 382.885 458.533 383.693 456.718L380.038 455.092ZM375.269 466.075C374.492 467.91 373.72 469.755 372.953 471.612L376.65 473.139C377.413 471.293 378.18 469.459 378.952 467.635L375.269 466.075ZM370.668 477.215C369.916 479.084 369.168 480.963 368.427 482.853L372.15 484.314C372.888 482.435 373.631 480.567 374.379 478.709L370.668 477.215ZM366.28 488.397C365.569 490.254 364.864 492.121 364.165 493.998L367.914 495.394C368.609 493.528 369.309 491.672 370.016 489.825L366.28 488.397ZM362.086 499.656C361.398 501.551 360.717 503.456 360.042 505.369L363.814 506.7C364.485 504.798 365.163 502.904 365.846 501.019L362.086 499.656ZM358.074 511.024C357.429 512.901 356.791 514.787 356.159 516.681L359.953 517.948C360.582 516.064 361.216 514.189 361.857 512.322L358.074 511.024ZM354.282 522.388C353.662 524.298 353.05 526.216 352.444 528.142L356.259 529.343C356.862 527.428 357.471 525.521 358.087 523.622L354.282 522.388ZM350.651 533.927C350.072 535.822 349.5 537.725 348.935 539.635L352.77 540.77C353.332 538.871 353.901 536.979 354.476 535.095L350.651 533.927ZM347.259 545.386C346.708 547.31 346.163 549.24 345.626 551.178L349.481 552.247C350.015 550.321 350.556 548.401 351.105 546.488L347.259 545.386ZM344.036 557.011C343.517 558.945 343.006 560.885 342.502 562.832L346.375 563.834C346.876 561.898 347.384 559.969 347.899 558.046L344.036 557.011ZM341.03 568.623C340.547 570.56 340.071 572.503 339.603 574.451L343.492 575.386C343.958 573.449 344.431 571.517 344.911 569.592L341.03 568.623ZM338.221 580.313C337.768 582.273 337.323 584.239 336.886 586.209L340.791 587.075C341.226 585.116 341.668 583.162 342.118 581.214L338.221 580.313ZM335.613 592.074C335.199 594.022 334.792 595.976 334.394 597.934L338.314 598.731C338.71 596.784 339.114 594.842 339.525 592.905L335.613 592.074ZM333.224 603.825C332.842 605.793 332.469 607.766 332.104 609.744L336.037 610.47C336.4 608.505 336.771 606.543 337.151 604.587L333.224 603.825ZM331.033 615.691C330.689 617.657 330.353 619.626 330.026 621.6L333.972 622.255C334.297 620.293 334.631 618.335 334.973 616.382L331.033 615.691ZM329.072 627.516C328.763 629.493 328.462 631.473 328.171 633.457L332.128 634.039C332.418 632.067 332.717 630.099 333.024 628.135L329.072 627.516ZM327.322 639.421C327.048 641.413 326.784 643.409 326.528 645.408L330.496 645.915C330.75 643.928 331.013 641.945 331.285 639.966L327.322 639.421ZM325.796 651.357C325.561 653.34 325.336 655.326 325.12 657.316L329.096 657.748C329.311 655.771 329.535 653.797 329.768 651.827L325.796 651.357ZM324.5 663.294C324.302 665.29 324.114 667.289 323.936 669.29L327.92 669.645C328.097 667.656 328.284 665.67 328.48 663.687L324.5 663.294ZM323.43 675.305C323.273 677.296 323.125 679.289 322.987 681.286L326.977 681.562C327.114 679.579 327.261 677.598 327.418 675.62L323.43 675.305ZM322.602 687.273C322.484 689.272 322.375 691.272 322.277 693.276L326.272 693.472C326.37 691.482 326.478 689.495 326.595 687.51L322.602 687.273ZM322.012 699.292C321.934 701.3 321.866 703.309 321.809 705.321L325.807 705.436C325.864 703.437 325.932 701.441 326.009 699.447L322.012 699.292ZM321.668 711.321C321.632 713.32 321.606 715.32 321.59 717.323L325.59 717.354C325.606 715.365 325.632 713.379 325.668 711.394L321.668 711.321ZM321.575 723.334C321.581 725.34 321.597 727.347 321.624 729.355L325.624 729.302C325.597 727.307 325.581 725.314 325.575 723.323L321.575 723.334ZM321.738 735.385C321.787 737.385 321.846 739.387 321.916 741.389L325.914 741.249C325.844 739.261 325.785 737.274 325.737 735.288L321.738 735.385ZM322.16 747.387C322.252 749.387 322.356 751.389 322.47 753.391L326.464 753.162C326.35 751.175 326.247 749.188 326.156 747.203L322.16 747.387ZM322.848 759.4C322.985 761.404 323.134 763.408 323.294 765.414L327.281 765.095C327.122 763.105 326.975 761.116 326.838 759.127L322.848 759.4ZM323.806 771.404C323.988 773.395 324.182 775.386 324.387 777.378L328.366 776.968C328.162 774.992 327.97 773.016 327.79 771.04L323.806 771.404ZM325.037 783.354C325.266 785.346 325.506 787.339 325.758 789.331L329.726 788.829C329.476 786.852 329.238 784.875 329.011 782.898L325.037 783.354ZM326.551 795.309C326.826 797.295 327.114 799.281 327.413 801.266L331.368 800.669C331.071 798.7 330.786 796.73 330.513 794.76L326.551 795.309ZM328.344 807.194C328.666 809.169 329.001 811.145 329.347 813.12L333.287 812.428C332.943 810.469 332.611 808.509 332.292 806.55L328.344 807.194ZM330.425 819.043C330.797 821.016 331.181 822.99 331.578 824.962L335.499 824.174C335.106 822.217 334.725 820.26 334.356 818.302L330.425 819.043ZM332.803 830.866C333.222 832.818 333.652 834.77 334.096 836.721L337.996 835.834C337.556 833.9 337.129 831.964 336.715 830.028L332.803 830.866ZM335.464 842.57C335.932 844.519 336.414 846.467 336.908 848.413L340.785 847.428C340.295 845.498 339.817 843.567 339.353 841.635L335.464 842.57ZM338.431 854.249C338.951 856.193 339.485 858.136 340.032 860.077L343.882 858.992C343.34 857.068 342.811 855.142 342.295 853.215L338.431 854.249ZM341.693 865.833C342.26 867.75 342.84 869.665 343.433 871.578L347.253 870.394C346.666 868.497 346.091 866.599 345.529 864.699L341.693 865.833ZM345.251 877.312C345.871 879.222 346.503 881.13 347.149 883.036L350.938 881.752C350.297 879.863 349.67 877.971 349.056 876.078L345.251 877.312ZM349.129 888.749C349.796 890.634 350.476 892.517 351.17 894.398L354.923 893.013C354.235 891.149 353.561 889.282 352.899 887.414L349.129 888.749ZM353.282 900.007C354 901.874 354.731 903.739 355.475 905.602L359.19 904.118C358.452 902.272 357.727 900.423 357.016 898.572L353.282 900.007ZM357.75 911.184C358.522 913.042 359.307 914.897 360.107 916.75L363.78 915.166C362.987 913.33 362.209 911.491 361.444 909.649L357.75 911.184ZM362.536 922.278C363.349 924.094 364.176 925.908 365.016 927.719L368.645 926.036C367.812 924.241 366.993 922.444 366.187 920.644L362.536 922.278ZM367.578 933.144C368.446 934.949 369.327 936.752 370.222 938.552L373.804 936.77C372.916 934.987 372.043 933.201 371.183 931.411L367.578 933.144ZM372.95 943.942C373.873 945.736 374.81 947.526 375.761 949.314L379.292 947.435C378.35 945.663 377.421 943.889 376.506 942.112L372.95 943.942ZM378.611 954.582C379.57 956.326 380.542 958.067 381.528 959.805L385.007 957.83C384.03 956.108 383.066 954.383 382.116 952.655L378.611 954.582ZM384.528 965.008C385.542 966.739 386.57 968.467 387.612 970.191L391.036 968.123C390.003 966.414 388.985 964.702 387.98 962.987L384.528 965.008ZM390.779 975.354C391.845 977.064 392.924 978.771 394.018 980.474L397.383 978.313C396.3 976.625 395.23 974.934 394.174 973.239L390.779 975.354ZM397.27 985.466C398.368 987.126 399.479 988.783 400.604 990.436L403.911 988.185C402.796 986.547 401.695 984.905 400.607 983.259L397.27 985.466ZM404.021 995.384C405.174 997.029 406.34 998.671 407.521 1000.31L410.766 997.97C409.596 996.347 408.44 994.72 407.297 993.089L404.021 995.384ZM411.104 1005.21C412.298 1006.82 413.505 1008.43 414.726 1010.03L417.907 1007.6C416.697 1006.02 415.5 1004.42 414.317 1002.83L411.104 1005.21ZM418.366 1014.74C419.592 1016.31 420.832 1017.87 422.086 1019.43L425.203 1016.92C423.96 1015.38 422.731 1013.83 421.515 1012.27L418.366 1014.74ZM425.887 1024.09C427.168 1025.64 428.462 1027.19 429.77 1028.73L432.821 1026.14C431.524 1024.62 430.241 1023.08 428.971 1021.55L425.887 1024.09ZM433.735 1033.35C434.403 1034.11 435.074 1034.88 435.748 1035.64L438.748 1033C438.079 1032.24 437.414 1031.48 436.752 1030.72L433.735 1033.35Z" fill="#F4F4F4"/>
<path d="M141.231 -270.994C140.723 -270.014 141.107 -268.807 142.088 -268.299C143.069 -267.791 144.276 -268.175 144.783 -269.156L141.231 -270.994ZM142.069 -263.896C142.574 -264.879 142.188 -266.084 141.206 -266.59C140.224 -267.095 139.018 -266.709 138.512 -265.726L142.069 -263.896ZM135.779 -260.398C135.276 -259.415 135.666 -258.21 136.649 -257.707C137.633 -257.204 138.838 -257.594 139.341 -258.577L135.779 -260.398ZM136.6 -253.199C137.1 -254.184 136.707 -255.388 135.723 -255.888C134.738 -256.388 133.534 -255.996 133.034 -255.011L136.6 -253.199ZM130.278 -249.566C129.781 -248.58 130.177 -247.377 131.164 -246.88C132.15 -246.383 133.353 -246.779 133.85 -247.765L130.278 -249.566ZM131.189 -242.47C131.684 -243.457 131.284 -244.659 130.296 -245.154C129.308 -245.648 128.107 -245.248 127.612 -244.26L131.189 -242.47ZM124.951 -238.924C124.459 -237.935 124.863 -236.735 125.852 -236.243C126.841 -235.752 128.041 -236.155 128.533 -237.144L124.951 -238.924ZM125.874 -231.771C126.362 -232.762 125.955 -233.961 124.964 -234.449C123.973 -234.938 122.774 -234.53 122.286 -233.54L125.874 -231.771ZM119.62 -228.108C119.135 -227.116 119.546 -225.918 120.538 -225.433C121.531 -224.948 122.729 -225.359 123.214 -226.352L119.62 -228.108ZM120.565 -220.909C121.047 -221.903 120.631 -223.099 119.637 -223.581C118.643 -224.063 117.447 -223.647 116.965 -222.653L120.565 -220.909ZM114.381 -217.297C113.903 -216.301 114.323 -215.106 115.318 -214.628C116.314 -214.15 117.509 -214.569 117.987 -215.565L114.381 -217.297ZM115.414 -210.182C115.888 -211.179 115.464 -212.372 114.467 -212.847C113.469 -213.321 112.276 -212.898 111.802 -211.9L115.414 -210.182ZM109.228 -206.465C108.757 -205.466 109.186 -204.274 110.185 -203.803C111.184 -203.333 112.376 -203.761 112.847 -204.76L109.228 -206.465ZM110.288 -199.302C110.755 -200.303 110.322 -201.493 109.321 -201.96C108.32 -202.427 107.13 -201.994 106.663 -200.993L110.288 -199.302ZM104.119 -195.51C103.656 -194.507 104.094 -193.319 105.097 -192.856C106.099 -192.393 107.288 -192.831 107.751 -193.834L104.119 -195.51ZM105.267 -188.425C105.726 -189.43 105.284 -190.616 104.279 -191.075C103.274 -191.534 102.088 -191.091 101.629 -190.086L105.267 -188.425ZM99.1516 -184.631C98.6971 -183.624 99.1447 -182.439 100.151 -181.985C101.158 -181.53 102.343 -181.978 102.797 -182.985L99.1516 -184.631ZM100.342 -177.515C100.792 -178.523 100.339 -179.706 99.3304 -180.156C98.3217 -180.606 97.1391 -180.153 96.689 -179.145L100.342 -177.515ZM94.2426 -173.63C93.797 -172.619 94.2551 -171.438 95.2658 -170.993C96.2765 -170.547 97.4571 -171.005 97.9027 -172.016L94.2426 -173.63ZM95.4878 -166.504C95.9287 -167.517 95.4651 -168.695 94.4524 -169.136C93.4396 -169.577 92.2612 -169.114 91.8202 -168.101L95.4878 -166.504ZM89.4443 -162.608C89.0081 -161.593 89.4773 -160.417 90.4921 -159.981C91.5069 -159.545 92.6832 -160.014 93.1193 -161.029L89.4443 -162.608ZM90.7716 -155.529C91.2028 -156.546 90.7279 -157.72 89.711 -158.151C88.694 -158.582 87.5201 -158.107 87.089 -157.09L90.7716 -155.529ZM84.7561 -151.549C84.33 -150.53 84.8107 -149.359 85.8298 -148.933C86.8489 -148.507 88.0204 -148.987 88.4465 -150.006L84.7561 -151.549ZM86.1455 -144.462C86.5662 -145.484 86.0794 -146.653 85.0582 -147.073C84.0369 -147.494 82.8678 -147.007 82.4471 -145.986L86.1455 -144.462ZM80.165 -140.405C79.7497 -139.382 80.2427 -138.215 81.2663 -137.8C82.2898 -137.385 83.4562 -137.878 83.8715 -138.901L80.165 -140.405ZM81.6385 -133.355C82.0482 -134.381 81.5489 -135.544 80.5231 -135.954C79.4973 -136.364 78.3336 -135.864 77.9239 -134.839L81.6385 -133.355ZM75.7112 -129.254C75.3073 -128.226 75.8131 -127.065 76.8412 -126.661C77.8692 -126.257 79.0301 -126.763 79.4341 -127.791L75.7112 -129.254ZM77.2599 -122.211C77.6579 -123.241 77.1452 -124.399 76.1149 -124.797C75.0845 -125.195 73.9266 -124.682 73.5286 -123.652L77.2599 -122.211ZM71.3776 -118.034C70.9858 -117.001 71.5053 -115.847 72.538 -115.455C73.5707 -115.063 74.7256 -115.582 75.1174 -116.615L71.3776 -118.034ZM73.0084 -111.006C73.394 -112.041 72.8673 -113.192 71.8323 -113.578C70.7972 -113.963 69.6455 -113.437 69.2599 -112.402L73.0084 -111.006ZM67.1773 -106.756C66.7983 -105.719 67.3322 -104.57 68.3696 -104.191C69.4072 -103.812 70.5555 -104.346 70.9345 -105.384L67.1773 -106.756ZM68.8972 -99.7502C69.2694 -100.79 68.7282 -101.935 67.6883 -102.307C66.6483 -102.68 65.5034 -102.138 65.1312 -101.098L68.8972 -99.7502ZM63.1231 -95.4294C62.7578 -94.387 63.3067 -93.2458 64.3491 -92.8805C65.3915 -92.5152 66.5327 -93.0641 66.898 -94.1065L63.1231 -95.4294ZM64.9385 -88.4536C65.2967 -89.4985 64.74 -90.6358 63.6951 -90.994C62.6502 -91.3521 61.5128 -90.7954 61.1547 -89.7505L64.9385 -88.4536ZM59.2275 -84.0629C58.8767 -83.0155 59.4415 -81.882 60.4889 -81.5313C61.5363 -81.1805 62.6697 -81.7453 63.0205 -82.7927L59.2275 -84.0629ZM61.136 -77.0967C61.4791 -78.1467 60.9061 -79.2759 59.8562 -79.619C58.8062 -79.9621 57.6769 -79.3891 57.3339 -78.3392L61.136 -77.0967ZM55.4832 -72.6029C55.148 -71.5504 55.7295 -70.4255 56.782 -70.0904C57.8345 -69.7552 58.9594 -70.3367 59.2946 -71.3892L55.4832 -72.6029ZM57.4999 -65.6773C57.8269 -66.7324 57.2367 -67.8527 56.1816 -68.1798C55.1265 -68.5068 54.0062 -67.9165 53.6792 -66.8615L57.4999 -65.6773ZM51.9235 -61.116C51.6048 -60.0584 52.204 -58.9428 53.2617 -58.6242C54.3192 -58.3056 55.4349 -58.9047 55.7535 -59.9624L51.9235 -61.116ZM54.057 -54.2456C54.3668 -55.3058 53.7586 -56.4165 52.6983 -56.7264C51.6381 -57.0362 50.5275 -56.428 50.2176 -55.3678L54.057 -54.2456ZM48.5494 -49.5689C48.2486 -48.5061 48.8663 -47.4006 49.9292 -47.0998C50.992 -46.799 52.0974 -47.4167 52.3982 -48.4795L48.5494 -49.5689ZM50.7884 -42.6955C51.0799 -43.7609 50.4525 -44.8608 49.387 -45.1523C48.3216 -45.4437 47.2216 -44.8163 46.9302 -43.7509L50.7884 -42.6955ZM45.3671 -37.9337C45.0853 -36.8657 45.7227 -35.7715 46.7907 -35.4897C47.8587 -35.2079 48.953 -35.8453 49.2348 -36.9134L45.3671 -37.9337ZM47.7389 -31.1345C48.0107 -32.2051 47.363 -33.2933 46.2925 -33.5651C45.2218 -33.8369 44.1336 -33.1893 43.8618 -32.1187L47.7389 -31.1345ZM42.4161 -26.3071C42.1546 -25.2339 42.8126 -24.1519 43.8858 -23.8905C44.959 -23.629 46.041 -24.287 46.3024 -25.3602L42.4161 -26.3071ZM44.9116 -19.5252C45.1623 -20.6009 44.4934 -21.6762 43.4177 -21.9269C42.3419 -22.1776 41.2666 -21.5087 41.016 -20.433L44.9116 -19.5252ZM39.6732 -14.5336C39.4337 -13.4553 40.1137 -12.387 41.1919 -12.1475C42.2703 -11.908 43.3385 -12.588 43.5781 -13.6663L39.6732 -14.5336ZM42.3112 -7.81613C42.5392 -8.89689 41.8479 -9.95786 40.7671 -10.1858C39.6863 -10.4138 38.6253 -9.7224 38.3974 -8.64159L42.3112 -7.81613ZM37.1902 -2.75838C36.9742 -1.67513 37.6772 -0.621853 38.7604 -0.405856C39.8437 -0.189829 40.8969 -0.892858 41.1129 -1.97611L37.1902 -2.75838ZM39.9848 3.85249C40.1885 2.76687 39.4735 1.72165 38.3879 1.51798C37.3023 1.31429 36.2571 2.02925 36.0534 3.11487L39.9848 3.85249ZM34.973 9.0673C34.7822 10.1553 35.5096 11.1919 36.5976 11.3826C37.6855 11.5734 38.7222 10.8461 38.9129 9.75809L34.973 9.0673ZM37.9115 15.6833C38.0888 14.593 37.3487 13.5654 36.2585 13.3881C35.1682 13.2108 34.1407 13.9509 33.9634 15.0412L37.9115 15.6833ZM33.0329 21.0004C32.8694 22.0928 33.6225 23.1109 34.715 23.2743C35.8074 23.4377 36.8254 22.6846 36.9888 21.5922L33.0329 21.0004ZM36.1468 27.4834C36.2959 26.389 35.5295 25.3809 34.435 25.2318C33.3406 25.0828 32.3325 25.8492 32.1834 26.9436L36.1468 27.4834ZM31.417 32.8694C31.2828 33.9658 32.0628 34.9634 33.1591 35.0976C34.2556 35.2319 35.2532 34.4519 35.3873 33.3555L31.417 32.8694ZM34.6987 39.3325C34.8172 38.2343 34.0231 37.2479 32.9249 37.1294C31.8267 37.0108 30.8403 37.805 30.7218 38.9032L34.6987 39.3325ZM30.1154 44.9347C30.0131 46.0345 30.8218 47.009 31.9216 47.1113C33.0214 47.2136 33.9959 46.405 34.0982 45.3052L30.1154 44.9347ZM33.5904 51.2531C33.6759 50.1519 32.8525 49.1898 31.7512 49.1043C30.65 49.0187 29.6879 49.8422 29.6024 50.9434L33.5904 51.2531ZM29.1847 56.9279C29.1165 58.0303 29.9549 58.9793 31.0574 59.0475C32.1599 59.1157 33.1088 58.2772 33.177 57.1748L29.1847 56.9279ZM32.8593 63.0893C32.9095 61.9858 32.0557 61.0506 30.9523 61.0004C29.8488 60.9502 28.9137 61.804 28.8635 62.9074L32.8593 63.0893ZM28.6386 68.9955C28.6073 70.0996 29.4771 71.02 30.5812 71.0512C31.6853 71.0824 32.6057 70.2126 32.637 69.1085L28.6386 68.9955ZM32.5206 75.0951C32.5322 73.9906 31.6462 73.0858 30.5417 73.0742C29.4372 73.0626 28.5324 73.9486 28.5208 75.0531L32.5206 75.0951ZM28.5124 81.0786C28.521 82.1832 29.4234 83.0715 30.528 83.0629C31.6325 83.0543 32.5209 82.1519 32.5122 81.0473L28.5124 81.0786ZM32.6142 86.9635C32.5846 85.8594 31.6655 84.9882 30.5614 85.0177C29.4572 85.0472 28.5861 85.9663 28.6156 87.0705L32.6142 86.9635ZM28.8364 93.1071C28.8877 94.2104 29.8238 95.0633 30.9272 95.0119C32.0305 94.9606 32.8834 94.0245 32.8321 92.9211L28.8364 93.1071ZM33.1725 98.9112C33.0983 97.8092 32.1448 96.9758 31.0428 97.05C29.9407 97.1241 29.1074 98.0776 29.1815 99.1796L33.1725 98.9112ZM29.6513 105.211C29.7489 106.312 30.72 107.125 31.8202 107.027C32.9204 106.929 33.7333 105.958 33.6357 104.858L29.6513 105.211ZM34.2241 110.76C34.1024 109.662 33.1137 108.871 32.0159 108.993C30.9181 109.114 30.1267 110.103 30.2484 111.201L34.2241 110.76ZM30.9755 117.148C31.122 118.243 32.1283 119.012 33.2231 118.865C34.3179 118.719 35.0867 117.713 34.9402 116.618L30.9755 117.148ZM35.8062 122.555C35.6337 121.464 34.6094 120.719 33.5184 120.891C32.4274 121.064 31.6828 122.088 31.8553 123.179L35.8062 122.555ZM32.8759 129.16C33.0751 130.247 34.1174 130.966 35.2038 130.767C36.2903 130.567 37.0095 129.525 36.8103 128.439L32.8759 129.16ZM37.9549 134.268C37.7284 133.187 36.6684 132.494 35.5872 132.721C34.5062 132.947 33.8134 134.007 34.0399 135.089L37.9549 134.268ZM35.3499 140.963C35.6044 142.038 36.6819 142.703 37.7568 142.448C38.8317 142.194 39.4968 141.116 39.2424 140.042L35.3499 140.963ZM40.6894 145.81C40.4063 144.743 39.3112 144.107 38.2436 144.39C37.1759 144.673 36.5399 145.768 36.8231 146.836L40.6894 145.81ZM38.4602 152.682C38.7728 153.742 39.885 154.347 40.9444 154.035C42.0038 153.722 42.6093 152.61 42.2967 151.55L38.4602 152.682ZM44.0588 157.227C43.7164 156.176 42.5874 155.603 41.5373 155.945C40.4871 156.288 39.9134 157.417 40.2559 158.467L44.0588 157.227ZM42.213 164.187C42.5858 165.227 43.7308 165.767 44.7706 165.395C45.8104 165.022 46.3511 163.877 45.9784 162.837L42.213 164.187ZM48.0604 168.386C47.6571 167.358 46.4965 166.851 45.4682 167.254C44.4399 167.658 43.9333 168.818 44.3366 169.847L48.0604 168.386ZM46.6334 175.452C47.0677 176.467 48.2431 176.939 49.2587 176.504C50.2743 176.07 50.7456 174.895 50.3113 173.879L46.6334 175.452ZM52.7287 179.301C52.2634 178.299 51.0741 177.864 50.0723 178.329C49.0706 178.795 48.6357 179.984 49.1011 180.986L52.7287 179.301ZM51.7421 186.447C52.2385 187.433 53.4409 187.831 54.4276 187.334C55.4143 186.838 55.8118 185.635 55.3153 184.649L51.7421 186.447ZM58.0737 189.921C57.5462 188.951 56.3318 188.592 55.3614 189.119C54.3909 189.647 54.0318 190.861 54.5593 191.832L58.0737 189.921ZM57.5197 197.078C58.0777 198.031 59.3029 198.352 60.2561 197.794C61.2094 197.236 61.5297 196.01 60.9717 195.057L57.5197 197.078ZM64.0418 200.114C63.4535 199.179 62.2187 198.898 61.2839 199.487C60.349 200.075 60.068 201.31 60.6563 202.245L64.0418 200.114ZM63.9725 207.331C64.5907 208.246 65.8338 208.487 66.7493 207.869C67.6647 207.251 67.9057 206.008 67.2875 205.092L63.9725 207.331ZM70.7116 209.99C70.064 209.095 68.8137 208.894 67.9188 209.542C67.024 210.189 66.8235 211.44 67.471 212.335L70.7116 209.99ZM71.086 217.166C71.7618 218.04 73.018 218.2 73.8917 217.524C74.7653 216.848 74.9258 215.592 74.25 214.718L71.086 217.166ZM77.9196 219.311C77.2165 218.459 75.9559 218.338 75.104 219.041C74.2521 219.744 74.1315 221.005 74.8346 221.857L77.9196 219.311ZM78.7614 226.464C79.4911 227.293 80.7549 227.374 81.5841 226.644C82.4134 225.915 82.4941 224.651 81.7644 223.822L78.7614 226.464ZM85.7871 228.25C85.0317 227.445 83.7661 227.404 82.9602 228.159C82.1543 228.915 82.1135 230.18 82.8689 230.986L85.7871 228.25ZM87.138 235.4C87.9183 236.182 89.1846 236.183 89.9665 235.403C90.7483 234.623 90.7497 233.356 89.9695 232.574L87.138 235.4ZM94.1388 236.63C93.3357 235.872 92.0699 235.908 91.3115 236.711C90.5531 237.514 90.5893 238.78 91.3923 239.538L94.1388 236.63ZM95.816 243.594C96.641 244.329 97.9053 244.255 98.6397 243.43C99.3742 242.605 99.3008 241.341 98.4758 240.607L95.816 243.594ZM102.983 244.503C102.137 243.792 100.875 243.902 100.165 244.749C99.455 245.595 99.5651 246.856 100.411 247.566L102.983 244.503ZM105.18 251.453C106.046 252.138 107.304 251.992 107.989 251.126C108.675 250.26 108.528 249.002 107.662 248.316L105.18 251.453ZM112.398 251.958C111.513 251.297 110.26 251.478 109.599 252.363C108.937 253.248 109.119 254.501 110.003 255.163L112.398 251.958ZM114.783 258.638C115.685 259.276 116.933 259.062 117.571 258.16C118.209 257.258 117.995 256.01 117.093 255.372L114.783 258.638ZM121.945 258.71C121.027 258.096 119.785 258.342 119.17 259.26C118.556 260.178 118.802 261.42 119.72 262.034L121.945 258.71ZM124.814 265.351C125.748 265.942 126.983 265.664 127.574 264.731C128.165 263.798 127.887 262.562 126.954 261.971L124.814 265.351ZM132.123 265.154C131.176 264.586 129.947 264.895 129.38 265.842C128.813 266.79 129.121 268.018 130.068 268.586L132.123 265.154ZM135.352 271.663C136.313 272.208 137.533 271.87 138.078 270.909C138.622 269.949 138.285 268.728 137.324 268.183L135.352 271.663ZM142.381 270.976C141.409 270.452 140.196 270.817 139.673 271.79C139.149 272.763 139.514 273.975 140.487 274.499L142.381 270.976ZM145.761 277.261C146.745 277.763 147.95 277.373 148.452 276.389C148.954 275.405 148.563 274.2 147.579 273.698L145.761 277.261ZM152.918 276.35C151.924 275.869 150.728 276.286 150.247 277.28C149.766 278.274 150.182 279.47 151.177 279.951L152.918 276.35ZM156.734 282.567C157.739 283.027 158.926 282.585 159.386 281.581C159.846 280.577 159.404 279.39 158.4 278.93L156.734 282.567ZM164.026 281.437C163.013 280.998 161.835 281.463 161.396 282.477C160.957 283.49 161.422 284.668 162.435 285.107L164.026 281.437ZM167.858 287.398C168.879 287.818 170.048 287.331 170.469 286.31C170.889 285.288 170.402 284.119 169.38 283.699L167.858 287.398ZM174.77 285.861C173.741 285.459 172.582 285.967 172.179 286.995C171.777 288.024 172.286 289.184 173.314 289.586L174.77 285.861ZM178.893 291.71C179.929 292.094 181.08 291.565 181.464 290.53C181.848 289.494 181.319 288.343 180.283 287.959L178.893 291.71ZM185.921 289.994C184.879 289.628 183.738 290.176 183.371 291.218C183.005 292.26 183.553 293.402 184.596 293.768L185.921 289.994ZM190.423 295.759C191.471 296.108 192.603 295.541 192.951 294.493C193.3 293.444 192.733 292.312 191.685 291.964L190.423 295.759ZM197.574 293.868C196.521 293.537 195.398 294.123 195.067 295.176C194.735 296.23 195.321 297.353 196.375 297.684L197.574 293.868ZM201.99 299.403C203.049 299.719 204.163 299.116 204.478 298.058C204.794 296.999 204.192 295.885 203.133 295.57L201.99 299.403ZM208.698 297.185C207.635 296.885 206.53 297.503 206.229 298.566C205.929 299.629 206.547 300.734 207.61 301.034L208.698 297.185ZM213.336 302.608C214.403 302.894 215.499 302.26 215.785 301.193C216.07 300.126 215.436 299.03 214.369 298.744L213.336 302.608ZM220.148 300.247C219.077 299.976 217.99 300.625 217.719 301.696C217.448 302.767 218.097 303.854 219.168 304.125L220.148 300.247ZM225.107 305.584C226.181 305.84 227.26 305.177 227.516 304.102C227.773 303.028 227.109 301.949 226.035 301.693L225.107 305.584ZM232.031 303.081C230.953 302.839 229.883 303.516 229.641 304.594C229.399 305.672 230.076 306.742 231.154 306.984L232.031 303.081ZM237.191 308.3C238.271 308.528 239.333 307.838 239.561 306.757C239.79 305.676 239.099 304.615 238.018 304.386L237.191 308.3ZM243.638 305.541C242.555 305.325 241.501 306.028 241.285 307.111C241.069 308.194 241.772 309.247 242.855 309.464L243.638 305.541ZM248.61 310.578C249.696 310.782 250.741 310.067 250.945 308.982C251.149 307.896 250.434 306.851 249.349 306.647L248.61 310.578ZM255.151 307.704C254.063 307.512 253.026 308.238 252.834 309.326C252.642 310.413 253.368 311.451 254.456 311.643L255.151 307.704ZM260.393 312.658C261.483 312.838 262.512 312.1 262.692 311.011C262.873 309.921 262.135 308.891 261.046 308.711L260.393 312.658ZM267.033 309.669C265.941 309.5 264.919 310.248 264.751 311.34C264.582 312.431 265.33 313.453 266.422 313.622L267.033 309.669ZM272.543 314.535C273.636 314.693 274.65 313.934 274.808 312.841C274.965 311.747 274.206 310.733 273.113 310.576L272.543 314.535ZM279.287 311.433C278.192 311.286 277.186 312.055 277.04 313.15C276.893 314.245 277.662 315.251 278.757 315.397L279.287 311.433ZM284.525 316.141C285.621 316.277 286.62 315.499 286.756 314.403C286.892 313.307 286.114 312.308 285.018 312.172L284.525 316.141ZM290.764 312.86C289.667 312.733 288.675 313.52 288.548 314.618C288.421 315.715 289.208 316.707 290.306 316.834L290.764 312.86ZM296.164 317.483C297.262 317.6 298.248 316.805 298.365 315.706C298.482 314.608 297.686 313.623 296.588 313.506L296.164 317.483ZM302.49 314.109C301.391 314.001 300.412 314.805 300.305 315.904C300.197 317.004 301.001 317.982 302.1 318.09L302.49 314.109ZM308.115 318.653C309.215 318.751 310.186 317.939 310.285 316.839C310.383 315.739 309.571 314.767 308.471 314.669L308.115 318.653ZM314.531 315.185C313.43 315.096 312.465 315.916 312.376 317.017C312.287 318.118 313.107 319.083 314.208 319.172L314.531 315.185ZM320.38 319.647C321.481 319.727 322.44 318.899 322.52 317.798C322.6 316.696 321.772 315.738 320.671 315.658L320.38 319.647ZM326.89 316.086C325.788 316.015 324.836 316.85 324.765 317.952C324.693 319.055 325.529 320.006 326.631 320.078L326.89 316.086ZM332.474 320.436C333.576 320.499 334.522 319.657 334.585 318.554C334.649 317.451 333.807 316.506 332.704 316.442L332.474 320.436ZM338.475 316.755C337.371 316.699 336.432 317.548 336.376 318.651C336.32 319.754 337.169 320.694 338.272 320.75L338.475 316.755ZM344.137 321.027C345.241 321.075 346.174 320.219 346.223 319.116C346.271 318.012 345.415 317.079 344.312 317.03L344.137 321.027ZM350.216 317.269C349.112 317.228 348.184 318.09 348.144 319.193C348.103 320.297 348.964 321.225 350.068 321.266L350.216 317.269ZM356.066 321.468C357.17 321.501 358.093 320.634 358.126 319.53C358.16 318.425 357.292 317.503 356.188 317.47L356.066 321.468ZM362.227 317.633C361.122 317.607 360.206 318.481 360.18 319.585C360.153 320.689 361.027 321.606 362.131 321.632L362.227 317.633ZM368.264 321.758C369.368 321.777 370.279 320.898 370.298 319.793C370.318 318.689 369.438 317.778 368.333 317.759L368.264 321.758ZM374.508 317.846C373.404 317.834 372.499 318.72 372.486 319.824C372.474 320.929 373.36 321.834 374.464 321.846L374.508 317.846ZM380.732 321.895C381.837 321.901 382.737 321.009 382.742 319.905C382.747 318.8 381.856 317.901 380.751 317.895L380.732 321.895ZM386.538 317.907C385.434 317.908 384.539 318.804 384.54 319.908C384.541 321.013 385.437 321.908 386.542 321.907L386.538 317.907ZM392.348 321.885C393.453 321.878 394.342 320.977 394.335 319.873C394.328 318.768 393.427 317.879 392.323 317.886L392.348 321.885ZM398.164 317.832C397.059 317.846 396.175 318.751 396.188 319.856C396.201 320.96 397.107 321.845 398.211 321.832L398.164 317.832ZM404.131 321.747C405.235 321.728 406.115 320.817 406.096 319.713C406.077 318.608 405.167 317.728 404.062 317.747L404.131 321.747ZM410.018 317.629C408.914 317.654 408.039 318.569 408.064 319.674C408.088 320.778 409.004 321.653 410.108 321.628L410.018 317.629ZM416.142 321.477C417.246 321.447 418.117 320.527 418.086 319.423C418.056 318.319 417.136 317.448 416.032 317.479L416.142 321.477ZM422.104 317.295C421 317.332 420.134 318.256 420.17 319.36C420.206 320.464 421.13 321.329 422.234 321.293L422.104 317.295ZM428.384 321.076C429.488 321.035 430.349 320.106 430.307 319.002C430.266 317.898 429.337 317.037 428.233 317.079L428.384 321.076ZM434.422 316.83C433.318 316.877 432.462 317.81 432.509 318.913C432.556 320.017 433.489 320.873 434.593 320.826L434.422 316.83ZM440.818 320.544C441.922 320.492 442.773 319.555 442.721 318.451C442.668 317.348 441.731 316.496 440.628 316.549L440.818 320.544ZM446.365 316.263C445.262 316.32 444.414 317.261 444.471 318.364C444.529 319.467 445.47 320.315 446.573 320.257L446.365 316.263ZM452.376 319.942C453.479 319.88 454.322 318.935 454.26 317.832C454.198 316.73 453.253 315.886 452.15 315.948L452.376 319.942ZM457.985 315.606C456.883 315.673 456.043 316.621 456.111 317.724C456.178 318.826 457.126 319.666 458.228 319.599L457.985 315.606ZM464.129 319.227C465.232 319.156 466.067 318.204 465.995 317.102C465.924 315.999 464.972 315.164 463.87 315.236L464.129 319.227ZM469.803 314.837C468.701 314.914 467.87 315.869 467.946 316.971C468.023 318.073 468.978 318.904 470.08 318.828L469.803 314.837ZM476.08 318.399C477.181 318.318 478.009 317.36 477.928 316.258C477.847 315.157 476.888 314.329 475.787 314.41L476.08 318.399ZM481.819 313.954C480.718 314.04 479.895 315.002 479.98 316.103C480.066 317.204 481.028 318.028 482.129 317.943L481.819 313.954ZM488.228 317.457C489.329 317.367 490.148 316.402 490.059 315.301C489.969 314.2 489.003 313.38 487.902 313.47L488.228 317.457ZM494.035 312.957C492.935 313.051 492.119 314.02 492.213 315.121C492.308 316.221 493.276 317.037 494.377 316.943L494.035 312.957ZM500.576 316.399C501.676 316.301 502.488 315.329 502.389 314.229C502.291 313.128 501.319 312.317 500.219 312.415L500.576 316.399ZM506.301 311.858C505.201 311.961 504.393 312.936 504.496 314.036C504.599 315.136 505.574 315.944 506.673 315.841L506.301 311.858ZM512.422 315.293C513.521 315.187 514.326 314.209 514.22 313.11C514.113 312.01 513.135 311.205 512.036 311.312L512.422 315.293ZM517.813 310.741C516.714 310.852 515.912 311.832 516.023 312.931C516.133 314.03 517.114 314.832 518.213 314.721L517.813 310.741ZM524.046 314.125C525.145 314.01 525.943 313.027 525.828 311.929C525.714 310.83 524.731 310.032 523.632 310.146L524.046 314.125ZM529.494 309.526C528.396 309.644 527.601 310.63 527.719 311.729C527.837 312.827 528.823 313.622 529.921 313.503L529.494 309.526ZM535.84 312.857C536.937 312.736 537.729 311.747 537.607 310.649C537.485 309.551 536.497 308.76 535.399 308.882L535.84 312.857ZM541.346 308.212C540.249 308.338 539.461 309.329 539.586 310.426C539.712 311.524 540.703 312.312 541.8 312.187L541.346 308.212ZM547.804 311.491C548.901 311.362 549.686 310.368 549.557 309.271C549.428 308.174 548.434 307.389 547.337 307.518L547.804 311.491ZM553.371 306.799C552.274 306.931 551.493 307.928 551.625 309.024C551.758 310.121 552.754 310.902 553.851 310.77L553.371 306.799ZM559.94 310.024C561.037 309.888 561.815 308.889 561.679 307.793C561.543 306.697 560.544 305.918 559.448 306.054L559.94 310.024ZM565.568 305.285C564.472 305.424 563.697 306.426 563.837 307.521C563.976 308.617 564.978 309.392 566.073 309.253L565.568 305.285ZM572.25 308.456C573.345 308.313 574.117 307.309 573.974 306.214C573.831 305.119 572.827 304.347 571.732 304.49L572.25 308.456ZM577.7 303.701C576.605 303.847 575.836 304.854 575.983 305.948C576.129 307.043 577.135 307.812 578.23 307.666L577.7 303.701ZM583.963 306.891C585.058 306.742 585.824 305.734 585.674 304.639C585.525 303.545 584.517 302.779 583.422 302.928L583.963 306.891ZM589.181 302.134C588.087 302.286 587.324 303.297 587.477 304.391C587.629 305.485 588.64 306.248 589.734 306.096L589.181 302.134ZM595.54 305.278C596.634 305.122 597.394 304.11 597.239 303.016C597.083 301.923 596.071 301.162 594.977 301.318L595.54 305.278ZM600.81 300.48C599.717 300.639 598.959 301.653 599.118 302.747C599.276 303.84 600.291 304.597 601.384 304.439L600.81 300.48ZM607.265 303.578C608.358 303.416 609.113 302.4 608.951 301.307C608.79 300.214 607.773 299.459 606.68 299.621L607.265 303.578ZM612.587 298.74C611.495 298.904 610.743 299.923 610.907 301.015C611.072 302.108 612.091 302.86 613.183 302.695L612.587 298.74ZM619.138 301.791C620.23 301.623 620.979 300.603 620.812 299.511C620.645 298.419 619.624 297.67 618.532 297.837L619.138 301.791ZM624.514 296.912C623.423 297.082 622.676 298.105 622.846 299.196C623.016 300.288 624.039 301.034 625.13 300.864L624.514 296.912ZM631.16 299.916C632.251 299.743 632.995 298.718 632.822 297.627C632.649 296.536 631.624 295.792 630.533 295.965L631.16 299.916ZM636.59 294.996C635.5 295.172 634.758 296.199 634.934 297.289C635.11 298.379 636.137 299.121 637.227 298.945L636.59 294.996ZM643.332 297.952C644.422 297.773 645.161 296.745 644.982 295.655C644.804 294.565 643.775 293.826 642.685 294.005L643.332 297.952ZM648.818 292.991C647.728 293.173 646.992 294.203 647.173 295.293C647.355 296.382 648.385 297.119 649.475 296.937L648.818 292.991ZM655.379 295.946C656.468 295.762 657.202 294.73 657.018 293.641C656.834 292.552 655.802 291.818 654.712 292.002L655.379 295.946ZM660.414 291.032C659.325 291.218 658.594 292.252 658.78 293.341C658.967 294.43 660.001 295.161 661.09 294.974L660.414 291.032ZM666.832 293.983C667.92 293.794 668.649 292.759 668.46 291.671C668.271 290.582 667.235 289.853 666.147 290.042L666.832 293.983ZM671.913 289.034C670.825 289.225 670.099 290.263 670.29 291.35C670.482 292.438 671.519 293.165 672.607 292.973L671.913 289.034ZM678.413 291.944C679.501 291.75 680.225 290.712 680.031 289.624C679.837 288.537 678.798 287.812 677.711 288.006L678.413 291.944ZM683.541 286.96C682.454 287.156 681.733 288.196 681.929 289.283C682.125 290.37 683.166 291.092 684.253 290.896L683.541 286.96ZM690.124 289.829C691.211 289.63 691.93 288.588 691.732 287.501C691.533 286.415 690.491 285.695 689.404 285.894L690.124 289.829ZM695.3 284.809C694.214 285.01 693.496 286.053 693.697 287.14C693.898 288.226 694.942 288.943 696.028 288.742L695.3 284.809ZM701.965 287.636C703.05 287.432 703.766 286.387 703.562 285.302C703.359 284.216 702.313 283.501 701.228 283.704L701.965 287.636ZM707.189 282.581C706.103 282.786 705.39 283.833 705.596 284.918C705.802 286.003 706.849 286.716 707.934 286.51L707.189 282.581ZM713.936 285.366C715.02 285.158 715.731 284.109 715.523 283.025C715.315 281.94 714.267 281.229 713.182 281.437L713.936 285.366ZM719.208 280.275C718.124 280.485 717.415 281.535 717.626 282.619C717.836 283.703 718.886 284.412 719.97 284.201L719.208 280.275ZM726.038 283.017C727.122 282.805 727.828 281.754 727.615 280.67C727.402 279.586 726.351 278.88 725.267 279.092L726.038 283.017ZM731.36 277.89C730.276 278.105 729.572 279.158 729.787 280.241C730.002 281.325 731.055 282.029 732.138 281.814L731.36 277.89ZM142.584 -273.605C142.134 -272.738 141.683 -271.867 141.231 -270.994L144.783 -269.156C145.234 -270.027 145.685 -270.896 146.134 -271.763L142.584 -273.605ZM138.512 -265.726C137.603 -263.96 136.692 -262.184 135.779 -260.398L139.341 -258.577C140.252 -260.36 141.162 -262.133 142.069 -263.896L138.512 -265.726ZM133.034 -255.011C132.117 -253.205 131.198 -251.39 130.278 -249.566L133.85 -247.765C134.768 -249.586 135.685 -251.397 136.6 -253.199L133.034 -255.011ZM127.612 -244.26C126.726 -242.49 125.839 -240.711 124.951 -238.924L128.533 -237.144C129.419 -238.927 130.304 -240.703 131.189 -242.47L127.612 -244.26ZM122.286 -233.54C121.397 -231.737 120.509 -229.926 119.62 -228.108L123.214 -226.352C124.1 -228.166 124.987 -229.972 125.874 -231.771L122.286 -233.54ZM116.965 -222.653C116.103 -220.875 115.242 -219.089 114.381 -217.297L117.987 -215.565C118.846 -217.353 119.705 -219.134 120.565 -220.909L116.965 -222.653ZM111.802 -211.9C110.943 -210.095 110.085 -208.283 109.228 -206.465L112.847 -204.76C113.701 -206.574 114.557 -208.381 115.414 -210.182L111.802 -211.9ZM106.663 -200.993C105.813 -199.171 104.965 -197.344 104.119 -195.51L107.751 -193.834C108.595 -195.662 109.44 -197.485 110.288 -199.302L106.663 -200.993ZM101.629 -190.086C100.801 -188.273 99.975 -186.454 99.1516 -184.631L102.797 -182.985C103.618 -184.803 104.442 -186.617 105.267 -188.425L101.629 -190.086ZM96.689 -179.145C95.8708 -177.311 95.0552 -175.473 94.2426 -173.63L97.9027 -172.016C98.7128 -173.854 99.5259 -175.686 100.342 -177.515L96.689 -179.145ZM91.8202 -168.101C91.025 -166.274 90.2329 -164.443 89.4443 -162.608L93.1193 -161.029C93.9054 -162.858 94.695 -164.683 95.4878 -166.504L91.8202 -168.101ZM87.089 -157.09C86.3075 -155.247 85.5298 -153.4 84.7561 -151.549L88.4465 -150.006C89.2176 -151.851 89.9928 -153.692 90.7716 -155.529L87.089 -157.09ZM82.4471 -145.986C81.6821 -144.129 80.9213 -142.269 80.165 -140.405L83.8715 -138.901C84.625 -140.758 85.3831 -142.612 86.1455 -144.462L82.4471 -145.986ZM77.9239 -134.839C77.1815 -132.98 76.4438 -131.118 75.7112 -129.254L79.4341 -127.791C80.164 -129.648 80.8989 -131.503 81.6385 -133.355L77.9239 -134.839ZM73.5286 -123.652C72.8062 -121.782 72.0892 -119.909 71.3776 -118.034L75.1174 -116.615C75.8261 -118.483 76.5403 -120.348 77.2599 -122.211L73.5286 -123.652ZM69.2599 -112.402C68.5599 -110.522 67.8655 -108.64 67.1773 -106.756L70.9345 -105.384C71.6198 -107.26 72.3112 -109.134 73.0084 -111.006L69.2599 -112.402ZM65.1312 -101.098C64.4554 -99.2105 63.786 -97.3208 63.1231 -95.4294L66.898 -94.1065C67.5579 -95.9893 68.2244 -97.8707 68.8972 -99.7502L65.1312 -101.098ZM61.1547 -89.7505C60.5053 -87.856 59.8629 -85.9601 59.2275 -84.0629L63.0205 -82.7927C63.6528 -84.6808 64.2922 -86.5678 64.9385 -88.4536L61.1547 -89.7505ZM57.3339 -78.3392C56.7094 -76.4281 56.0924 -74.516 55.4832 -72.6029L59.2946 -71.3892C59.9007 -73.2925 60.5146 -75.1951 61.136 -77.0967L57.3339 -78.3392ZM53.6792 -66.8615C53.0858 -64.9469 52.5005 -63.0317 51.9235 -61.116L55.7535 -59.9624C56.3274 -61.8677 56.9096 -63.7728 57.4999 -65.6773L53.6792 -66.8615ZM50.2176 -55.3678C49.6527 -53.435 49.0966 -51.502 48.5494 -49.5689L52.3982 -48.4795C52.9422 -50.4015 53.4952 -52.3236 54.057 -54.2456L50.2176 -55.3678ZM46.9302 -43.7509C46.3997 -41.8116 45.8786 -39.8725 45.3671 -37.9337L49.2348 -36.9134C49.7431 -38.8402 50.2611 -40.7677 50.7884 -42.6955L46.9302 -43.7509ZM43.8618 -32.1187C43.3699 -30.1809 42.8879 -28.2436 42.4161 -26.3071L46.3024 -25.3602C46.7711 -27.2841 47.2501 -29.2089 47.7389 -31.1345L43.8618 -32.1187ZM41.016 -20.433C40.5574 -18.4654 40.1098 -16.4989 39.6732 -14.5336L43.5781 -13.6663C44.0115 -15.6178 44.4562 -17.5709 44.9116 -19.5252L41.016 -20.433ZM38.3974 -8.64159C37.9834 -6.67899 37.5809 -4.71785 37.1902 -2.75838L41.1129 -1.97611C41.5008 -3.92093 41.9003 -5.86767 42.3112 -7.81613L38.3974 -8.64159ZM36.0534 3.11487C35.6807 5.10104 35.3205 7.08526 34.973 9.0673L38.9129 9.75809C39.2577 7.79192 39.6151 5.82329 39.9848 3.85249L36.0534 3.11487ZM33.9634 15.0412C33.6399 17.0301 33.3296 19.0166 33.0329 21.0004L36.9888 21.5922C37.2831 19.6254 37.5907 17.6557 37.9115 15.6833L33.9634 15.0412ZM32.1834 26.9436C31.9141 28.9219 31.6584 30.8972 31.417 32.8694L35.3873 33.3555C35.6266 31.4015 35.8798 29.444 36.1468 27.4834L32.1834 26.9436ZM30.7218 38.9032C30.5043 40.9173 30.3021 42.9279 30.1154 44.9347L34.0982 45.3052C34.2831 43.3183 34.4833 41.3273 34.6987 39.3325L30.7218 38.9032ZM29.6024 50.9434C29.4471 52.9424 29.3078 54.9372 29.1847 56.9279L33.177 57.1748C33.2988 55.2054 33.4367 53.2315 33.5904 51.2531L29.6024 50.9434ZM28.8635 62.9074C28.7709 64.9416 28.6958 66.9711 28.6386 68.9955L32.637 69.1085C32.6935 67.1074 32.7677 65.1009 32.8593 63.0893L28.8635 62.9074ZM28.5208 75.0531C28.4996 77.067 28.4967 79.0756 28.5124 81.0786L32.5122 81.0473C32.4968 79.0692 32.4996 77.085 32.5206 75.0951L28.5208 75.0531ZM28.6156 87.0705C28.6695 89.0888 28.743 91.1011 28.8364 93.1071L32.8321 92.9211C32.7399 90.9419 32.6674 88.9559 32.6142 86.9635L28.6156 87.0705ZM29.1815 99.1796C29.3172 101.197 29.4736 103.208 29.6513 105.211L33.6357 104.858C33.4606 102.883 33.3063 100.901 33.1725 98.9112L29.1815 99.1796ZM30.2484 111.201C30.469 113.191 30.7112 115.173 30.9755 117.148L34.9402 116.618C34.68 114.673 34.4414 112.72 34.2241 110.76L30.2484 111.201ZM31.8553 123.179C32.1719 125.181 32.512 127.175 32.8759 129.16L36.8103 128.439C36.4524 126.486 36.1178 124.525 35.8062 122.555L31.8553 123.179ZM34.0399 135.089C34.4521 137.056 34.8886 139.014 35.3499 140.963L39.2424 140.042C38.7891 138.127 38.3601 136.202 37.9549 134.268L34.0399 135.089ZM36.8231 146.836C37.3426 148.795 37.8882 150.744 38.4602 152.682L42.2967 151.55C41.7353 149.648 41.1997 147.734 40.6894 145.81L36.8231 146.836ZM40.2559 158.467C40.8813 160.384 41.5335 162.291 42.213 164.187L45.9784 162.837C45.312 160.978 44.6723 159.108 44.0588 157.227L40.2559 158.467ZM44.3366 169.847C45.074 171.727 45.8396 173.595 46.6334 175.452L50.3113 173.879C49.5334 172.06 48.7833 170.229 48.0604 168.386L44.3366 169.847ZM49.1011 180.986C49.9523 182.819 50.8325 184.639 51.7421 186.447L55.3153 184.649C54.4247 182.879 53.5626 181.096 52.7287 179.301L49.1011 180.986ZM54.5593 191.832C55.5168 193.593 56.5035 195.342 57.5197 197.078L60.9717 195.057C59.977 193.358 59.0111 191.646 58.0737 189.921L54.5593 191.832ZM60.6563 202.245C61.7316 203.953 62.8369 205.649 63.9725 207.331L67.2875 205.092C66.1761 203.446 65.0943 201.787 64.0418 200.114L60.6563 202.245ZM67.471 212.335C68.6462 213.959 69.851 215.569 71.086 217.166L74.25 214.718C73.0411 213.156 71.8618 211.579 70.7116 209.99L67.471 212.335ZM74.8346 221.857C76.1137 223.407 77.4225 224.942 78.7614 226.464L81.7644 223.822C80.4533 222.332 79.1718 220.828 77.9196 219.311L74.8346 221.857ZM82.8689 230.986C84.2617 232.472 85.6846 233.943 87.138 235.4L89.9695 232.574C88.5454 231.147 87.1513 229.706 85.7871 228.25L82.8689 230.986ZM91.3923 239.538C92.8385 240.904 94.313 242.256 95.816 243.594L98.4758 240.607C97.0019 239.294 95.5564 237.969 94.1388 236.63L91.3923 239.538ZM100.411 247.566C101.972 248.876 103.561 250.172 105.18 251.453L107.662 248.316C106.073 247.059 104.514 245.788 102.983 244.503L100.411 247.566ZM110.003 255.163C111.571 256.334 113.164 257.492 114.783 258.638L117.093 255.372C115.502 254.247 113.937 253.109 112.398 251.958L110.003 255.163ZM119.72 262.034C121.392 263.153 123.09 264.259 124.814 265.351L126.954 261.971C125.258 260.897 123.588 259.81 121.945 258.71L119.72 262.034ZM130.068 268.586C131.804 269.625 133.565 270.651 135.352 271.663L137.324 268.183C135.565 267.186 133.831 266.176 132.123 265.154L130.068 268.586ZM140.487 274.499C142.222 275.432 143.98 276.353 145.761 277.261L147.579 273.698C145.823 272.802 144.09 271.895 142.381 270.976L140.487 274.499ZM151.177 279.951C153.006 280.835 154.858 281.707 156.734 282.567L158.4 278.93C156.549 278.082 154.722 277.222 152.918 276.35L151.177 279.951ZM162.435 285.107C164.222 285.882 166.03 286.645 167.858 287.398L169.38 283.699C167.575 282.956 165.79 282.202 164.026 281.437L162.435 285.107ZM173.314 289.586C175.153 290.305 177.013 291.013 178.893 291.71L180.283 287.959C178.425 287.27 176.587 286.571 174.77 285.861L173.314 289.586ZM184.596 293.768C186.517 294.443 188.459 295.107 190.423 295.759L191.685 291.964C189.742 291.318 187.821 290.661 185.921 289.994L184.596 293.768ZM196.375 297.684C198.229 298.267 200.1 298.84 201.99 299.403L203.133 295.57C201.262 295.012 199.409 294.445 197.574 293.868L196.375 297.684ZM207.61 301.034C209.501 301.568 211.409 302.093 213.336 302.608L214.369 298.744C212.461 298.234 210.57 297.714 208.698 297.185L207.61 301.034ZM219.168 304.125C221.13 304.621 223.109 305.107 225.107 305.584L226.035 301.693C224.055 301.221 222.092 300.739 220.148 300.247L219.168 304.125ZM231.154 306.984C233.149 307.432 235.161 307.871 237.191 308.3L238.018 304.386C236.005 303.961 234.009 303.526 232.031 303.081L231.154 306.984ZM242.855 309.464C244.759 309.843 246.677 310.215 248.61 310.578L249.349 306.647C247.43 306.286 245.526 305.918 243.638 305.541L242.855 309.464ZM254.456 311.643C256.42 311.989 258.399 312.328 260.393 312.658L261.046 308.711C259.065 308.384 257.101 308.048 255.151 307.704L254.456 311.643ZM266.422 313.622C268.447 313.935 270.487 314.239 272.543 314.535L273.113 310.576C271.071 310.282 269.044 309.98 267.033 309.669L266.422 313.622ZM278.757 315.397C280.667 315.653 282.589 315.9 284.525 316.141L285.018 312.172C283.095 311.932 281.184 311.686 279.287 311.433L278.757 315.397ZM290.306 316.834C292.246 317.057 294.198 317.274 296.164 317.483L296.588 313.506C294.633 313.298 292.692 313.082 290.764 312.86L290.306 316.834ZM302.1 318.09C304.092 318.285 306.097 318.472 308.115 318.653L308.471 314.669C306.464 314.489 304.47 314.303 302.49 314.109L302.1 318.09ZM314.208 319.172C316.252 319.338 318.309 319.496 320.38 319.647L320.671 315.658C318.611 315.507 316.564 315.35 314.531 315.185L314.208 319.172ZM326.631 320.078C328.567 320.203 330.515 320.323 332.474 320.436L332.704 316.442C330.755 316.33 328.817 316.211 326.89 316.086L326.631 320.078ZM338.272 320.75C340.216 320.848 342.171 320.94 344.137 321.027L344.312 317.03C342.355 316.945 340.409 316.853 338.475 316.755L338.272 320.75ZM350.068 321.266C352.056 321.34 354.056 321.407 356.066 321.468L356.188 317.47C354.186 317.409 352.196 317.342 350.216 317.269L350.068 321.266ZM362.131 321.632C364.164 321.68 366.209 321.722 368.264 321.758L368.333 317.759C366.286 317.723 364.251 317.681 362.227 317.633L362.131 321.632ZM374.464 321.846C376.542 321.869 378.632 321.885 380.732 321.895L380.751 317.895C378.659 317.885 376.578 317.869 374.508 317.846L374.464 321.846ZM386.542 321.907C388.468 321.905 390.403 321.898 392.348 321.885L392.323 317.886C390.385 317.898 388.457 317.905 386.538 317.907L386.542 321.907ZM398.211 321.832C400.175 321.809 402.148 321.78 404.131 321.747L404.062 317.747C402.087 317.781 400.12 317.809 398.164 317.832L398.211 321.832ZM410.108 321.628C412.11 321.583 414.121 321.533 416.142 321.477L416.032 317.479C414.018 317.534 412.013 317.584 410.018 317.629L410.108 321.628ZM422.234 321.293C424.275 321.226 426.325 321.154 428.384 321.076L428.233 317.079C426.18 317.157 424.137 317.229 422.104 317.295L422.234 321.293ZM434.593 320.826C436.658 320.738 438.734 320.644 440.818 320.544L440.628 316.549C438.549 316.648 436.481 316.742 434.422 316.83L434.593 320.826ZM446.573 320.257C448.499 320.157 450.434 320.052 452.376 319.942L452.15 315.948C450.214 316.058 448.285 316.162 446.365 316.263L446.573 320.257ZM458.228 319.599C460.187 319.48 462.154 319.356 464.129 319.227L463.87 315.236C461.9 315.364 459.939 315.487 457.985 315.606L458.228 319.599ZM470.08 318.828C472.071 318.69 474.071 318.547 476.08 318.399L475.787 314.41C473.784 314.557 471.789 314.7 469.803 314.837L470.08 318.828ZM482.129 317.943C484.154 317.785 486.187 317.624 488.228 317.457L487.902 313.47C485.866 313.636 483.839 313.798 481.819 313.954L482.129 317.943ZM494.377 316.943C496.435 316.766 498.501 316.585 500.576 316.399L500.219 312.415C498.149 312.601 496.088 312.781 494.035 312.957L494.377 316.943ZM506.673 315.841C508.583 315.662 510.499 315.48 512.422 315.293L512.036 311.312C510.117 311.498 508.206 311.68 506.301 311.858L506.673 315.841ZM518.213 314.721C520.15 314.527 522.094 314.328 524.046 314.125L523.632 310.146C521.685 310.349 519.745 310.547 517.813 310.741L518.213 314.721ZM529.921 313.503C531.887 313.292 533.86 313.077 535.84 312.857L535.399 308.882C533.423 309.101 531.455 309.316 529.494 309.526L529.921 313.503ZM541.8 312.187C543.794 311.959 545.796 311.727 547.804 311.491L547.337 307.518C545.333 307.754 543.336 307.985 541.346 308.212L541.8 312.187ZM553.851 310.77C555.873 310.525 557.903 310.277 559.94 310.024L559.448 306.054C557.415 306.307 555.389 306.555 553.371 306.799L553.851 310.77ZM566.073 309.253C568.125 308.991 570.184 308.726 572.25 308.456L571.732 304.49C569.67 304.759 567.615 305.024 565.568 305.285L566.073 309.253ZM578.23 307.666C580.135 307.411 582.046 307.153 583.963 306.891L583.422 302.928C581.509 303.189 579.601 303.447 577.7 303.701L578.23 307.666ZM589.734 306.096C591.663 305.827 593.599 305.554 595.54 305.278L594.977 301.318C593.039 301.593 591.107 301.865 589.181 302.134L589.734 306.096ZM601.384 304.439C603.338 304.156 605.299 303.869 607.265 303.578L606.68 299.621C604.717 299.911 602.761 300.197 600.81 300.48L601.384 304.439ZM613.183 302.695C615.162 302.397 617.147 302.096 619.138 301.791L618.532 297.837C616.544 298.141 614.563 298.443 612.587 298.74L613.183 302.695ZM625.13 300.864C627.134 300.552 629.144 300.235 631.16 299.916L630.533 295.965C628.521 296.284 626.514 296.6 624.514 296.912L625.13 300.864ZM637.227 298.945C639.256 298.618 641.291 298.287 643.332 297.952L642.685 294.005C640.647 294.339 638.616 294.669 636.59 294.996L637.227 298.945ZM649.475 296.937C651.437 296.61 653.405 296.28 655.379 295.946L654.712 292.002C652.742 292.335 650.777 292.665 648.818 292.991L649.475 296.937ZM661.09 294.974C662.998 294.647 664.912 294.317 666.832 293.983L666.147 290.042C664.231 290.375 662.32 290.705 660.414 291.032L661.09 294.974ZM672.607 292.973C674.537 292.633 676.472 292.29 678.413 291.944L677.711 288.006C675.773 288.352 673.84 288.695 671.913 289.034L672.607 292.973ZM684.253 290.896C686.204 290.543 688.162 290.188 690.124 289.829L689.404 285.894C687.445 286.252 685.49 286.608 683.541 286.96L684.253 290.896ZM696.028 288.742C698.001 288.376 699.98 288.008 701.965 287.636L701.228 283.704C699.246 284.076 697.27 284.444 695.3 284.809L696.028 288.742ZM707.934 286.51C709.929 286.132 711.93 285.751 713.936 285.366L713.182 281.437C711.179 281.822 709.181 282.203 707.189 282.581L707.934 286.51ZM719.97 284.201C721.987 283.81 724.01 283.415 726.038 283.017L725.267 279.092C723.242 279.49 721.223 279.884 719.208 280.275L719.97 284.201ZM732.138 281.814C733.157 281.612 734.178 281.409 735.2 281.205L734.418 277.282C733.397 277.486 732.378 277.688 731.36 277.89L732.138 281.814Z" fill="#F4F4F4"/>
</svg>
