<svg width="24" height="65" viewBox="0 0 24 65" fill="none" xmlns="http://www.w3.org/2000/svg">
<path d="M17.9032 49.0446L18.7222 49.6184L17.9032 49.0446ZM7.56625 7.97106L7.11643 8.86417L7.56625 7.97106ZM0.88228 3.81292C0.357827 3.98604 0.0730151 4.55153 0.246134 5.07598L3.06726 13.6224C3.24038 14.1469 3.80586 14.4317 4.33032 14.2585C4.85477 14.0854 5.13958 13.5199 4.96646 12.9955L2.4588 5.39867L10.0556 2.89101C10.5801 2.71789 10.8649 2.1524 10.6918 1.62794C10.5186 1.1035 9.95315 0.818681 9.4287 0.991802L0.88228 3.81292ZM8.49637 64.2142L18.7222 49.6184L17.0842 48.4708L6.85837 63.0666L8.49637 64.2142ZM8.01608 7.07794L1.64556 3.86941L0.745914 5.65564L7.11643 8.86417L8.01608 7.07794ZM18.7222 49.6184C28.8664 35.1392 23.8056 15.0304 8.01608 7.07794L7.11643 8.86417C21.817 16.2682 26.5288 34.9902 17.0842 48.4708L18.7222 49.6184Z" fill="#000050"/>
</svg>
