<svg width="130" height="64" viewBox="0 0 130 64" fill="none" xmlns="http://www.w3.org/2000/svg">
<g clip-path="url(#clip0_131_424)">
<path d="M70.3625 23.251L63.7715 38.4152C59.2067 38.201 54.8774 36.314 51.5992 33.1097L62.6345 22.979L61.0126 21.3505L51.1738 32.6617C47.9337 29.2925 46.0571 24.8289 45.9106 20.1422L60.0387 13.9205L63.8947 9.70337L61.4618 14.6167L60.0903 15.1729C60.0903 17.4543 60.9908 19.6424 62.5937 21.2557C64.1965 22.8689 66.3704 23.7752 68.6372 23.7752L69.4044 22.3428L74.1433 19.8622L70.3625 23.251ZM77.9472 6.15439C75.3444 3.53481 72.0343 1.74261 68.4284 1.00045C64.8224 0.258279 61.0791 0.59886 57.6636 1.97987C54.2482 3.36089 51.3112 5.72147 49.2174 8.76832C47.1236 11.8152 45.9655 15.4142 45.8867 19.1179L61.1637 11.0157C61.7948 9.85825 62.6823 8.86269 63.7574 8.10628C64.8325 7.34987 66.0664 6.85293 67.3632 6.65404C68.66 6.45514 69.9848 6.55964 71.2352 6.95941C72.4851 7.35919 73.6268 8.04349 74.5721 8.95926C75.5168 9.87496 76.2395 10.9975 76.6839 12.2398C77.1283 13.4821 77.2816 14.8106 77.1333 16.1225C76.9849 17.4343 76.5384 18.694 75.8283 19.804C75.1183 20.914 74.1631 21.8444 73.0376 22.5229L64.6897 38.4352C68.4027 38.4284 72.0301 37.3145 75.1147 35.234C78.1994 33.1535 80.6016 30.1998 82.0196 26.7459C83.4369 23.2919 83.8064 19.4927 83.0801 15.8277C82.3538 12.1629 80.5649 8.7967 77.9394 6.15439H77.9472Z" fill="url(#paint0_linear_131_424)"/>
<path d="M2.87431 62.7176C1.99757 62.2477 1.26704 61.5428 0.763443 60.6811C0.248293 59.7917 -0.0156334 58.7776 0.000183058 57.7483C-0.0156758 56.7179 0.251181 55.7031 0.771384 54.8155C1.28021 53.9551 2.01286 53.2509 2.89021 52.7789C3.81761 52.2798 4.85593 52.0265 5.90744 52.0427C6.75379 52.0324 7.59347 52.1943 8.37609 52.5189C9.10479 52.823 9.75275 53.2943 10.2683 53.8952L8.94456 55.1476C8.57483 54.731 8.12047 54.3993 7.6122 54.1749C7.104 53.9506 6.55377 53.8388 5.99886 53.8472C5.29039 53.8363 4.59098 54.0085 3.96751 54.3474C3.38148 54.6696 2.89677 55.1506 2.56822 55.7357C2.23698 56.3541 2.06357 57.0457 2.06357 57.7483C2.06357 58.4508 2.23698 59.1424 2.56822 59.7608C2.89677 60.346 3.38148 60.8269 3.96751 61.1492C4.59098 61.4881 5.29039 61.6602 5.99886 61.6493C6.55526 61.6576 7.10682 61.5442 7.61538 61.3169C8.124 61.0896 8.57745 60.7539 8.94456 60.333L10.2683 61.6013C9.75049 62.2033 9.09971 62.6747 8.3681 62.9777C7.487 63.3315 6.54083 63.4913 5.59323 63.4465C4.64563 63.4016 3.71856 63.1531 2.87431 62.7176ZM29.9618 52.2028V63.2978H27.9424V53.9432H22.2259V63.2978H20.2105V52.2028H29.9618ZM50.5497 52.2028L45.7794 61.1572C45.4286 61.8664 44.9115 62.4788 44.2728 62.9417C43.7159 63.3299 43.0539 63.5366 42.3765 63.5339C41.818 63.5309 41.2659 63.4124 40.7546 63.1858L41.2595 61.5853C41.6041 61.7058 41.9644 61.7746 42.3288 61.7894C42.6685 61.7821 43 61.6828 43.2882 61.5018C43.5764 61.3208 43.8108 61.0649 43.9667 60.7611L44.1416 60.489L39.7688 52.2188H41.9552L45.2149 58.7326L48.57 52.2188L50.5497 52.2028ZM68.0687 53.9432H64.4155V63.2978H62.3841V53.9432H58.7467V52.2028H68.0687V53.9432ZM87.6506 52.2028V63.2978H85.6038V58.5405H79.9029V63.2978H77.8561V52.2028H79.9029V56.78H85.6038V52.2028H87.6506ZM98.7818 52.2028H100.797V60.0769L106.72 52.2028H108.624V63.2978H106.609V55.4276L100.686 63.2898H98.7818V52.2028ZM123.798 58.6045H121.751V63.2818H119.735V52.2028H121.751V56.844H123.862L127.042 52.2028H129.217L125.452 57.5723L129.355 63.2978H127.022L123.798 58.6045Z" fill="#00B5FF"/>
</g>
<defs>
<linearGradient id="paint0_linear_131_424" x1="51.3845" y1="32.8937" x2="78.1192" y2="6.3275" gradientUnits="userSpaceOnUse">
<stop stop-color="#02D4FF"/>
<stop offset="1" stop-color="#004EFF"/>
</linearGradient>
<clipPath id="clip0_131_424">
<rect width="130" height="64" fill="white"/>
</clipPath>
</defs>
</svg>
