<svg width="24" height="24" viewBox="0 0 24 24" fill="none" xmlns="http://www.w3.org/2000/svg">
<path d="M12 24C18.6275 24 24 18.6275 24 12C24 5.3725 18.6275 0 12 0C5.3725 0 0 5.3725 0 12C0 18.6275 5.3725 24 12 24Z" fill="#D6001C"/>
<path d="M6.82497 6.58447V10.6665C7.44647 9.92547 8.19147 9.55247 9.05547 9.55247C9.50047 9.55247 9.89897 9.63747 10.2565 9.80597C10.615 9.97347 10.883 10.1885 11.064 10.4495C11.246 10.713 11.369 11.0015 11.4355 11.3195C11.5015 11.636 11.5345 12.1285 11.5345 12.7965V17.161H9.60347V13.23C9.60347 12.45 9.56847 11.956 9.49497 11.746C9.42611 11.5403 9.2895 11.364 9.10747 11.246C8.92147 11.1205 8.68997 11.0585 8.41047 11.0585C8.09047 11.0585 7.80347 11.1385 7.55397 11.2975C7.29897 11.4575 7.11597 11.6965 6.99997 12.016C6.88197 12.336 6.82297 12.8085 6.82497 13.434L6.82297 17.161H4.89447V6.58447H6.82547H6.82497ZM14.4285 6.58447V10.6665C15.0505 9.92547 15.795 9.55247 16.6585 9.55247C17.102 9.55247 17.5035 9.63747 17.8615 9.80597C18.2185 9.97347 18.4865 10.1885 18.6665 10.4495C18.8481 10.7112 18.9745 11.0072 19.038 11.3195C19.1045 11.636 19.1375 12.1285 19.1375 12.7965V17.161H17.2085V13.23C17.2085 12.45 17.172 11.956 17.0985 11.746C17.0296 11.54 16.8926 11.3636 16.71 11.246C16.526 11.1205 16.2925 11.0585 16.013 11.0585C15.6935 11.0585 15.4065 11.1385 15.1565 11.2975C14.905 11.4575 14.721 11.6965 14.6035 12.016C14.4875 12.336 14.4285 12.8085 14.4285 13.434V17.161H12.5V6.58447H14.4285Z" fill="#FEFEFE"/>
</svg>
