<svg width="40" height="40" viewBox="0 0 40 40" fill="none" xmlns="http://www.w3.org/2000/svg">
<path d="M26.0741 23.9538L19.0476 39.9961C14.3492 39.7845 9.73545 37.8797 6.09524 34.3665L17.8624 23.6575L16.127 21.922L5.62963 33.9009C2.03175 30.176 0.169312 25.4353 0 20.6522L15.0265 14.049L19.1746 9.60457L16.5926 14.7686L15.1534 15.3612C15.1534 20.3982 19.2169 24.4617 24.254 24.4617L25.0582 22.9379L30.0952 20.3136L26.0741 23.9538ZM34.1587 5.83737C26.328 -1.99332 13.672 -1.99332 5.8836 5.83737C2.07407 9.6469 0.126984 14.557 0.042328 19.5517L16.254 11.0014C17.8201 8.20774 20.7831 6.30298 24.2116 6.30298C29.2487 6.30298 33.3122 10.3665 33.3122 15.4035C33.3122 18.7051 31.5344 21.5834 28.91 23.1919L20.0212 40.0384C25.1429 40.0384 30.2222 38.0913 34.1164 34.1972C41.9471 26.3241 41.9471 13.6681 34.1587 5.83737Z" fill="url(#paint0_linear_1_14126)"/>
<defs>
<linearGradient id="paint0_linear_1_14126" x1="5.85439" y1="34.1391" x2="34.1384" y2="5.85512" gradientUnits="userSpaceOnUse">
<stop stop-color="#02D4FF"/>
<stop offset="1" stop-color="#004EFF"/>
</linearGradient>
</defs>
</svg>
