<svg width="40" height="40" fill="none" xmlns="http://www.w3.org/2000/svg"><g clip-path="url(#clip0_401_1238)"><path d="M26.074 23.954l-7.026 16.043c-4.699-.212-9.313-2.117-12.953-5.63l11.767-10.709-1.735-1.736L5.63 33.903A20.015 20.015 0 010 20.651l15.027-6.603 4.148-4.444-2.582 5.164-1.44.593c0 5.037 4.064 9.1 9.101 9.1l.804-1.524 5.037-2.624-4.02 3.64zM34.16 5.838c-7.831-7.83-20.487-7.83-28.275 0-3.81 3.81-5.757 8.72-5.842 13.714l16.212-8.55c1.566-2.794 4.53-4.699 7.958-4.699 5.037 0 9.1 4.064 9.1 9.101 0 3.302-1.778 6.18-4.402 7.788l-8.89 16.848a19.835 19.835 0 0014.095-5.841c7.831-7.873 7.831-20.53.043-28.36z" fill="url(#paint0_linear_401_1238)"/></g><defs><linearGradient id="paint0_linear_401_1238" x1="5.854" y1="34.14" x2="34.138" y2="5.856" gradientUnits="userSpaceOnUse"><stop stop-color="#02D4FF"/><stop offset="1" stop-color="#004EFF"/></linearGradient><clipPath id="clip0_401_1238"><path fill="#fff" d="M0 0h40v40H0z"/></clipPath></defs></svg>